M48
;DRILL file {Pcbnew (2013-jul-07)-stable} date Sat 29 Nov 2014 08:52:32 PM GMT
;FORMAT={-:-/ absolute / inch / decimal}
FMAT,2
INCH,TZ
T1C0.032
T2C0.039
T3C0.040
T4C0.120
%
G90
G05
M72
T1
X4.85Y-3.95
X4.85Y-4.05
X4.85Y-4.35
X4.85Y-4.45
X5.Y-3.85
X5.Y-3.95
X5.Y-4.05
X5.Y-4.15
X5.3Y-3.85
X5.3Y-3.95
X5.3Y-4.05
X5.3Y-4.15
X5.65Y-4.3
X5.65Y-4.5
X5.9Y-3.9
X5.9Y-4.
X5.9Y-4.1
X5.9Y-4.2
X5.95Y-3.65
X6.05Y-3.65
X6.2Y-3.9
X6.2Y-4.
X6.2Y-4.1
X6.2Y-4.2
X6.3Y-3.65
X6.4Y-3.65
T2
X5.Y-3.65
X5.1Y-3.65
X5.2Y-3.65
X5.65Y-3.55
X5.65Y-3.65
X5.65Y-3.9
X5.65Y-4.
X5.65Y-4.1
X6.4Y-4.25
X6.5Y-4.25
X6.6Y-4.25
T3
X5.1Y-4.5
X5.2Y-4.5
X5.3Y-4.5
X5.9Y-4.5
X6.Y-4.5
X6.1Y-4.5
X6.4Y-3.9
X6.4Y-4.5
X6.5Y-4.5
X6.6Y-3.9
X6.6Y-4.5
X6.65Y-3.55
X6.75Y-3.55
T4
X4.65Y-3.6
X4.65Y-4.5
X6.95Y-3.6
X6.95Y-4.5
T0
M30
