G04 (created by PCBNEW (2013-jul-07)-stable) date Sat 29 Nov 2014 08:52:29 PM GMT*
%MOIN*%
G04 Gerber Fmt 3.4, Leading zero omitted, Abs format*
%FSLAX34Y34*%
G01*
G70*
G90*
G04 APERTURE LIST*
%ADD10C,0.00590551*%
%ADD11C,0.015*%
%ADD12C,0.01*%
%ADD13C,0.006*%
%ADD14C,0.012*%
%ADD15C,0.008*%
%ADD16C,0.0035*%
%ADD17C,0.00472441*%
G04 APERTURE END LIST*
G54D10*
G54D11*
X48500Y-39500D02*
X48500Y-40500D01*
X49059Y-39500D02*
G75*
G03X49059Y-39500I-559J0D01*
G74*
G01*
G54D12*
X51000Y-42000D02*
X51000Y-41500D01*
X51000Y-41500D02*
X52000Y-41500D01*
X52000Y-41500D02*
X52000Y-42000D01*
X50500Y-42000D02*
X50500Y-38000D01*
X50500Y-38000D02*
X52500Y-38000D01*
X52500Y-38000D02*
X52500Y-42000D01*
X52500Y-42000D02*
X50500Y-42000D01*
X60000Y-42500D02*
X60000Y-42000D01*
X60000Y-42000D02*
X61000Y-42000D01*
X61000Y-42000D02*
X61000Y-42500D01*
X59500Y-42500D02*
X59500Y-38500D01*
X59500Y-38500D02*
X61500Y-38500D01*
X61500Y-38500D02*
X61500Y-42500D01*
X61500Y-42500D02*
X59500Y-42500D01*
X64220Y-37000D02*
X64220Y-36000D01*
G54D13*
X63139Y-36115D02*
G75*
G03X63000Y-36500I460J-384D01*
G74*
G01*
X63000Y-36500D02*
G75*
G03X63151Y-36897I599J0D01*
G74*
G01*
X64199Y-36500D02*
G75*
G03X64055Y-36110I-599J0D01*
G74*
G01*
X64060Y-36884D02*
G75*
G03X64200Y-36500I-460J384D01*
G74*
G01*
X64087Y-36150D02*
G75*
G03X63600Y-35900I-487J-349D01*
G74*
G01*
X63600Y-35900D02*
G75*
G03X63120Y-36139I0J-600D01*
G74*
G01*
X63600Y-37099D02*
G75*
G03X64072Y-36868I0J599D01*
G74*
G01*
X63126Y-36868D02*
G75*
G03X63600Y-37100I473J368D01*
G74*
G01*
X63600Y-36250D02*
G75*
G03X63350Y-36500I0J-250D01*
G74*
G01*
X63600Y-36100D02*
G75*
G03X63200Y-36500I0J-400D01*
G74*
G01*
X63600Y-36750D02*
G75*
G03X63850Y-36500I0J250D01*
G74*
G01*
X63600Y-36900D02*
G75*
G03X64000Y-36500I0J400D01*
G74*
G01*
G54D12*
X64213Y-35986D02*
G75*
G03X63600Y-35700I-613J-513D01*
G74*
G01*
X63600Y-35701D02*
G75*
G03X62895Y-36123I0J-799D01*
G74*
G01*
X63601Y-37298D02*
G75*
G03X64210Y-37015I-1J798D01*
G74*
G01*
X62905Y-36897D02*
G75*
G03X63600Y-37300I694J397D01*
G74*
G01*
X62895Y-36120D02*
G75*
G03X62800Y-36500I704J-379D01*
G74*
G01*
X62800Y-36500D02*
G75*
G03X62918Y-36918I799J0D01*
G74*
G01*
G54D13*
X66500Y-44500D02*
X66500Y-45500D01*
X66500Y-45500D02*
X63500Y-45500D01*
X63500Y-45500D02*
X63500Y-44500D01*
X63500Y-44500D02*
X66500Y-44500D01*
X65500Y-45500D02*
X65500Y-44500D01*
X50500Y-45500D02*
X50500Y-44500D01*
X50500Y-44500D02*
X53500Y-44500D01*
X53500Y-44500D02*
X53500Y-45500D01*
X53500Y-45500D02*
X50500Y-45500D01*
X51500Y-44500D02*
X51500Y-45500D01*
G54D14*
X49000Y-43020D02*
X49000Y-45000D01*
X49000Y-45000D02*
X48000Y-45000D01*
X48000Y-45000D02*
X48000Y-43000D01*
X48000Y-43000D02*
X49000Y-43000D01*
X48750Y-43000D02*
X49000Y-43250D01*
X56900Y-42600D02*
X56900Y-45400D01*
X56900Y-45400D02*
X56100Y-45400D01*
X56100Y-45400D02*
X56100Y-42600D01*
X56100Y-42600D02*
X56900Y-42600D01*
X56700Y-42600D02*
X56900Y-42800D01*
X66750Y-39000D02*
G75*
G03X66750Y-39000I-1750J0D01*
G74*
G01*
G54D11*
X59500Y-36500D02*
X60500Y-36500D01*
X60059Y-36500D02*
G75*
G03X60059Y-36500I-559J0D01*
G74*
G01*
G54D12*
X56000Y-35000D02*
X56000Y-37000D01*
X57750Y-35000D02*
X57750Y-37000D01*
X55250Y-37000D02*
X55250Y-35000D01*
X55250Y-37000D02*
X57750Y-37000D01*
X55250Y-35000D02*
X57750Y-35000D01*
G54D13*
X68000Y-35000D02*
X68000Y-36000D01*
X68000Y-36000D02*
X66000Y-36000D01*
X66000Y-36000D02*
X66000Y-35000D01*
X66000Y-35000D02*
X68000Y-35000D01*
X58500Y-45500D02*
X58500Y-44500D01*
X58500Y-44500D02*
X61500Y-44500D01*
X61500Y-44500D02*
X61500Y-45500D01*
X61500Y-45500D02*
X58500Y-45500D01*
X59500Y-44500D02*
X59500Y-45500D01*
G54D12*
X57750Y-38500D02*
X55250Y-38500D01*
X57750Y-41500D02*
X55250Y-41500D01*
X57000Y-41500D02*
X57000Y-38500D01*
X57750Y-38500D02*
X57750Y-41500D01*
X55250Y-41500D02*
X55250Y-38500D01*
X52500Y-37750D02*
X52500Y-35250D01*
X49500Y-37750D02*
X49500Y-35250D01*
X49500Y-37000D02*
X52500Y-37000D01*
X52500Y-37750D02*
X49500Y-37750D01*
X49500Y-35250D02*
X52500Y-35250D01*
X63500Y-41250D02*
X63500Y-43750D01*
X66500Y-41250D02*
X66500Y-43750D01*
X66500Y-42000D02*
X63500Y-42000D01*
X63500Y-41250D02*
X66500Y-41250D01*
X66500Y-43750D02*
X63500Y-43750D01*
G54D11*
X47400Y-36000D02*
G75*
G03X47400Y-36000I-900J0D01*
G74*
G01*
X47400Y-45000D02*
G75*
G03X47400Y-45000I-900J0D01*
G74*
G01*
X70400Y-45000D02*
G75*
G03X70400Y-45000I-900J0D01*
G74*
G01*
X70400Y-36000D02*
G75*
G03X70400Y-36000I-900J0D01*
G74*
G01*
G54D15*
X47722Y-39683D02*
X47460Y-39850D01*
X47722Y-39969D02*
X47172Y-39969D01*
X47172Y-39778D01*
X47198Y-39730D01*
X47225Y-39707D01*
X47277Y-39683D01*
X47355Y-39683D01*
X47408Y-39707D01*
X47434Y-39730D01*
X47460Y-39778D01*
X47460Y-39969D01*
X47225Y-39492D02*
X47198Y-39469D01*
X47172Y-39421D01*
X47172Y-39302D01*
X47198Y-39254D01*
X47225Y-39230D01*
X47277Y-39207D01*
X47329Y-39207D01*
X47408Y-39230D01*
X47722Y-39516D01*
X47722Y-39207D01*
X51157Y-42202D02*
X51157Y-42607D01*
X51178Y-42654D01*
X51200Y-42678D01*
X51242Y-42702D01*
X51328Y-42702D01*
X51371Y-42678D01*
X51392Y-42654D01*
X51414Y-42607D01*
X51414Y-42202D01*
X51864Y-42702D02*
X51607Y-42702D01*
X51735Y-42702D02*
X51735Y-42202D01*
X51692Y-42273D01*
X51650Y-42321D01*
X51607Y-42345D01*
X51702Y-40885D02*
X51702Y-41076D01*
X51202Y-41076D01*
X51702Y-40752D02*
X51202Y-40752D01*
X51559Y-40619D01*
X51202Y-40485D01*
X51702Y-40485D01*
X51202Y-40104D02*
X51202Y-40295D01*
X51440Y-40314D01*
X51416Y-40295D01*
X51392Y-40257D01*
X51392Y-40161D01*
X51416Y-40123D01*
X51440Y-40104D01*
X51488Y-40085D01*
X51607Y-40085D01*
X51654Y-40104D01*
X51678Y-40123D01*
X51702Y-40161D01*
X51702Y-40257D01*
X51678Y-40295D01*
X51654Y-40314D01*
X51202Y-39723D02*
X51202Y-39914D01*
X51440Y-39933D01*
X51416Y-39914D01*
X51392Y-39876D01*
X51392Y-39780D01*
X51416Y-39742D01*
X51440Y-39723D01*
X51488Y-39704D01*
X51607Y-39704D01*
X51654Y-39723D01*
X51678Y-39742D01*
X51702Y-39780D01*
X51702Y-39876D01*
X51678Y-39914D01*
X51654Y-39933D01*
X51202Y-39342D02*
X51202Y-39533D01*
X51440Y-39552D01*
X51416Y-39533D01*
X51392Y-39495D01*
X51392Y-39400D01*
X51416Y-39361D01*
X51440Y-39342D01*
X51488Y-39323D01*
X51607Y-39323D01*
X51654Y-39342D01*
X51678Y-39361D01*
X51702Y-39400D01*
X51702Y-39495D01*
X51678Y-39533D01*
X51654Y-39552D01*
X51702Y-39152D02*
X51202Y-39152D01*
X51702Y-38923D01*
X51202Y-38923D01*
X60157Y-42702D02*
X60157Y-43107D01*
X60178Y-43154D01*
X60200Y-43178D01*
X60242Y-43202D01*
X60328Y-43202D01*
X60371Y-43178D01*
X60392Y-43154D01*
X60414Y-43107D01*
X60414Y-42702D01*
X60607Y-42750D02*
X60628Y-42726D01*
X60671Y-42702D01*
X60778Y-42702D01*
X60821Y-42726D01*
X60842Y-42750D01*
X60864Y-42797D01*
X60864Y-42845D01*
X60842Y-42916D01*
X60585Y-43202D01*
X60864Y-43202D01*
X60702Y-41385D02*
X60702Y-41576D01*
X60202Y-41576D01*
X60702Y-41252D02*
X60202Y-41252D01*
X60559Y-41119D01*
X60202Y-40985D01*
X60702Y-40985D01*
X60202Y-40604D02*
X60202Y-40795D01*
X60440Y-40814D01*
X60416Y-40795D01*
X60392Y-40757D01*
X60392Y-40661D01*
X60416Y-40623D01*
X60440Y-40604D01*
X60488Y-40585D01*
X60607Y-40585D01*
X60654Y-40604D01*
X60678Y-40623D01*
X60702Y-40661D01*
X60702Y-40757D01*
X60678Y-40795D01*
X60654Y-40814D01*
X60202Y-40223D02*
X60202Y-40414D01*
X60440Y-40433D01*
X60416Y-40414D01*
X60392Y-40376D01*
X60392Y-40280D01*
X60416Y-40242D01*
X60440Y-40223D01*
X60488Y-40204D01*
X60607Y-40204D01*
X60654Y-40223D01*
X60678Y-40242D01*
X60702Y-40280D01*
X60702Y-40376D01*
X60678Y-40414D01*
X60654Y-40433D01*
X60202Y-39842D02*
X60202Y-40033D01*
X60440Y-40052D01*
X60416Y-40033D01*
X60392Y-39995D01*
X60392Y-39900D01*
X60416Y-39861D01*
X60440Y-39842D01*
X60488Y-39823D01*
X60607Y-39823D01*
X60654Y-39842D01*
X60678Y-39861D01*
X60702Y-39900D01*
X60702Y-39995D01*
X60678Y-40033D01*
X60654Y-40052D01*
X60702Y-39652D02*
X60202Y-39652D01*
X60702Y-39423D01*
X60202Y-39423D01*
G54D16*
X63978Y-35521D02*
X63978Y-35221D01*
X64050Y-35221D01*
X64092Y-35235D01*
X64121Y-35264D01*
X64135Y-35292D01*
X64150Y-35350D01*
X64150Y-35392D01*
X64135Y-35450D01*
X64121Y-35478D01*
X64092Y-35507D01*
X64050Y-35521D01*
X63978Y-35521D01*
X64435Y-35521D02*
X64264Y-35521D01*
X64350Y-35521D02*
X64350Y-35221D01*
X64321Y-35264D01*
X64292Y-35292D01*
X64264Y-35307D01*
X63307Y-37621D02*
X63164Y-37621D01*
X63164Y-37321D01*
X63407Y-37464D02*
X63507Y-37464D01*
X63550Y-37621D02*
X63407Y-37621D01*
X63407Y-37321D01*
X63550Y-37321D01*
X63678Y-37621D02*
X63678Y-37321D01*
X63750Y-37321D01*
X63792Y-37335D01*
X63821Y-37364D01*
X63835Y-37392D01*
X63850Y-37450D01*
X63850Y-37492D01*
X63835Y-37550D01*
X63821Y-37578D01*
X63792Y-37607D01*
X63750Y-37621D01*
X63678Y-37621D01*
G54D13*
X64766Y-45611D02*
X64766Y-45897D01*
X64747Y-45954D01*
X64709Y-45992D01*
X64652Y-46011D01*
X64614Y-46011D01*
X64919Y-45611D02*
X65166Y-45611D01*
X65033Y-45764D01*
X65090Y-45764D01*
X65128Y-45783D01*
X65147Y-45802D01*
X65166Y-45840D01*
X65166Y-45935D01*
X65147Y-45973D01*
X65128Y-45992D01*
X65090Y-46011D01*
X64976Y-46011D01*
X64938Y-45992D01*
X64919Y-45973D01*
X51966Y-43911D02*
X51966Y-44197D01*
X51947Y-44254D01*
X51909Y-44292D01*
X51852Y-44311D01*
X51814Y-44311D01*
X52366Y-44311D02*
X52138Y-44311D01*
X52252Y-44311D02*
X52252Y-43911D01*
X52214Y-43969D01*
X52176Y-44007D01*
X52138Y-44026D01*
G54D15*
X49523Y-44166D02*
X49542Y-44185D01*
X49561Y-44242D01*
X49561Y-44280D01*
X49542Y-44338D01*
X49504Y-44376D01*
X49466Y-44395D01*
X49390Y-44414D01*
X49333Y-44414D01*
X49257Y-44395D01*
X49219Y-44376D01*
X49180Y-44338D01*
X49161Y-44280D01*
X49161Y-44242D01*
X49180Y-44185D01*
X49200Y-44166D01*
X49561Y-43785D02*
X49561Y-44014D01*
X49561Y-43899D02*
X49161Y-43899D01*
X49219Y-43938D01*
X49257Y-43976D01*
X49276Y-44014D01*
X56623Y-44066D02*
X56642Y-44085D01*
X56661Y-44142D01*
X56661Y-44180D01*
X56642Y-44238D01*
X56604Y-44276D01*
X56566Y-44295D01*
X56490Y-44314D01*
X56433Y-44314D01*
X56357Y-44295D01*
X56319Y-44276D01*
X56280Y-44238D01*
X56261Y-44180D01*
X56261Y-44142D01*
X56280Y-44085D01*
X56300Y-44066D01*
X56300Y-43914D02*
X56280Y-43895D01*
X56261Y-43857D01*
X56261Y-43761D01*
X56280Y-43723D01*
X56300Y-43704D01*
X56338Y-43685D01*
X56376Y-43685D01*
X56433Y-43704D01*
X56661Y-43933D01*
X56661Y-43685D01*
X64933Y-40123D02*
X64914Y-40142D01*
X64857Y-40161D01*
X64819Y-40161D01*
X64761Y-40142D01*
X64723Y-40104D01*
X64704Y-40066D01*
X64685Y-39990D01*
X64685Y-39933D01*
X64704Y-39857D01*
X64723Y-39819D01*
X64761Y-39780D01*
X64819Y-39761D01*
X64857Y-39761D01*
X64914Y-39780D01*
X64933Y-39800D01*
X65066Y-39761D02*
X65314Y-39761D01*
X65180Y-39914D01*
X65238Y-39914D01*
X65276Y-39933D01*
X65295Y-39952D01*
X65314Y-39990D01*
X65314Y-40085D01*
X65295Y-40123D01*
X65276Y-40142D01*
X65238Y-40161D01*
X65123Y-40161D01*
X65085Y-40142D01*
X65066Y-40123D01*
X64571Y-38161D02*
X64342Y-38161D01*
X64457Y-38161D02*
X64457Y-37761D01*
X64419Y-37819D01*
X64380Y-37857D01*
X64342Y-37876D01*
X64819Y-37761D02*
X64857Y-37761D01*
X64895Y-37780D01*
X64914Y-37800D01*
X64933Y-37838D01*
X64952Y-37914D01*
X64952Y-38009D01*
X64933Y-38085D01*
X64914Y-38123D01*
X64895Y-38142D01*
X64857Y-38161D01*
X64819Y-38161D01*
X64780Y-38142D01*
X64761Y-38123D01*
X64742Y-38085D01*
X64723Y-38009D01*
X64723Y-37914D01*
X64742Y-37838D01*
X64761Y-37800D01*
X64780Y-37780D01*
X64819Y-37761D01*
X65295Y-37895D02*
X65295Y-38161D01*
X65123Y-37895D02*
X65123Y-38104D01*
X65142Y-38142D01*
X65180Y-38161D01*
X65238Y-38161D01*
X65276Y-38142D01*
X65295Y-38123D01*
X65619Y-37952D02*
X65485Y-37952D01*
X65485Y-38161D02*
X65485Y-37761D01*
X65676Y-37761D01*
X59516Y-37722D02*
X59350Y-37460D01*
X59230Y-37722D02*
X59230Y-37172D01*
X59421Y-37172D01*
X59469Y-37198D01*
X59492Y-37225D01*
X59516Y-37277D01*
X59516Y-37355D01*
X59492Y-37408D01*
X59469Y-37434D01*
X59421Y-37460D01*
X59230Y-37460D01*
X59992Y-37722D02*
X59707Y-37722D01*
X59850Y-37722D02*
X59850Y-37172D01*
X59802Y-37251D01*
X59754Y-37303D01*
X59707Y-37329D01*
G54D17*
X55077Y-36419D02*
X55092Y-36374D01*
X55092Y-36299D01*
X55077Y-36269D01*
X55062Y-36254D01*
X55032Y-36239D01*
X55002Y-36239D01*
X54972Y-36254D01*
X54957Y-36269D01*
X54942Y-36299D01*
X54927Y-36359D01*
X54912Y-36389D01*
X54897Y-36404D01*
X54867Y-36419D01*
X54837Y-36419D01*
X54807Y-36404D01*
X54792Y-36389D01*
X54777Y-36359D01*
X54777Y-36284D01*
X54792Y-36239D01*
X54777Y-36134D02*
X55092Y-36059D01*
X54867Y-36000D01*
X55092Y-35940D01*
X54777Y-35865D01*
X55092Y-35580D02*
X55092Y-35760D01*
X55092Y-35670D02*
X54777Y-35670D01*
X54822Y-35700D01*
X54852Y-35730D01*
X54867Y-35760D01*
X58127Y-37972D02*
X57812Y-37972D01*
X57812Y-37897D01*
X57827Y-37852D01*
X57857Y-37822D01*
X57887Y-37807D01*
X57947Y-37792D01*
X57992Y-37792D01*
X58052Y-37807D01*
X58082Y-37822D01*
X58112Y-37852D01*
X58127Y-37897D01*
X58127Y-37972D01*
X57812Y-37657D02*
X58067Y-37657D01*
X58097Y-37642D01*
X58112Y-37627D01*
X58127Y-37597D01*
X58127Y-37537D01*
X58112Y-37507D01*
X58097Y-37492D01*
X58067Y-37477D01*
X57812Y-37477D01*
X58037Y-37342D02*
X58037Y-37192D01*
X58127Y-37372D02*
X57812Y-37267D01*
X58127Y-37162D01*
X58127Y-36907D02*
X58127Y-37057D01*
X57812Y-37057D01*
X58157Y-36877D02*
X58157Y-36637D01*
X58112Y-36577D02*
X58127Y-36532D01*
X58127Y-36457D01*
X58112Y-36427D01*
X58097Y-36412D01*
X58067Y-36397D01*
X58037Y-36397D01*
X58007Y-36412D01*
X57992Y-36427D01*
X57977Y-36457D01*
X57962Y-36517D01*
X57947Y-36547D01*
X57932Y-36562D01*
X57902Y-36577D01*
X57872Y-36577D01*
X57842Y-36562D01*
X57827Y-36547D01*
X57812Y-36517D01*
X57812Y-36442D01*
X57827Y-36397D01*
X57812Y-36292D02*
X58127Y-36217D01*
X57902Y-36157D01*
X58127Y-36097D01*
X57812Y-36022D01*
X58127Y-35902D02*
X57812Y-35902D01*
X57812Y-35797D02*
X57812Y-35617D01*
X58127Y-35707D02*
X57812Y-35707D01*
X58097Y-35332D02*
X58112Y-35347D01*
X58127Y-35392D01*
X58127Y-35422D01*
X58112Y-35467D01*
X58082Y-35497D01*
X58052Y-35512D01*
X57992Y-35527D01*
X57947Y-35527D01*
X57887Y-35512D01*
X57857Y-35497D01*
X57827Y-35467D01*
X57812Y-35422D01*
X57812Y-35392D01*
X57827Y-35347D01*
X57842Y-35332D01*
X58127Y-35197D02*
X57812Y-35197D01*
X57962Y-35197D02*
X57962Y-35017D01*
X58127Y-35017D02*
X57812Y-35017D01*
X58157Y-34942D02*
X58157Y-34702D01*
X58127Y-34627D02*
X57812Y-34627D01*
X58127Y-34477D02*
X57812Y-34477D01*
X58127Y-34297D01*
X57812Y-34297D01*
X57812Y-34192D02*
X58127Y-34087D01*
X57812Y-33982D01*
G54D13*
X66521Y-36371D02*
X66521Y-36071D01*
X66635Y-36071D01*
X66664Y-36085D01*
X66678Y-36100D01*
X66692Y-36128D01*
X66692Y-36171D01*
X66678Y-36200D01*
X66664Y-36214D01*
X66635Y-36228D01*
X66521Y-36228D01*
X66835Y-36371D02*
X66892Y-36371D01*
X66921Y-36357D01*
X66935Y-36342D01*
X66964Y-36300D01*
X66978Y-36242D01*
X66978Y-36128D01*
X66964Y-36100D01*
X66950Y-36085D01*
X66921Y-36071D01*
X66864Y-36071D01*
X66835Y-36085D01*
X66821Y-36100D01*
X66807Y-36128D01*
X66807Y-36200D01*
X66821Y-36228D01*
X66835Y-36242D01*
X66864Y-36257D01*
X66921Y-36257D01*
X66950Y-36242D01*
X66964Y-36228D01*
X66978Y-36200D01*
X67078Y-36171D02*
X67150Y-36371D01*
X67221Y-36171D01*
X67492Y-36371D02*
X67321Y-36371D01*
X67407Y-36371D02*
X67407Y-36071D01*
X67378Y-36114D01*
X67350Y-36142D01*
X67321Y-36157D01*
X59966Y-43911D02*
X59966Y-44197D01*
X59947Y-44254D01*
X59909Y-44292D01*
X59852Y-44311D01*
X59814Y-44311D01*
X60138Y-43950D02*
X60157Y-43930D01*
X60195Y-43911D01*
X60290Y-43911D01*
X60328Y-43930D01*
X60347Y-43950D01*
X60366Y-43988D01*
X60366Y-44026D01*
X60347Y-44083D01*
X60119Y-44311D01*
X60366Y-44311D01*
G54D17*
X58123Y-40207D02*
X57973Y-40312D01*
X58123Y-40387D02*
X57808Y-40387D01*
X57808Y-40267D01*
X57823Y-40237D01*
X57838Y-40222D01*
X57868Y-40207D01*
X57913Y-40207D01*
X57943Y-40222D01*
X57958Y-40237D01*
X57973Y-40267D01*
X57973Y-40387D01*
X57808Y-40117D02*
X58123Y-40012D01*
X57808Y-39907D01*
X57838Y-39817D02*
X57823Y-39802D01*
X57808Y-39772D01*
X57808Y-39697D01*
X57823Y-39667D01*
X57838Y-39652D01*
X57868Y-39637D01*
X57898Y-39637D01*
X57943Y-39652D01*
X58123Y-39832D01*
X58123Y-39637D01*
X54917Y-40367D02*
X55127Y-40367D01*
X54797Y-40442D02*
X55022Y-40517D01*
X55022Y-40322D01*
X54812Y-40232D02*
X54812Y-40022D01*
X55127Y-40157D01*
X54812Y-39842D02*
X54812Y-39812D01*
X54827Y-39782D01*
X54842Y-39767D01*
X54872Y-39752D01*
X54932Y-39737D01*
X55007Y-39737D01*
X55067Y-39752D01*
X55097Y-39767D01*
X55112Y-39782D01*
X55127Y-39812D01*
X55127Y-39842D01*
X55112Y-39872D01*
X55097Y-39887D01*
X55067Y-39902D01*
X55007Y-39917D01*
X54932Y-39917D01*
X54872Y-39902D01*
X54842Y-39887D01*
X54827Y-39872D01*
X54812Y-39842D01*
X55127Y-39602D02*
X54812Y-39602D01*
X55007Y-39572D02*
X55127Y-39482D01*
X54917Y-39482D02*
X55037Y-39602D01*
X50792Y-38123D02*
X50687Y-37973D01*
X50612Y-38123D02*
X50612Y-37808D01*
X50732Y-37808D01*
X50762Y-37823D01*
X50777Y-37838D01*
X50792Y-37868D01*
X50792Y-37913D01*
X50777Y-37943D01*
X50762Y-37958D01*
X50732Y-37973D01*
X50612Y-37973D01*
X50882Y-37808D02*
X50987Y-38123D01*
X51092Y-37808D01*
X51362Y-38123D02*
X51182Y-38123D01*
X51272Y-38123D02*
X51272Y-37808D01*
X51242Y-37853D01*
X51212Y-37883D01*
X51182Y-37898D01*
X50632Y-34917D02*
X50632Y-35127D01*
X50557Y-34797D02*
X50482Y-35022D01*
X50677Y-35022D01*
X50767Y-34812D02*
X50977Y-34812D01*
X50842Y-35127D01*
X51157Y-34812D02*
X51187Y-34812D01*
X51217Y-34827D01*
X51232Y-34842D01*
X51247Y-34872D01*
X51262Y-34932D01*
X51262Y-35007D01*
X51247Y-35067D01*
X51232Y-35097D01*
X51217Y-35112D01*
X51187Y-35127D01*
X51157Y-35127D01*
X51127Y-35112D01*
X51112Y-35097D01*
X51097Y-35067D01*
X51082Y-35007D01*
X51082Y-34932D01*
X51097Y-34872D01*
X51112Y-34842D01*
X51127Y-34827D01*
X51157Y-34812D01*
X51397Y-35127D02*
X51397Y-34812D01*
X51427Y-35007D02*
X51517Y-35127D01*
X51517Y-34917D02*
X51397Y-35037D01*
X64832Y-41131D02*
X64727Y-40981D01*
X64652Y-41131D02*
X64652Y-40816D01*
X64772Y-40816D01*
X64802Y-40831D01*
X64817Y-40846D01*
X64832Y-40876D01*
X64832Y-40921D01*
X64817Y-40951D01*
X64802Y-40966D01*
X64772Y-40981D01*
X64652Y-40981D01*
X64922Y-40816D02*
X65027Y-41131D01*
X65132Y-40816D01*
X65207Y-40816D02*
X65402Y-40816D01*
X65297Y-40936D01*
X65342Y-40936D01*
X65372Y-40951D01*
X65387Y-40966D01*
X65402Y-40996D01*
X65402Y-41071D01*
X65387Y-41101D01*
X65372Y-41116D01*
X65342Y-41131D01*
X65252Y-41131D01*
X65222Y-41116D01*
X65207Y-41101D01*
X64662Y-44127D02*
X64482Y-44127D01*
X64572Y-44127D02*
X64572Y-43812D01*
X64542Y-43857D01*
X64512Y-43887D01*
X64482Y-43902D01*
X64857Y-43812D02*
X64887Y-43812D01*
X64917Y-43827D01*
X64932Y-43842D01*
X64947Y-43872D01*
X64962Y-43932D01*
X64962Y-44007D01*
X64947Y-44067D01*
X64932Y-44097D01*
X64917Y-44112D01*
X64887Y-44127D01*
X64857Y-44127D01*
X64827Y-44112D01*
X64812Y-44097D01*
X64797Y-44067D01*
X64782Y-44007D01*
X64782Y-43932D01*
X64797Y-43872D01*
X64812Y-43842D01*
X64827Y-43827D01*
X64857Y-43812D01*
X65157Y-43812D02*
X65187Y-43812D01*
X65217Y-43827D01*
X65232Y-43842D01*
X65247Y-43872D01*
X65262Y-43932D01*
X65262Y-44007D01*
X65247Y-44067D01*
X65232Y-44097D01*
X65217Y-44112D01*
X65187Y-44127D01*
X65157Y-44127D01*
X65127Y-44112D01*
X65112Y-44097D01*
X65097Y-44067D01*
X65082Y-44007D01*
X65082Y-43932D01*
X65097Y-43872D01*
X65112Y-43842D01*
X65127Y-43827D01*
X65157Y-43812D01*
X65397Y-44127D02*
X65397Y-43812D01*
X65427Y-44007D02*
X65517Y-44127D01*
X65517Y-43917D02*
X65397Y-44037D01*
G54D12*
X46109Y-34961D02*
X45880Y-34961D01*
X45995Y-34961D02*
X45995Y-34561D01*
X45957Y-34619D01*
X45919Y-34657D01*
X45880Y-34676D01*
X46280Y-34961D02*
X46280Y-34561D01*
X46433Y-34561D01*
X46471Y-34580D01*
X46490Y-34600D01*
X46509Y-34638D01*
X46509Y-34695D01*
X46490Y-34733D01*
X46471Y-34752D01*
X46433Y-34771D01*
X46280Y-34771D01*
X46680Y-34961D02*
X46680Y-34561D01*
X46871Y-34961D02*
X46871Y-34561D01*
X47100Y-34961D01*
X47100Y-34561D01*
X46109Y-43961D02*
X45880Y-43961D01*
X45995Y-43961D02*
X45995Y-43561D01*
X45957Y-43619D01*
X45919Y-43657D01*
X45880Y-43676D01*
X46280Y-43961D02*
X46280Y-43561D01*
X46433Y-43561D01*
X46471Y-43580D01*
X46490Y-43600D01*
X46509Y-43638D01*
X46509Y-43695D01*
X46490Y-43733D01*
X46471Y-43752D01*
X46433Y-43771D01*
X46280Y-43771D01*
X46680Y-43961D02*
X46680Y-43561D01*
X46871Y-43961D02*
X46871Y-43561D01*
X47100Y-43961D01*
X47100Y-43561D01*
X69109Y-43961D02*
X68880Y-43961D01*
X68995Y-43961D02*
X68995Y-43561D01*
X68957Y-43619D01*
X68919Y-43657D01*
X68880Y-43676D01*
X69280Y-43961D02*
X69280Y-43561D01*
X69433Y-43561D01*
X69471Y-43580D01*
X69490Y-43600D01*
X69509Y-43638D01*
X69509Y-43695D01*
X69490Y-43733D01*
X69471Y-43752D01*
X69433Y-43771D01*
X69280Y-43771D01*
X69680Y-43961D02*
X69680Y-43561D01*
X69871Y-43961D02*
X69871Y-43561D01*
X70100Y-43961D01*
X70100Y-43561D01*
X69109Y-34961D02*
X68880Y-34961D01*
X68995Y-34961D02*
X68995Y-34561D01*
X68957Y-34619D01*
X68919Y-34657D01*
X68880Y-34676D01*
X69280Y-34961D02*
X69280Y-34561D01*
X69433Y-34561D01*
X69471Y-34580D01*
X69490Y-34600D01*
X69509Y-34638D01*
X69509Y-34695D01*
X69490Y-34733D01*
X69471Y-34752D01*
X69433Y-34771D01*
X69280Y-34771D01*
X69680Y-34961D02*
X69680Y-34561D01*
X69871Y-34961D02*
X69871Y-34561D01*
X70100Y-34961D01*
X70100Y-34561D01*
M02*
