  0
SECTION
  2
HEADER
  9
$ACADVER
  1
AC1014
  9
$HANDSEED
  5
FFFF
  9
$MEASUREMENT
 70
     1
  0
ENDSEC
  0
SECTION
  2
TABLES
  0
TABLE
  2
VPORT
  5
8
330
0
100
AcDbSymbolTable
 70
     4
  0
VPORT
  5
2E
330
8
100
AcDbSymbolTableRecord
100
AcDbViewportTableRecord
  2
*ACTIVE
 70
     0
 10
0.0
 20
0.0
 11
1.0
 21
1.0
 12
210.0
 22
148.5
 13
0.0
 23
0.0
 14
10.0
 24
10.0
 15
10.0
 25
10.0
 16
0.0
 26
0.0
 36
1.0
 17
0.0
 27
0.0
 37
0.0
 40
341.0
 41
1.24
 42
50.0
 43
0.0
 44
0.0
 50
0.0
 51
0.0
 71
     0
 72
   100
 73
     1
 74
     3
 75
     0
 76
     0
 77
     0
 78
     0
  0
ENDTAB
  0
TABLE
  2
LTYPE
  5
5
330
0
100
AcDbSymbolTable
 70
     1
  0
LTYPE
  5
14
330
5
100
AcDbSymbolTableRecord
100
AcDbLinetypeTableRecord
  2
BYBLOCK
 70
     0
  3

 72
    65
 73
     0
 40
0.0
  0
LTYPE
  5
15
330
5
100
AcDbSymbolTableRecord
100
AcDbLinetypeTableRecord
  2
BYLAYER
 70
     0
  3

 72
    65
 73
     0
 40
0.0
  0
LTYPE
  5
16
330
5
100
AcDbSymbolTableRecord
100
AcDbLinetypeTableRecord
  2
CONTINUOUS
 70
     0
  3
Solid line
 72
    65
 73
     0
 40
0.0
  0
ENDTAB
  0
TABLE
  2
LAYER
  5
2
100
AcDbSymbolTable
 70
1
  0
LAYER
  5
50
100
AcDbSymbolTableRecord
100
AcDbLayerTableRecord
  2
0
 70
0
  6
CONTINUOUS
  0
ENDTAB
  0
TABLE
  2
STYLE
  5
3
330
0
100
AcDbSymbolTable
 70
     1
  0
STYLE
  5
11
330
3
100
AcDbSymbolTableRecord
100
AcDbTextStyleTableRecord
  2
STANDARD
 70
     0
 40
0.0
 41
1.0
 50
0.0
 71
     0
 42
2.5
  3
txt
  4

  0
ENDTAB
  0
TABLE
  2
VIEW
  5
6
330
0
100
AcDbSymbolTable
 70
     0
  0
ENDTAB
  0
TABLE
  2
UCS
  5
7
330
0
100
AcDbSymbolTable
 70
     0
  0
ENDTAB
  0
TABLE
  2
APPID
  5
9
330
0
100
AcDbSymbolTable
 70
     2
  0
APPID
  5
12
330
9
100
AcDbSymbolTableRecord
100
AcDbRegAppTableRecord
  2
ACAD
 70
     0
  0
ENDTAB
  0
TABLE
  2
DIMSTYLE
  5
A
330
0
100
AcDbSymbolTable
 70
     1
  0
DIMSTYLE
105
27
330
A
100
AcDbSymbolTableRecord
100
AcDbDimStyleTableRecord
  2
ISO-25
 70
     0
  3

  4

  5

  6

  7

 40
1.0
 41
2.5
 42
0.625
 43
3.75
 44
1.25
 45
0.0
 46
0.0
 47
0.0
 48
0.0
140
2.5
141
2.5
142
0.0
143
0.03937007874016
144
1.0
145
0.0
146
1.0
147
0.625
 71
     0
 72
     0
 73
     0
 74
     0
 75
     0
 76
     0
 77
     1
 78
     8
170
     0
171
     3
172
     1
173
     0
174
     0
175
     0
176
     0
177
     0
178
     0
270
     2
271
     2
272
     2
273
     2
274
     3
340
11
275
     0
280
     0
281
     0
282
     0
283
     0
284
     8
285
     0
286
     0
287
     3
288
     0
  0
ENDTAB
  0
TABLE
  2
BLOCK_RECORD
  5
1
330
0
100
AcDbSymbolTable
 70
     1
  0
BLOCK_RECORD
  5
1F
330
1
100
AcDbSymbolTableRecord
100
AcDbBlockTableRecord
  2
*MODEL_SPACE
  0
BLOCK_RECORD
  5
1B
330
1
100
AcDbSymbolTableRecord
100
AcDbBlockTableRecord
  2
*PAPER_SPACE
  0
ENDTAB
  0
ENDSEC
  0
SECTION
  2
BLOCKS
  0
BLOCK
  5
20
330
1F
100
AcDbEntity
  8
0
100
AcDbBlockBegin
  2
*MODEL_SPACE
 70
     0
 10
0.0
 20
0.0
 30
0.0
  3
*MODEL_SPACE
  1

  0
ENDBLK
  5
21
330
1F
100
AcDbEntity
  8
0
100
AcDbBlockEnd
  0
BLOCK
  5
1C
330
1B
100
AcDbEntity
 67
     1
  8
0
100
AcDbBlockBegin
  2
*PAPER_SPACE
  1

  0
ENDBLK
  5
1D
330
1B
100
AcDbEntity
 67
     1
  8
0
100
AcDbBlockEnd
  0
ENDSEC
  0
SECTION
  2
ENTITIES
  0
LWPOLYLINE
  5
100
100
AcDbEntity
  8
0
 62
7
100
AcDbPolyline
 90
5
 70
0
 10
2385.336013
 20
-4960.489531
 30
0.0
 10
10999.717791
 20
-4960.489531
 30
0.0
 10
10999.717791
 20
-9957.233976
 30
0.0
 10
2385.336013
 20
-9957.233976
 30
0.0
 10
2385.336013
 20
-4960.489531
 30
0.0
  0
LWPOLYLINE
  5
101
100
AcDbEntity
  8
0
 62
7
100
AcDbPolyline
 90
11
 70
0
 10
9992.297629
 20
-7125.077813
 30
0.0
 10
9825.504296
 20
-7125.077813
 30
0.0
 10
9825.504296
 20
-7230.911147
 30
0.0
 10
9833.406518
 20
-7257.440036
 30
0.0
 10
9841.308740
 20
-7270.422258
 30
0.0
 10
9857.113184
 20
-7283.686702
 30
0.0
 10
9881.102073
 20
-7283.686702
 30
0.0
 10
9896.906518
 20
-7270.422258
 30
0.0
 10
9904.808740
 20
-7257.440036
 30
0.0
 10
9912.710962
 20
-7230.911147
 30
0.0
 10
9912.710962
 20
-7125.077813
 30
0.0
  0
LWPOLYLINE
  5
102
100
AcDbEntity
  8
0
 62
7
100
AcDbPolyline
 90
2
 70
0
 10
9881.102073
 20
-7521.882258
 30
0.0
 10
9992.297629
 20
-7521.882258
 30
0.0
  0
LWPOLYLINE
  5
103
100
AcDbEntity
  8
0
 62
7
100
AcDbPolyline
 90
7
 70
0
 10
9881.102073
 20
-7402.784480
 30
0.0
 10
9968.308740
 20
-7402.784480
 30
0.0
 10
9984.113184
 20
-7416.048924
 30
0.0
 10
9992.297629
 20
-7442.577813
 30
0.0
 10
9992.297629
 20
-7482.088924
 30
0.0
 10
9984.113184
 20
-7508.617813
 30
0.0
 10
9976.210962
 20
-7521.882258
 30
0.0
  0
LWPOLYLINE
  5
104
100
AcDbEntity
  8
0
 62
7
100
AcDbPolyline
 90
2
 70
0
 10
9881.102073
 20
-7654.244480
 30
0.0
 10
9992.297629
 20
-7654.244480
 30
0.0
  0
LWPOLYLINE
  5
105
100
AcDbEntity
  8
0
 62
7
100
AcDbPolyline
 90
7
 70
0
 10
9896.906518
 20
-7654.244480
 30
0.0
 10
9889.004296
 20
-7667.226702
 30
0.0
 10
9881.102073
 20
-7693.755591
 30
0.0
 10
9881.102073
 20
-7733.548924
 30
0.0
 10
9889.004296
 20
-7760.077813
 30
0.0
 10
9904.808740
 20
-7773.060036
 30
0.0
 10
9992.297629
 20
-7773.060036
 30
0.0
  0
LWPOLYLINE
  5
106
100
AcDbEntity
  8
0
 62
7
100
AcDbPolyline
 90
2
 70
0
 10
9992.297629
 20
-7905.422258
 30
0.0
 10
9825.504296
 20
-7905.422258
 30
0.0
  0
LWPOLYLINE
  5
107
100
AcDbEntity
  8
0
 62
7
100
AcDbPolyline
 90
2
 70
0
 10
9928.797629
 20
-7931.951147
 30
0.0
 10
9992.297629
 20
-8011.255591
 30
0.0
  0
LWPOLYLINE
  5
108
100
AcDbEntity
  8
0
 62
7
100
AcDbPolyline
 90
2
 70
0
 10
9881.102073
 20
-8011.255591
 30
0.0
 10
9944.602073
 20
-7905.422258
 30
0.0
  0
LWPOLYLINE
  5
109
100
AcDbEntity
  8
0
 62
7
100
AcDbPolyline
 90
2
 70
0
 10
3453.490962
 20
-7138.342258
 30
0.0
 10
3453.490962
 20
-7270.422258
 30
0.0
  0
LWPOLYLINE
  5
10a
100
AcDbEntity
  8
0
 62
7
100
AcDbPolyline
 90
3
 70
0
 10
3501.186518
 20
-7111.813369
 30
0.0
 10
3334.393184
 20
-7204.382258
 30
0.0
 10
3501.186518
 20
-7296.951147
 30
0.0
  0
LWPOLYLINE
  5
10b
100
AcDbEntity
  8
0
 62
7
100
AcDbPolyline
 90
2
 70
0
 10
3389.990962
 20
-7350.008924
 30
0.0
 10
3389.990962
 20
-7455.842258
 30
0.0
  0
LWPOLYLINE
  5
10c
100
AcDbEntity
  8
0
 62
7
100
AcDbPolyline
 90
5
 70
0
 10
3334.393184
 20
-7389.520036
 30
0.0
 10
3477.197629
 20
-7389.520036
 30
0.0
 10
3493.002073
 20
-7402.784480
 30
0.0
 10
3501.186518
 20
-7429.313369
 30
0.0
 10
3501.186518
 20
-7455.842258
 30
0.0
  0
LWPOLYLINE
  5
10d
100
AcDbEntity
  8
0
 62
7
100
AcDbPolyline
 90
6
 70
0
 10
3501.186518
 20
-7667.226702
 30
0.0
 10
3413.697629
 20
-7667.226702
 30
0.0
 10
3397.893184
 20
-7654.244480
 30
0.0
 10
3389.990962
 20
-7627.715591
 30
0.0
 10
3389.990962
 20
-7574.657813
 30
0.0
 10
3397.893184
 20
-7548.411147
 30
0.0
  0
LWPOLYLINE
  5
10e
100
AcDbEntity
  8
0
 62
7
100
AcDbPolyline
 90
10
 70
0
 10
3493.002073
 20
-7667.226702
 30
0.0
 10
3501.186518
 20
-7640.980036
 30
0.0
 10
3501.186518
 20
-7574.657813
 30
0.0
 10
3493.002073
 20
-7548.411147
 30
0.0
 10
3477.197629
 20
-7535.146702
 30
0.0
 10
3461.393184
 20
-7535.146702
 30
0.0
 10
3445.588740
 20
-7548.411147
 30
0.0
 10
3437.686518
 20
-7574.657813
 30
0.0
 10
3437.686518
 20
-7640.980036
 30
0.0
 10
3429.502073
 20
-7667.226702
 30
0.0
  0
LWPOLYLINE
  5
10f
100
AcDbEntity
  8
0
 62
7
100
AcDbPolyline
 90
2
 70
0
 10
3501.186518
 20
-7799.588924
 30
0.0
 10
3389.990962
 20
-7799.588924
 30
0.0
  0
LWPOLYLINE
  5
110
100
AcDbEntity
  8
0
 62
7
100
AcDbPolyline
 90
5
 70
0
 10
3421.599851
 20
-7799.588924
 30
0.0
 10
3405.795407
 20
-7812.853369
 30
0.0
 10
3397.893184
 20
-7826.117813
 30
0.0
 10
3389.990962
 20
-7852.646702
 30
0.0
 10
3389.990962
 20
-7878.893369
 30
0.0
  0
LWPOLYLINE
  5
111
100
AcDbEntity
  8
0
 62
7
100
AcDbPolyline
 90
2
 70
0
 10
3501.186518
 20
-7971.462258
 30
0.0
 10
3389.990962
 20
-7971.462258
 30
0.0
  0
LWPOLYLINE
  5
112
100
AcDbEntity
  8
0
 62
7
100
AcDbPolyline
 90
6
 70
0
 10
3334.393184
 20
-7971.462258
 30
0.0
 10
3342.295407
 20
-7958.480036
 30
0.0
 10
3350.197629
 20
-7971.462258
 30
0.0
 10
3342.295407
 20
-7984.726702
 30
0.0
 10
3334.393184
 20
-7971.462258
 30
0.0
 10
3350.197629
 20
-7971.462258
 30
0.0
  0
LWPOLYLINE
  5
113
100
AcDbEntity
  8
0
 62
7
100
AcDbPolyline
 90
2
 70
0
 10
6172.137629
 20
-6432.786702
 30
0.0
 10
6339.777629
 20
-6432.786702
 30
0.0
  0
LWPOLYLINE
  5
114
100
AcDbEntity
  8
0
 62
7
100
AcDbPolyline
 90
2
 70
0
 10
6172.137629
 20
-6150.564480
 30
0.0
 10
6339.777629
 20
-6150.564480
 30
0.0
  0
LWPOLYLINE
  5
115
100
AcDbEntity
  8
0
 62
7
100
AcDbPolyline
 90
2
 70
0
 10
6339.777629
 20
-7138.342258
 30
0.0
 10
6172.137629
 20
-7138.342258
 30
0.0
  0
LWPOLYLINE
  5
116
100
AcDbEntity
  8
0
 62
7
100
AcDbPolyline
 90
2
 70
0
 10
6339.777629
 20
-7420.564480
 30
0.0
 10
6172.137629
 20
-7420.564480
 30
0.0
  0
LWPOLYLINE
  5
117
100
AcDbEntity
  8
0
 62
7
100
AcDbPolyline
 90
2
 70
0
 10
6339.777629
 20
-7702.786702
 30
0.0
 10
6172.137629
 20
-7702.786702
 30
0.0
  0
LWPOLYLINE
  5
118
100
AcDbEntity
  8
0
 62
7
100
AcDbPolyline
 90
2
 70
0
 10
4985.957629
 20
-6516.606702
 30
0.0
 10
4985.957629
 20
-6348.966702
 30
0.0
  0
LWPOLYLINE
  5
119
100
AcDbEntity
  8
0
 62
7
100
AcDbPolyline
 90
2
 70
0
 10
4703.735407
 20
-6516.606702
 30
0.0
 10
4703.735407
 20
-6348.966702
 30
0.0
  0
LWPOLYLINE
  5
11a
100
AcDbEntity
  8
0
 62
7
100
AcDbPolyline
 90
2
 70
0
 10
4421.513184
 20
-6516.606702
 30
0.0
 10
4421.513184
 20
-6348.966702
 30
0.0
  0
LWPOLYLINE
  5
11b
100
AcDbEntity
  8
0
 62
7
100
AcDbPolyline
 90
2
 70
0
 10
8372.624296
 20
-8042.300036
 30
0.0
 10
8372.624296
 20
-8209.940036
 30
0.0
  0
LWPOLYLINE
  5
11c
100
AcDbEntity
  8
0
 62
7
100
AcDbPolyline
 90
2
 70
0
 10
8654.846518
 20
-8042.300036
 30
0.0
 10
8654.846518
 20
-8209.940036
 30
0.0
  0
LWPOLYLINE
  5
11d
100
AcDbEntity
  8
0
 62
7
100
AcDbPolyline
 90
2
 70
0
 10
8937.068740
 20
-8042.300036
 30
0.0
 10
8937.068740
 20
-8209.940036
 30
0.0
  0
LWPOLYLINE
  5
11e
100
AcDbEntity
  8
0
 62
7
100
AcDbPolyline
 90
2
 70
0
 10
7384.846518
 20
-8549.453369
 30
0.0
 10
5691.513184
 20
-8549.453369
 30
0.0
  0
LWPOLYLINE
  5
11f
100
AcDbEntity
  8
0
 62
7
100
AcDbPolyline
 90
2
 70
0
 10
5691.513184
 20
-7279.453369
 30
0.0
 10
5691.513184
 20
-8549.453369
 30
0.0
  0
LWPOLYLINE
  5
120
100
AcDbEntity
  8
0
 62
7
100
AcDbPolyline
 90
2
 70
0
 10
7384.846518
 20
-8549.453369
 30
0.0
 10
7384.846518
 20
-7702.786702
 30
0.0
  0
LWPOLYLINE
  5
121
100
AcDbEntity
  8
0
 62
7
100
AcDbPolyline
 90
2
 70
0
 10
7808.179851
 20
-7702.786702
 30
0.0
 10
7384.846518
 20
-7702.786702
 30
0.0
  0
LWPOLYLINE
  5
122
100
AcDbEntity
  8
0
 62
7
100
AcDbPolyline
 90
2
 70
0
 10
5691.513184
 20
-7279.453369
 30
0.0
 10
5268.179851
 20
-7279.453369
 30
0.0
  0
LWPOLYLINE
  5
123
100
AcDbEntity
  8
0
 62
7
100
AcDbPolyline
 90
2
 70
0
 10
7808.179851
 20
-7420.564480
 30
0.0
 10
8372.624296
 20
-7138.342258
 30
0.0
  0
LWPOLYLINE
  5
124
100
AcDbEntity
  8
0
 62
7
100
AcDbPolyline
 90
2
 70
0
 10
6255.957629
 20
-6150.564480
 30
0.0
 10
9078.179851
 20
-6150.564480
 30
0.0
  0
LWPOLYLINE
  5
125
100
AcDbEntity
  8
0
 62
7
100
AcDbPolyline
 90
3
 70
0
 10
8372.624296
 20
-8126.120036
 30
0.0
 10
7949.290962
 20
-8126.120036
 30
0.0
 10
7808.179851
 20
-7985.008924
 30
0.0
  0
LWPOLYLINE
  5
126
100
AcDbEntity
  8
0
 62
7
100
AcDbPolyline
 90
2
 70
0
 10
7525.957629
 20
-8831.675591
 30
0.0
 10
7525.957629
 20
-9113.897813
 30
0.0
  0
LWPOLYLINE
  5
127
100
AcDbEntity
  8
0
 62
7
100
AcDbPolyline
 90
2
 70
0
 10
8372.624296
 20
-9113.897813
 30
0.0
 10
8372.624296
 20
-8831.675591
 30
0.0
  0
LWPOLYLINE
  5
128
100
AcDbEntity
  8
0
 62
7
100
AcDbPolyline
 90
2
 70
0
 10
5268.179851
 20
-8831.675591
 30
0.0
 10
5268.179851
 20
-7843.897813
 30
0.0
  0
LWPOLYLINE
  5
129
100
AcDbEntity
  8
0
 62
7
100
AcDbPolyline
 90
2
 70
0
 10
9360.402073
 20
-6150.564480
 30
0.0
 10
9360.402073
 20
-9113.897813
 30
0.0
  0
LWPOLYLINE
  5
12a
100
AcDbEntity
  8
0
 62
7
100
AcDbPolyline
 90
2
 70
0
 10
5268.179851
 20
-9113.897813
 30
0.0
 10
5268.179851
 20
-8831.675591
 30
0.0
  0
LWPOLYLINE
  5
12b
100
AcDbEntity
  8
0
 62
7
100
AcDbPolyline
 90
4
 70
0
 10
9360.402073
 20
-9113.897813
 30
0.0
 10
8372.624296
 20
-9113.897813
 30
0.0
 10
7525.957629
 20
-9113.897813
 30
0.0
 10
5268.179851
 20
-9113.897813
 30
0.0
  0
LWPOLYLINE
  5
12c
100
AcDbEntity
  8
0
 62
7
100
AcDbPolyline
 90
3
 70
0
 10
9360.402073
 20
-6150.564480
 30
0.0
 10
9360.402073
 20
-6432.786702
 30
0.0
 10
8090.402073
 20
-6432.786702
 30
0.0
  0
LWPOLYLINE
  5
12d
100
AcDbEntity
  8
0
 62
7
100
AcDbPolyline
 90
3
 70
0
 10
8372.624296
 20
-8831.675591
 30
0.0
 10
8372.624296
 20
-8549.453369
 30
0.0
 10
7808.179851
 20
-7985.008924
 30
0.0
  0
LWPOLYLINE
  5
12e
100
AcDbEntity
  8
0
 62
7
100
AcDbPolyline
 90
2
 70
0
 10
7949.290962
 20
-8126.120036
 30
0.0
 10
7808.179851
 20
-7985.008924
 30
0.0
  0
LWPOLYLINE
  5
12f
100
AcDbEntity
  8
0
 62
7
100
AcDbPolyline
 90
2
 70
0
 10
5268.179851
 20
-8831.675591
 30
0.0
 10
5268.179851
 20
-8831.675591
 30
0.0
  0
LWPOLYLINE
  5
130
100
AcDbEntity
  8
0
 62
7
100
AcDbPolyline
 90
2
 70
0
 10
4421.513184
 20
-6432.786702
 30
0.0
 10
4421.513184
 20
-6715.008924
 30
0.0
  0
LWPOLYLINE
  5
131
100
AcDbEntity
  8
0
 62
7
100
AcDbPolyline
 90
2
 70
0
 10
4844.846518
 20
-7138.342258
 30
0.0
 10
4421.513184
 20
-7561.675591
 30
0.0
  0
LWPOLYLINE
  5
132
100
AcDbEntity
  8
0
 62
7
100
AcDbPolyline
 90
2
 70
0
 10
4421.513184
 20
-6715.008924
 30
0.0
 10
4844.846518
 20
-7138.342258
 30
0.0
  0
LWPOLYLINE
  5
133
100
AcDbEntity
  8
0
 62
7
100
AcDbPolyline
 90
3
 70
0
 10
4421.513184
 20
-6432.786702
 30
0.0
 10
4421.513184
 20
-6573.897813
 30
0.0
 10
3998.179851
 20
-6997.231147
 30
0.0
  0
LWPOLYLINE
  5
134
100
AcDbEntity
  8
0
 62
7
100
AcDbPolyline
 90
2
 70
0
 10
6255.957629
 20
-7702.786702
 30
0.0
 10
6961.513184
 20
-7702.786702
 30
0.0
  0
LWPOLYLINE
  5
135
100
AcDbEntity
  8
0
 62
7
100
AcDbPolyline
 90
2
 70
0
 10
6255.957629
 20
-8267.231147
 30
0.0
 10
6255.957629
 20
-7702.786702
 30
0.0
  0
LWPOLYLINE
  5
136
100
AcDbEntity
  8
0
 62
7
100
AcDbPolyline
 90
2
 70
0
 10
6961.513184
 20
-7420.564480
 30
0.0
 10
6961.513184
 20
-7702.786702
 30
0.0
  0
LWPOLYLINE
  5
137
100
AcDbEntity
  8
0
 62
7
100
AcDbPolyline
 90
2
 70
0
 10
6255.957629
 20
-8831.675591
 30
0.0
 10
6961.513184
 20
-8831.675591
 30
0.0
  0
LWPOLYLINE
  5
138
100
AcDbEntity
  8
0
 62
7
100
AcDbPolyline
 90
2
 70
0
 10
3998.179851
 20
-8690.564480
 30
0.0
 10
4703.735407
 20
-8831.675591
 30
0.0
  0
LWPOLYLINE
  5
139
100
AcDbEntity
  8
0
 62
7
100
AcDbPolyline
 90
2
 70
0
 10
8654.846518
 20
-8126.120036
 30
0.0
 10
8654.846518
 20
-8408.342258
 30
0.0
  0
LWPOLYLINE
  5
13a
100
AcDbEntity
  8
0
 62
7
100
AcDbPolyline
 90
2
 70
0
 10
8937.068740
 20
-8690.564480
 30
0.0
 10
8937.068740
 20
-8831.675591
 30
0.0
  0
LWPOLYLINE
  5
13b
100
AcDbEntity
  8
0
 62
7
100
AcDbPolyline
 90
2
 70
0
 10
8654.846518
 20
-8408.342258
 30
0.0
 10
8937.068740
 20
-8690.564480
 30
0.0
  0
LWPOLYLINE
  5
13c
100
AcDbEntity
  8
0
 62
7
100
AcDbPolyline
 90
2
 70
0
 10
8937.068740
 20
-8831.675591
 30
0.0
 10
8937.068740
 20
-8831.675591
 30
0.0
  0
LWPOLYLINE
  5
13d
100
AcDbEntity
  8
0
 62
7
100
AcDbPolyline
 90
2
 70
0
 10
4421.513184
 20
-7279.453369
 30
0.0
 10
3998.179851
 20
-7279.453369
 30
0.0
  0
LWPOLYLINE
  5
13e
100
AcDbEntity
  8
0
 62
7
100
AcDbPolyline
 90
2
 70
0
 10
3998.179851
 20
-8408.342258
 30
0.0
 10
3998.179851
 20
-7279.453369
 30
0.0
  0
LWPOLYLINE
  5
13f
100
AcDbEntity
  8
0
 62
7
100
AcDbPolyline
 90
2
 70
0
 10
5268.179851
 20
-7561.675591
 30
0.0
 10
5127.068740
 20
-7561.675591
 30
0.0
  0
LWPOLYLINE
  5
140
100
AcDbEntity
  8
0
 62
7
100
AcDbPolyline
 90
2
 70
0
 10
3998.179851
 20
-8408.342258
 30
0.0
 10
3998.179851
 20
-8408.342258
 30
0.0
  0
LWPOLYLINE
  5
141
100
AcDbEntity
  8
0
 62
7
100
AcDbPolyline
 90
2
 70
0
 10
4844.846518
 20
-8408.342258
 30
0.0
 10
3998.179851
 20
-8408.342258
 30
0.0
  0
LWPOLYLINE
  5
142
100
AcDbEntity
  8
0
 62
7
100
AcDbPolyline
 90
2
 70
0
 10
4844.846518
 20
-7843.897813
 30
0.0
 10
4844.846518
 20
-8408.342258
 30
0.0
  0
LWPOLYLINE
  5
143
100
AcDbEntity
  8
0
 62
7
100
AcDbPolyline
 90
2
 70
0
 10
5127.068740
 20
-7561.675591
 30
0.0
 10
4844.846518
 20
-7843.897813
 30
0.0
  0
LWPOLYLINE
  5
144
100
AcDbEntity
  8
0
 62
7
100
AcDbPolyline
 90
2
 70
0
 10
8937.068740
 20
-7138.342258
 30
0.0
 10
8937.068740
 20
-8126.120036
 30
0.0
  0
LWPOLYLINE
  5
145
100
AcDbEntity
  8
0
 62
7
100
AcDbPolyline
 90
2
 70
0
 10
7384.846518
 20
-6432.786702
 30
0.0
 10
7808.179851
 20
-6432.786702
 30
0.0
  0
LWPOLYLINE
  5
146
100
AcDbEntity
  8
0
 62
7
100
AcDbPolyline
 90
2
 70
0
 10
4703.735407
 20
-6432.786702
 30
0.0
 10
4985.957629
 20
-6432.786702
 30
0.0
  0
LWPOLYLINE
  5
147
100
AcDbEntity
  8
0
 62
7
100
AcDbPolyline
 90
4
 70
0
 10
5268.179851
 20
-6997.231147
 30
0.0
 10
5268.179851
 20
-6715.008924
 30
0.0
 10
4985.957629
 20
-6432.786702
 30
0.0
 10
6255.957629
 20
-6432.786702
 30
0.0
  0
LWPOLYLINE
  5
148
100
AcDbEntity
  8
0
 62
7
100
AcDbPolyline
 90
3
 70
0
 10
6255.957629
 20
-7420.564480
 30
0.0
 10
6255.957629
 20
-7138.342258
 30
0.0
 10
6255.957629
 20
-6432.786702
 30
0.0
  0
LWPOLYLINE
  5
149
100
AcDbEntity
  8
0
 62
7
100
AcDbPolyline
 90
2
 70
0
 10
7102.624296
 20
-6432.786702
 30
0.0
 10
7808.179851
 20
-7138.342258
 30
0.0
  0
LWPOLYLINE
  5
14a
100
AcDbEntity
  8
0
 62
7
100
AcDbPolyline
 90
2
 70
0
 10
6255.957629
 20
-6432.786702
 30
0.0
 10
7102.624296
 20
-6432.786702
 30
0.0
  0
LWPOLYLINE
  5
14b
100
AcDbEntity
  8
0
 62
7
100
AcDbPolyline
 90
2
 70
0
 10
6961.513184
 20
-7985.008924
 30
0.0
 10
7808.179851
 20
-7138.342258
 30
0.0
  0
LWPOLYLINE
  5
14c
100
AcDbEntity
  8
0
 62
7
100
AcDbPolyline
 90
2
 70
0
 10
5268.179851
 20
-6997.231147
 30
0.0
 10
4421.513184
 20
-7843.897813
 30
0.0
  0
LWPOLYLINE
  5
14d
100
AcDbEntity
  8
0
 62
7
100
AcDbPolyline
 90
5
 70
0
 10
12699.037086
 20
-5003.749682
 30
0.0
 10
21313.418864
 20
-5003.749682
 30
0.0
 10
21313.418864
 20
-10000.494127
 30
0.0
 10
12699.037086
 20
-10000.494127
 30
0.0
 10
12699.037086
 20
-5003.749682
 30
0.0
  0
LWPOLYLINE
  5
14e
100
AcDbEntity
  8
0
 62
7
100
AcDbPolyline
 90
2
 70
0
 10
16485.838702
 20
-6476.046853
 30
0.0
 10
16653.478702
 20
-6476.046853
 30
0.0
  0
LWPOLYLINE
  5
14f
100
AcDbEntity
  8
0
 62
7
100
AcDbPolyline
 90
2
 70
0
 10
16485.838702
 20
-6193.824631
 30
0.0
 10
16653.478702
 20
-6193.824631
 30
0.0
  0
LWPOLYLINE
  5
150
100
AcDbEntity
  8
0
 62
7
100
AcDbPolyline
 90
2
 70
0
 10
16653.478702
 20
-7181.602409
 30
0.0
 10
16485.838702
 20
-7181.602409
 30
0.0
  0
LWPOLYLINE
  5
151
100
AcDbEntity
  8
0
 62
7
100
AcDbPolyline
 90
2
 70
0
 10
16653.478702
 20
-7463.824631
 30
0.0
 10
16485.838702
 20
-7463.824631
 30
0.0
  0
LWPOLYLINE
  5
152
100
AcDbEntity
  8
0
 62
7
100
AcDbPolyline
 90
2
 70
0
 10
16653.478702
 20
-7746.046853
 30
0.0
 10
16485.838702
 20
-7746.046853
 30
0.0
  0
LWPOLYLINE
  5
153
100
AcDbEntity
  8
0
 62
7
100
AcDbPolyline
 90
2
 70
0
 10
15299.658702
 20
-6559.866853
 30
0.0
 10
15299.658702
 20
-6392.226853
 30
0.0
  0
LWPOLYLINE
  5
154
100
AcDbEntity
  8
0
 62
7
100
AcDbPolyline
 90
2
 70
0
 10
15017.436479
 20
-6559.866853
 30
0.0
 10
15017.436479
 20
-6392.226853
 30
0.0
  0
LWPOLYLINE
  5
155
100
AcDbEntity
  8
0
 62
7
100
AcDbPolyline
 90
2
 70
0
 10
14735.214257
 20
-6559.866853
 30
0.0
 10
14735.214257
 20
-6392.226853
 30
0.0
  0
LWPOLYLINE
  5
156
100
AcDbEntity
  8
0
 62
7
100
AcDbPolyline
 90
2
 70
0
 10
18686.325368
 20
-8085.560187
 30
0.0
 10
18686.325368
 20
-8253.200187
 30
0.0
  0
LWPOLYLINE
  5
157
100
AcDbEntity
  8
0
 62
7
100
AcDbPolyline
 90
2
 70
0
 10
18968.547590
 20
-8085.560187
 30
0.0
 10
18968.547590
 20
-8253.200187
 30
0.0
  0
LWPOLYLINE
  5
158
100
AcDbEntity
  8
0
 62
7
100
AcDbPolyline
 90
2
 70
0
 10
19250.769813
 20
-8085.560187
 30
0.0
 10
19250.769813
 20
-8253.200187
 30
0.0
  0
LWPOLYLINE
  5
159
100
AcDbEntity
  8
0
 62
7
100
AcDbPolyline
 90
5
 70
0
 10
22586.381322
 20
-5003.749682
 30
0.0
 10
31200.763100
 20
-5003.749682
 30
0.0
 10
31200.763100
 20
-10000.494127
 30
0.0
 10
22586.381322
 20
-10000.494127
 30
0.0
 10
22586.381322
 20
-5003.749682
 30
0.0
  0
LWPOLYLINE
  5
15a
100
AcDbEntity
  8
0
 62
7
100
AcDbPolyline
 90
2
 70
0
 10
24199.225160
 20
-7322.713520
 30
0.0
 10
24199.225160
 20
-7040.491298
 30
0.0
  0
LWPOLYLINE
  5
15b
100
AcDbEntity
  8
0
 62
7
100
AcDbPolyline
 90
4
 70
0
 10
24904.780716
 20
-8028.269076
 30
0.0
 10
24904.780716
 20
-7887.157964
 30
0.0
 10
25187.002938
 20
-7887.157964
 30
0.0
 10
25187.002938
 20
-8028.269076
 30
0.0
  0
LWPOLYLINE
  5
15c
100
AcDbEntity
  8
0
 62
7
100
AcDbPolyline
 90
5
 70
0
 10
24763.669604
 20
-8028.269076
 30
0.0
 10
24763.669604
 20
-6899.380187
 30
0.0
 10
25328.114049
 20
-6899.380187
 30
0.0
 10
25328.114049
 20
-8028.269076
 30
0.0
 10
24763.669604
 20
-8028.269076
 30
0.0
  0
LWPOLYLINE
  5
15d
100
AcDbEntity
  8
0
 62
7
100
AcDbPolyline
 90
4
 70
0
 10
27444.780716
 20
-8169.380187
 30
0.0
 10
27444.780716
 20
-8028.269076
 30
0.0
 10
27727.002938
 20
-8028.269076
 30
0.0
 10
27727.002938
 20
-8169.380187
 30
0.0
  0
LWPOLYLINE
  5
15e
100
AcDbEntity
  8
0
 62
7
100
AcDbPolyline
 90
5
 70
0
 10
27303.669604
 20
-8169.380187
 30
0.0
 10
27303.669604
 20
-7040.491298
 30
0.0
 10
27868.114049
 20
-7040.491298
 30
0.0
 10
27868.114049
 20
-8169.380187
 30
0.0
 10
27303.669604
 20
-8169.380187
 30
0.0
  0
SPLINE
  5
15f
100
AcDbEntity
  8
0
 62
7
100
AcDbSpline
 70
8
 71
3
 72
8
 73
4
 74
0
 40
0
 40
0
 40
0
 40
0
 40
1
 40
1
 40
1
 40
1
 10
28048.454049
 20
-6367.645298
 30
0.0
 10
28023.101763
 20
-6398.078871
 30
0.0
 10
28009.220536
 20
-6436.436997
 30
0.0
 10
28009.225160
 20
-6476.046853
 30
0.0
  0
SPLINE
  5
160
100
AcDbEntity
  8
0
 62
7
100
AcDbSpline
 70
8
 71
3
 72
8
 73
4
 74
0
 40
0
 40
0
 40
0
 40
0
 40
1
 40
1
 40
1
 40
1
 10
28009.422716
 20
-6476.046853
 30
0.0
 10
28009.425247
 20
-6517.439621
 30
0.0
 10
28024.607800
 20
-6557.394236
 30
0.0
 10
28052.094716
 20
-6588.343076
 30
0.0
  0
SPLINE
  5
161
100
AcDbEntity
  8
0
 62
7
100
AcDbSpline
 70
8
 71
3
 72
8
 73
4
 74
0
 40
0
 40
0
 40
0
 40
0
 40
1
 40
1
 40
1
 40
1
 10
28347.694271
 20
-6476.046853
 30
0.0
 10
28347.691954
 20
-6435.673166
 30
0.0
 10
28333.246786
 20
-6396.632174
 30
0.0
 10
28306.969604
 20
-6365.980187
 30
0.0
  0
SPLINE
  5
162
100
AcDbEntity
  8
0
 62
7
100
AcDbSpline
 70
8
 71
3
 72
8
 73
4
 74
0
 40
0
 40
0
 40
0
 40
0
 40
1
 40
1
 40
1
 40
1
 10
28308.662938
 20
-6584.448409
 30
0.0
 10
28334.015223
 20
-6554.014836
 30
0.0
 10
28347.896451
 20
-6515.656710
 30
0.0
 10
28347.891827
 20
-6476.046853
 30
0.0
  0
SPLINE
  5
163
100
AcDbEntity
  8
0
 62
7
100
AcDbSpline
 70
8
 71
3
 72
8
 73
4
 74
0
 40
0
 40
0
 40
0
 40
0
 40
1
 40
1
 40
1
 40
1
 10
28316.254716
 20
-6377.466631
 30
0.0
 10
28284.454450
 20
-6333.053533
 30
0.0
 10
28233.182482
 20
-6306.708211
 30
0.0
 10
28178.558493
 20
-6306.713520
 30
0.0
  0
SPLINE
  5
164
100
AcDbEntity
  8
0
 62
7
100
AcDbSpline
 70
8
 71
3
 72
8
 73
4
 74
0
 40
0
 40
0
 40
0
 40
0
 40
1
 40
1
 40
1
 40
1
 10
28178.558493
 20
-6306.713520
 30
0.0
 10
28125.294344
 20
-6306.711288
 30
0.0
 10
28075.133393
 20
-6331.770854
 30
0.0
 10
28043.148271
 20
-6374.362187
 30
0.0
  0
SPLINE
  5
165
100
AcDbEntity
  8
0
 62
7
100
AcDbSpline
 70
8
 71
3
 72
8
 73
4
 74
0
 40
0
 40
0
 40
0
 40
0
 40
1
 40
1
 40
1
 40
1
 10
28178.558493
 20
-6645.182631
 30
0.0
 10
28230.728483
 20
-6645.180266
 30
0.0
 10
28279.977911
 20
-6621.102305
 30
0.0
 10
28312.021382
 20
-6579.932853
 30
0.0
  0
SPLINE
  5
166
100
AcDbEntity
  8
0
 62
7
100
AcDbSpline
 70
8
 71
3
 72
8
 73
4
 74
0
 40
0
 40
0
 40
0
 40
0
 40
1
 40
1
 40
1
 40
1
 10
28044.926271
 20
-6580.073964
 30
0.0
 10
28077.014249
 20
-6621.287601
 30
0.0
 10
28126.326299
 20
-6645.386457
 30
0.0
 10
28178.558493
 20
-6645.380187
 30
0.0
  0
SPLINE
  5
167
100
AcDbEntity
  8
0
 62
7
100
AcDbSpline
 70
8
 71
3
 72
8
 73
4
 74
0
 40
0
 40
0
 40
0
 40
0
 40
1
 40
1
 40
1
 40
1
 10
28178.558493
 20
-6405.491298
 30
0.0
 10
28159.845997
 20
-6405.491298
 30
0.0
 10
28141.899915
 20
-6412.924808
 30
0.0
 10
28128.668182
 20
-6426.156542
 30
0.0
  0
SPLINE
  5
168
100
AcDbEntity
  8
0
 62
7
100
AcDbSpline
 70
8
 71
3
 72
8
 73
4
 74
0
 40
0
 40
0
 40
0
 40
0
 40
1
 40
1
 40
1
 40
1
 10
28128.668182
 20
-6426.156542
 30
0.0
 10
28115.436448
 20
-6439.388275
 30
0.0
 10
28108.002938
 20
-6457.334357
 30
0.0
 10
28108.002938
 20
-6476.046853
 30
0.0
  0
SPLINE
  5
169
100
AcDbEntity
  8
0
 62
7
100
AcDbSpline
 70
8
 71
3
 72
8
 73
4
 74
0
 40
0
 40
0
 40
0
 40
0
 40
1
 40
1
 40
1
 40
1
 10
28178.558493
 20
-6363.157964
 30
0.0
 10
28148.618498
 20
-6363.157964
 30
0.0
 10
28119.904768
 20
-6375.051581
 30
0.0
 10
28098.733994
 20
-6396.222354
 30
0.0
  0
SPLINE
  5
16a
100
AcDbEntity
  8
0
 62
7
100
AcDbSpline
 70
8
 71
3
 72
8
 73
4
 74
0
 40
0
 40
0
 40
0
 40
0
 40
1
 40
1
 40
1
 40
1
 10
28098.733994
 20
-6396.222354
 30
0.0
 10
28077.563221
 20
-6417.393128
 30
0.0
 10
28065.669604
 20
-6446.106858
 30
0.0
 10
28065.669604
 20
-6476.046853
 30
0.0
  0
SPLINE
  5
16b
100
AcDbEntity
  8
0
 62
7
100
AcDbSpline
 70
8
 71
3
 72
8
 73
4
 74
0
 40
0
 40
0
 40
0
 40
0
 40
1
 40
1
 40
1
 40
1
 10
28178.558493
 20
-6546.602409
 30
0.0
 10
28197.270990
 20
-6546.602409
 30
0.0
 10
28215.217072
 20
-6539.168898
 30
0.0
 10
28228.448805
 20
-6525.937165
 30
0.0
  0
SPLINE
  5
16c
100
AcDbEntity
  8
0
 62
7
100
AcDbSpline
 70
8
 71
3
 72
8
 73
4
 74
0
 40
0
 40
0
 40
0
 40
0
 40
1
 40
1
 40
1
 40
1
 10
28228.448805
 20
-6525.937165
 30
0.0
 10
28241.680538
 20
-6512.705432
 30
0.0
 10
28249.114049
 20
-6494.759350
 30
0.0
 10
28249.114049
 20
-6476.046853
 30
0.0
  0
SPLINE
  5
16d
100
AcDbEntity
  8
0
 62
7
100
AcDbSpline
 70
8
 71
3
 72
8
 73
4
 74
0
 40
0
 40
0
 40
0
 40
0
 40
1
 40
1
 40
1
 40
1
 10
28178.558493
 20
-6588.935742
 30
0.0
 10
28208.498488
 20
-6588.935742
 30
0.0
 10
28237.212219
 20
-6577.042126
 30
0.0
 10
28258.382992
 20
-6555.871352
 30
0.0
  0
SPLINE
  5
16e
100
AcDbEntity
  8
0
 62
7
100
AcDbSpline
 70
8
 71
3
 72
8
 73
4
 74
0
 40
0
 40
0
 40
0
 40
0
 40
1
 40
1
 40
1
 40
1
 10
28258.382992
 20
-6555.871352
 30
0.0
 10
28279.553766
 20
-6534.700579
 30
0.0
 10
28291.447382
 20
-6505.986848
 30
0.0
 10
28291.447382
 20
-6476.046853
 30
0.0
  0
SPLINE
  5
16f
100
AcDbEntity
  8
0
 62
7
100
AcDbSpline
 70
8
 71
3
 72
8
 73
4
 74
0
 40
0
 40
0
 40
0
 40
0
 40
1
 40
1
 40
1
 40
1
 10
28351.758271
 20
-6331.210409
 30
0.0
 10
28308.860463
 20
-6279.912051
 30
0.0
 10
28245.429589
 20
-6250.268944
 30
0.0
 10
28178.558493
 20
-6250.269076
 30
0.0
  0
SPLINE
  5
170
100
AcDbEntity
  8
0
 62
7
100
AcDbSpline
 70
8
 71
3
 72
8
 73
4
 74
0
 40
0
 40
0
 40
0
 40
0
 40
1
 40
1
 40
1
 40
1
 10
28178.558493
 20
-6250.551298
 30
0.0
 10
28095.318774
 20
-6250.555456
 30
0.0
 10
28018.851157
 20
-6296.416497
 30
0.0
 10
27979.648271
 20
-6369.846631
 30
0.0
  0
SPLINE
  5
171
100
AcDbEntity
  8
0
 62
7
100
AcDbSpline
 70
8
 71
3
 72
8
 73
4
 74
0
 40
0
 40
0
 40
0
 40
0
 40
1
 40
1
 40
1
 40
1
 10
28178.953604
 20
-6701.542409
 30
0.0
 10
28245.198960
 20
-6701.428111
 30
0.0
 10
28308.042716
 20
-6672.189096
 30
0.0
 10
28350.798716
 20
-6621.588853
 30
0.0
  0
SPLINE
  5
172
100
AcDbEntity
  8
0
 62
7
100
AcDbSpline
 70
8
 71
3
 72
8
 73
4
 74
0
 40
0
 40
0
 40
0
 40
0
 40
1
 40
1
 40
1
 40
1
 10
27982.639827
 20
-6588.258409
 30
0.0
 10
28022.867900
 20
-6658.495697
 30
0.0
 10
28097.616696
 20
-6701.824587
 30
0.0
 10
28178.558493
 20
-6701.824631
 30
0.0
  0
SPLINE
  5
173
100
AcDbEntity
  8
0
 62
7
100
AcDbSpline
 70
8
 71
3
 72
8
 73
4
 74
0
 40
0
 40
0
 40
0
 40
0
 40
1
 40
1
 40
1
 40
1
 10
27979.761160
 20
-6368.999964
 30
0.0
 10
27962.048360
 20
-6401.899968
 30
0.0
 10
27952.777769
 20
-6438.681716
 30
0.0
 10
27952.780716
 20
-6476.046853
 30
0.0
  0
SPLINE
  5
174
100
AcDbEntity
  8
0
 62
7
100
AcDbSpline
 70
8
 71
3
 72
8
 73
4
 74
0
 40
0
 40
0
 40
0
 40
0
 40
1
 40
1
 40
1
 40
1
 10
27952.893604
 20
-6476.046853
 30
0.0
 10
27952.895628
 20
-6517.801467
 30
0.0
 10
27964.482561
 20
-6558.736755
 30
0.0
 10
27986.365160
 20
-6594.297964
 30
0.0
  0
LWPOLYLINE
  5
175
100
AcDbEntity
  8
0
 62
7
100
AcDbPolyline
 90
2
 70
0
 10
28353.536271
 20
-6617.157964
 30
0.0
 10
28353.536271
 20
-6334.935742
 30
0.0
  0
LWPOLYLINE
  5
176
100
AcDbEntity
  8
0
 62
7
100
AcDbPolyline
 90
5
 70
0
 10
29279.225160
 20
-8733.824631
 30
0.0
 10
29279.225160
 20
-9016.046853
 30
0.0
 10
28432.558493
 20
-9016.046853
 30
0.0
 10
28432.558493
 20
-8733.824631
 30
0.0
 10
29279.225160
 20
-8733.824631
 30
0.0
  0
LWPOLYLINE
  5
177
100
AcDbEntity
  8
0
 62
7
100
AcDbPolyline
 90
2
 70
0
 10
28997.002938
 20
-9016.046853
 30
0.0
 10
28997.002938
 20
-8733.824631
 30
0.0
  0
LWPOLYLINE
  5
178
100
AcDbEntity
  8
0
 62
7
100
AcDbPolyline
 90
5
 70
0
 10
24763.669604
 20
-9016.046853
 30
0.0
 10
24763.669604
 20
-8733.824631
 30
0.0
 10
25610.336271
 20
-8733.824631
 30
0.0
 10
25610.336271
 20
-9016.046853
 30
0.0
 10
24763.669604
 20
-9016.046853
 30
0.0
  0
LWPOLYLINE
  5
179
100
AcDbEntity
  8
0
 62
7
100
AcDbPolyline
 90
2
 70
0
 10
25045.891827
 20
-8733.824631
 30
0.0
 10
25045.891827
 20
-9016.046853
 30
0.0
  0
LWPOLYLINE
  5
17a
100
AcDbEntity
  8
0
 62
7
100
AcDbPolyline
 90
5
 70
0
 10
24340.336271
 20
-8316.135742
 30
0.0
 10
24340.336271
 20
-8874.935742
 30
0.0
 10
24058.114049
 20
-8874.935742
 30
0.0
 10
24058.114049
 20
-8310.491298
 30
0.0
 10
24340.336271
 20
-8310.491298
 30
0.0
  0
LWPOLYLINE
  5
17b
100
AcDbEntity
  8
0
 62
7
100
AcDbPolyline
 90
2
 70
0
 10
24269.780716
 20
-8310.491298
 30
0.0
 10
24340.336271
 20
-8381.046853
 30
0.0
  0
LWPOLYLINE
  5
17c
100
AcDbEntity
  8
0
 62
7
100
AcDbPolyline
 90
5
 70
0
 10
26569.891827
 20
-8197.602409
 30
0.0
 10
26569.891827
 20
-8987.824631
 30
0.0
 10
26344.114049
 20
-8987.824631
 30
0.0
 10
26344.114049
 20
-8197.602409
 30
0.0
 10
26569.891827
 20
-8197.602409
 30
0.0
  0
LWPOLYLINE
  5
17d
100
AcDbEntity
  8
0
 62
7
100
AcDbPolyline
 90
2
 70
0
 10
26513.447382
 20
-8197.602409
 30
0.0
 10
26569.891827
 20
-8254.046853
 30
0.0
  0
LWPOLYLINE
  5
17e
100
AcDbEntity
  8
0
 62
7
100
AcDbPolyline
 90
2
 70
0
 10
27303.669604
 20
-6476.046853
 30
0.0
 10
27585.891827
 20
-6476.046853
 30
0.0
  0
LWPOLYLINE
  5
17f
100
AcDbEntity
  8
0
 62
7
100
AcDbPolyline
 90
2
 70
0
 10
26315.891827
 20
-6052.713520
 30
0.0
 10
26315.891827
 20
-6617.157964
 30
0.0
  0
LWPOLYLINE
  5
180
100
AcDbEntity
  8
0
 62
7
100
AcDbPolyline
 90
2
 70
0
 10
26809.780716
 20
-6052.713520
 30
0.0
 10
26809.780716
 20
-6617.157964
 30
0.0
  0
LWPOLYLINE
  5
181
100
AcDbEntity
  8
0
 62
7
100
AcDbPolyline
 90
2
 70
0
 10
26104.225160
 20
-6617.157964
 30
0.0
 10
26104.225160
 20
-6052.713520
 30
0.0
  0
LWPOLYLINE
  5
182
100
AcDbEntity
  8
0
 62
7
100
AcDbPolyline
 90
2
 70
0
 10
26104.225160
 20
-6617.157964
 30
0.0
 10
26809.780716
 20
-6617.157964
 30
0.0
  0
LWPOLYLINE
  5
183
100
AcDbEntity
  8
0
 62
7
100
AcDbPolyline
 90
2
 70
0
 10
26104.225160
 20
-6052.713520
 30
0.0
 10
26809.780716
 20
-6052.713520
 30
0.0
  0
LWPOLYLINE
  5
184
100
AcDbEntity
  8
0
 62
7
100
AcDbPolyline
 90
5
 70
0
 10
29702.558493
 20
-6052.713520
 30
0.0
 10
29702.558493
 20
-6334.935742
 30
0.0
 10
29138.114049
 20
-6334.935742
 30
0.0
 10
29138.114049
 20
-6052.713520
 30
0.0
 10
29702.558493
 20
-6052.713520
 30
0.0
  0
LWPOLYLINE
  5
185
100
AcDbEntity
  8
0
 62
7
100
AcDbPolyline
 90
5
 70
0
 10
27021.447382
 20
-9016.046853
 30
0.0
 10
27021.447382
 20
-8733.824631
 30
0.0
 10
27868.114049
 20
-8733.824631
 30
0.0
 10
27868.114049
 20
-9016.046853
 30
0.0
 10
27021.447382
 20
-9016.046853
 30
0.0
  0
LWPOLYLINE
  5
186
100
AcDbEntity
  8
0
 62
7
100
AcDbPolyline
 90
2
 70
0
 10
27303.669604
 20
-8733.824631
 30
0.0
 10
27303.669604
 20
-9016.046853
 30
0.0
  0
LWPOLYLINE
  5
187
100
AcDbEntity
  8
0
 62
7
100
AcDbPolyline
 90
2
 70
0
 10
26809.780716
 20
-7040.491298
 30
0.0
 10
26104.225160
 20
-7040.491298
 30
0.0
  0
LWPOLYLINE
  5
188
100
AcDbEntity
  8
0
 62
7
100
AcDbPolyline
 90
2
 70
0
 10
26809.780716
 20
-7887.157964
 30
0.0
 10
26104.225160
 20
-7887.157964
 30
0.0
  0
LWPOLYLINE
  5
189
100
AcDbEntity
  8
0
 62
7
100
AcDbPolyline
 90
2
 70
0
 10
26598.114049
 20
-7887.157964
 30
0.0
 10
26598.114049
 20
-7040.491298
 30
0.0
  0
LWPOLYLINE
  5
18a
100
AcDbEntity
  8
0
 62
7
100
AcDbPolyline
 90
2
 70
0
 10
26809.780716
 20
-7040.491298
 30
0.0
 10
26809.780716
 20
-7887.157964
 30
0.0
  0
LWPOLYLINE
  5
18b
100
AcDbEntity
  8
0
 62
7
100
AcDbPolyline
 90
2
 70
0
 10
26104.225160
 20
-7887.157964
 30
0.0
 10
26104.225160
 20
-7040.491298
 30
0.0
  0
LWPOLYLINE
  5
18c
100
AcDbEntity
  8
0
 62
7
100
AcDbPolyline
 90
2
 70
0
 10
25328.114049
 20
-6828.824631
 30
0.0
 10
25328.114049
 20
-6123.269076
 30
0.0
  0
LWPOLYLINE
  5
18d
100
AcDbEntity
  8
0
 62
7
100
AcDbPolyline
 90
2
 70
0
 10
24481.447382
 20
-6828.824631
 30
0.0
 10
24481.447382
 20
-6123.269076
 30
0.0
  0
LWPOLYLINE
  5
18e
100
AcDbEntity
  8
0
 62
7
100
AcDbPolyline
 90
2
 70
0
 10
24481.447382
 20
-6617.157964
 30
0.0
 10
25328.114049
 20
-6617.157964
 30
0.0
  0
LWPOLYLINE
  5
18f
100
AcDbEntity
  8
0
 62
7
100
AcDbPolyline
 90
2
 70
0
 10
25328.114049
 20
-6828.824631
 30
0.0
 10
24481.447382
 20
-6828.824631
 30
0.0
  0
LWPOLYLINE
  5
190
100
AcDbEntity
  8
0
 62
7
100
AcDbPolyline
 90
2
 70
0
 10
24481.447382
 20
-6123.269076
 30
0.0
 10
25328.114049
 20
-6123.269076
 30
0.0
  0
LWPOLYLINE
  5
191
100
AcDbEntity
  8
0
 62
7
100
AcDbPolyline
 90
2
 70
0
 10
28432.558493
 20
-7816.602409
 30
0.0
 10
28432.558493
 20
-8522.157964
 30
0.0
  0
LWPOLYLINE
  5
192
100
AcDbEntity
  8
0
 62
7
100
AcDbPolyline
 90
2
 70
0
 10
29279.225160
 20
-7816.602409
 30
0.0
 10
29279.225160
 20
-8522.157964
 30
0.0
  0
LWPOLYLINE
  5
193
100
AcDbEntity
  8
0
 62
7
100
AcDbPolyline
 90
2
 70
0
 10
29279.225160
 20
-8028.269076
 30
0.0
 10
28432.558493
 20
-8028.269076
 30
0.0
  0
LWPOLYLINE
  5
194
100
AcDbEntity
  8
0
 62
7
100
AcDbPolyline
 90
2
 70
0
 10
28432.558493
 20
-7816.602409
 30
0.0
 10
29279.225160
 20
-7816.602409
 30
0.0
  0
LWPOLYLINE
  5
195
100
AcDbEntity
  8
0
 62
7
100
AcDbPolyline
 90
2
 70
0
 10
29279.225160
 20
-8522.157964
 30
0.0
 10
28432.558493
 20
-8522.157964
 30
0.0
  0
LWPOLYLINE
  5
196
100
AcDbEntity
  8
0
 62
7
100
AcDbPolyline
 90
2
 70
0
 10
26373.182938
 20
-6551.117964
 30
0.0
 10
26540.822938
 20
-6551.117964
 30
0.0
  0
SPLINE
  5
197
100
AcDbEntity
  8
0
 62
7
100
AcDbSpline
 70
8
 71
3
 72
8
 73
4
 74
0
 40
0
 40
0
 40
0
 40
0
 40
1
 40
1
 40
1
 40
1
 10
26540.822938
 20
-6551.400187
 30
0.0
 10
26567.744091
 20
-6551.400187
 30
0.0
 10
26592.620262
 20
-6537.037922
 30
0.0
 10
26606.080839
 20
-6513.723520
 30
0.0
  0
SPLINE
  5
198
100
AcDbEntity
  8
0
 62
7
100
AcDbSpline
 70
8
 71
3
 72
8
 73
4
 74
0
 40
0
 40
0
 40
0
 40
0
 40
1
 40
1
 40
1
 40
1
 10
26606.080839
 20
-6513.723520
 30
0.0
 10
26619.541415
 20
-6490.409118
 30
0.0
 10
26619.541415
 20
-6461.684589
 30
0.0
 10
26606.080839
 20
-6438.370187
 30
0.0
  0
SPLINE
  5
199
100
AcDbEntity
  8
0
 62
7
100
AcDbSpline
 70
8
 71
3
 72
8
 73
4
 74
0
 40
0
 40
0
 40
0
 40
0
 40
1
 40
1
 40
1
 40
1
 10
26606.080839
 20
-6438.370187
 30
0.0
 10
26592.620262
 20
-6415.055784
 30
0.0
 10
26567.744091
 20
-6400.693520
 30
0.0
 10
26540.822938
 20
-6400.693520
 30
0.0
  0
SPLINE
  5
19a
100
AcDbEntity
  8
0
 62
7
100
AcDbSpline
 70
8
 71
3
 72
8
 73
4
 74
0
 40
0
 40
0
 40
0
 40
0
 40
1
 40
1
 40
1
 40
1
 10
26373.182938
 20
-6400.693520
 30
0.0
 10
26346.261785
 20
-6400.693520
 30
0.0
 10
26321.385613
 20
-6415.055784
 30
0.0
 10
26307.925037
 20
-6438.370187
 30
0.0
  0
SPLINE
  5
19b
100
AcDbEntity
  8
0
 62
7
100
AcDbSpline
 70
8
 71
3
 72
8
 73
4
 74
0
 40
0
 40
0
 40
0
 40
0
 40
1
 40
1
 40
1
 40
1
 10
26307.925037
 20
-6438.370187
 30
0.0
 10
26294.464460
 20
-6461.684589
 30
0.0
 10
26294.464460
 20
-6490.409118
 30
0.0
 10
26307.925037
 20
-6513.723520
 30
0.0
  0
SPLINE
  5
19c
100
AcDbEntity
  8
0
 62
7
100
AcDbSpline
 70
8
 71
3
 72
8
 73
4
 74
0
 40
0
 40
0
 40
0
 40
0
 40
1
 40
1
 40
1
 40
1
 10
26307.925037
 20
-6513.723520
 30
0.0
 10
26321.385613
 20
-6537.037922
 30
0.0
 10
26346.261785
 20
-6551.400187
 30
0.0
 10
26373.182938
 20
-6551.400187
 30
0.0
  0
LWPOLYLINE
  5
19d
100
AcDbEntity
  8
0
 62
7
100
AcDbPolyline
 90
2
 70
0
 10
26373.182938
 20
-6400.693520
 30
0.0
 10
26540.822938
 20
-6400.693520
 30
0.0
  0
LWPOLYLINE
  5
19e
100
AcDbEntity
  8
0
 62
7
100
AcDbPolyline
 90
2
 70
0
 10
26373.182938
 20
-6268.895742
 30
0.0
 10
26540.822938
 20
-6268.895742
 30
0.0
  0
SPLINE
  5
19f
100
AcDbEntity
  8
0
 62
7
100
AcDbSpline
 70
8
 71
3
 72
8
 73
4
 74
0
 40
0
 40
0
 40
0
 40
0
 40
1
 40
1
 40
1
 40
1
 10
26540.822938
 20
-6269.177964
 30
0.0
 10
26567.744091
 20
-6269.177964
 30
0.0
 10
26592.620262
 20
-6254.815700
 30
0.0
 10
26606.080839
 20
-6231.501298
 30
0.0
  0
SPLINE
  5
1a0
100
AcDbEntity
  8
0
 62
7
100
AcDbSpline
 70
8
 71
3
 72
8
 73
4
 74
0
 40
0
 40
0
 40
0
 40
0
 40
1
 40
1
 40
1
 40
1
 10
26606.080839
 20
-6231.501298
 30
0.0
 10
26619.541415
 20
-6208.186895
 30
0.0
 10
26619.541415
 20
-6179.462367
 30
0.0
 10
26606.080839
 20
-6156.147964
 30
0.0
  0
SPLINE
  5
1a1
100
AcDbEntity
  8
0
 62
7
100
AcDbSpline
 70
8
 71
3
 72
8
 73
4
 74
0
 40
0
 40
0
 40
0
 40
0
 40
1
 40
1
 40
1
 40
1
 10
26606.080839
 20
-6156.147964
 30
0.0
 10
26592.620262
 20
-6132.833562
 30
0.0
 10
26567.744091
 20
-6118.471298
 30
0.0
 10
26540.822938
 20
-6118.471298
 30
0.0
  0
SPLINE
  5
1a2
100
AcDbEntity
  8
0
 62
7
100
AcDbSpline
 70
8
 71
3
 72
8
 73
4
 74
0
 40
0
 40
0
 40
0
 40
0
 40
1
 40
1
 40
1
 40
1
 10
26373.182938
 20
-6118.471298
 30
0.0
 10
26346.261785
 20
-6118.471298
 30
0.0
 10
26321.385613
 20
-6132.833562
 30
0.0
 10
26307.925037
 20
-6156.147964
 30
0.0
  0
SPLINE
  5
1a3
100
AcDbEntity
  8
0
 62
7
100
AcDbSpline
 70
8
 71
3
 72
8
 73
4
 74
0
 40
0
 40
0
 40
0
 40
0
 40
1
 40
1
 40
1
 40
1
 10
26307.925037
 20
-6156.147964
 30
0.0
 10
26294.464460
 20
-6179.462367
 30
0.0
 10
26294.464460
 20
-6208.186895
 30
0.0
 10
26307.925037
 20
-6231.501298
 30
0.0
  0
SPLINE
  5
1a4
100
AcDbEntity
  8
0
 62
7
100
AcDbSpline
 70
8
 71
3
 72
8
 73
4
 74
0
 40
0
 40
0
 40
0
 40
0
 40
1
 40
1
 40
1
 40
1
 10
26307.925037
 20
-6231.501298
 30
0.0
 10
26321.385613
 20
-6254.815700
 30
0.0
 10
26346.261785
 20
-6269.177964
 30
0.0
 10
26373.182938
 20
-6269.177964
 30
0.0
  0
LWPOLYLINE
  5
1a5
100
AcDbEntity
  8
0
 62
7
100
AcDbPolyline
 90
2
 70
0
 10
26373.182938
 20
-6118.471298
 30
0.0
 10
26540.822938
 20
-6118.471298
 30
0.0
  0
LWPOLYLINE
  5
1a6
100
AcDbEntity
  8
0
 62
7
100
AcDbPolyline
 90
2
 70
0
 10
26540.822938
 20
-7106.249076
 30
0.0
 10
26373.182938
 20
-7106.249076
 30
0.0
  0
SPLINE
  5
1a7
100
AcDbEntity
  8
0
 62
7
100
AcDbSpline
 70
8
 71
3
 72
8
 73
4
 74
0
 40
0
 40
0
 40
0
 40
0
 40
1
 40
1
 40
1
 40
1
 10
26373.182938
 20
-7106.249076
 30
0.0
 10
26346.261785
 20
-7106.249076
 30
0.0
 10
26321.385613
 20
-7120.611340
 30
0.0
 10
26307.925037
 20
-7143.925742
 30
0.0
  0
SPLINE
  5
1a8
100
AcDbEntity
  8
0
 62
7
100
AcDbSpline
 70
8
 71
3
 72
8
 73
4
 74
0
 40
0
 40
0
 40
0
 40
0
 40
1
 40
1
 40
1
 40
1
 10
26307.925037
 20
-7143.925742
 30
0.0
 10
26294.464460
 20
-7167.240145
 30
0.0
 10
26294.464460
 20
-7195.964673
 30
0.0
 10
26307.925037
 20
-7219.279076
 30
0.0
  0
SPLINE
  5
1a9
100
AcDbEntity
  8
0
 62
7
100
AcDbSpline
 70
8
 71
3
 72
8
 73
4
 74
0
 40
0
 40
0
 40
0
 40
0
 40
1
 40
1
 40
1
 40
1
 10
26307.925037
 20
-7219.279076
 30
0.0
 10
26321.385613
 20
-7242.593478
 30
0.0
 10
26346.261785
 20
-7256.955742
 30
0.0
 10
26373.182938
 20
-7256.955742
 30
0.0
  0
SPLINE
  5
1aa
100
AcDbEntity
  8
0
 62
7
100
AcDbSpline
 70
8
 71
3
 72
8
 73
4
 74
0
 40
0
 40
0
 40
0
 40
0
 40
1
 40
1
 40
1
 40
1
 10
26540.822938
 20
-7256.955742
 30
0.0
 10
26567.744091
 20
-7256.955742
 30
0.0
 10
26592.620262
 20
-7242.593478
 30
0.0
 10
26606.080839
 20
-7219.279076
 30
0.0
  0
SPLINE
  5
1ab
100
AcDbEntity
  8
0
 62
7
100
AcDbSpline
 70
8
 71
3
 72
8
 73
4
 74
0
 40
0
 40
0
 40
0
 40
0
 40
1
 40
1
 40
1
 40
1
 10
26606.080839
 20
-7219.279076
 30
0.0
 10
26619.541415
 20
-7195.964673
 30
0.0
 10
26619.541415
 20
-7167.240145
 30
0.0
 10
26606.080839
 20
-7143.925742
 30
0.0
  0
SPLINE
  5
1ac
100
AcDbEntity
  8
0
 62
7
100
AcDbSpline
 70
8
 71
3
 72
8
 73
4
 74
0
 40
0
 40
0
 40
0
 40
0
 40
1
 40
1
 40
1
 40
1
 10
26606.080839
 20
-7143.925742
 30
0.0
 10
26592.620262
 20
-7120.611340
 30
0.0
 10
26567.744091
 20
-7106.249076
 30
0.0
 10
26540.822938
 20
-7106.249076
 30
0.0
  0
LWPOLYLINE
  5
1ad
100
AcDbEntity
  8
0
 62
7
100
AcDbPolyline
 90
2
 70
0
 10
26540.822938
 20
-7256.673520
 30
0.0
 10
26373.182938
 20
-7256.673520
 30
0.0
  0
LWPOLYLINE
  5
1ae
100
AcDbEntity
  8
0
 62
7
100
AcDbPolyline
 90
2
 70
0
 10
26540.822938
 20
-7388.471298
 30
0.0
 10
26373.182938
 20
-7388.471298
 30
0.0
  0
SPLINE
  5
1af
100
AcDbEntity
  8
0
 62
7
100
AcDbSpline
 70
8
 71
3
 72
8
 73
4
 74
0
 40
0
 40
0
 40
0
 40
0
 40
1
 40
1
 40
1
 40
1
 10
26373.182938
 20
-7388.471298
 30
0.0
 10
26346.261785
 20
-7388.471298
 30
0.0
 10
26321.385613
 20
-7402.833562
 30
0.0
 10
26307.925037
 20
-7426.147964
 30
0.0
  0
SPLINE
  5
1b0
100
AcDbEntity
  8
0
 62
7
100
AcDbSpline
 70
8
 71
3
 72
8
 73
4
 74
0
 40
0
 40
0
 40
0
 40
0
 40
1
 40
1
 40
1
 40
1
 10
26307.925037
 20
-7426.147964
 30
0.0
 10
26294.464460
 20
-7449.462367
 30
0.0
 10
26294.464460
 20
-7478.186895
 30
0.0
 10
26307.925037
 20
-7501.501298
 30
0.0
  0
SPLINE
  5
1b1
100
AcDbEntity
  8
0
 62
7
100
AcDbSpline
 70
8
 71
3
 72
8
 73
4
 74
0
 40
0
 40
0
 40
0
 40
0
 40
1
 40
1
 40
1
 40
1
 10
26307.925037
 20
-7501.501298
 30
0.0
 10
26321.385613
 20
-7524.815700
 30
0.0
 10
26346.261785
 20
-7539.177964
 30
0.0
 10
26373.182938
 20
-7539.177964
 30
0.0
  0
SPLINE
  5
1b2
100
AcDbEntity
  8
0
 62
7
100
AcDbSpline
 70
8
 71
3
 72
8
 73
4
 74
0
 40
0
 40
0
 40
0
 40
0
 40
1
 40
1
 40
1
 40
1
 10
26540.822938
 20
-7539.177964
 30
0.0
 10
26567.744091
 20
-7539.177964
 30
0.0
 10
26592.620262
 20
-7524.815700
 30
0.0
 10
26606.080839
 20
-7501.501298
 30
0.0
  0
SPLINE
  5
1b3
100
AcDbEntity
  8
0
 62
7
100
AcDbSpline
 70
8
 71
3
 72
8
 73
4
 74
0
 40
0
 40
0
 40
0
 40
0
 40
1
 40
1
 40
1
 40
1
 10
26606.080839
 20
-7501.501298
 30
0.0
 10
26619.541415
 20
-7478.186895
 30
0.0
 10
26619.541415
 20
-7449.462367
 30
0.0
 10
26606.080839
 20
-7426.147964
 30
0.0
  0
SPLINE
  5
1b4
100
AcDbEntity
  8
0
 62
7
100
AcDbSpline
 70
8
 71
3
 72
8
 73
4
 74
0
 40
0
 40
0
 40
0
 40
0
 40
1
 40
1
 40
1
 40
1
 10
26606.080839
 20
-7426.147964
 30
0.0
 10
26592.620262
 20
-7402.833562
 30
0.0
 10
26567.744091
 20
-7388.471298
 30
0.0
 10
26540.822938
 20
-7388.471298
 30
0.0
  0
LWPOLYLINE
  5
1b5
100
AcDbEntity
  8
0
 62
7
100
AcDbPolyline
 90
2
 70
0
 10
26540.822938
 20
-7538.895742
 30
0.0
 10
26373.182938
 20
-7538.895742
 30
0.0
  0
LWPOLYLINE
  5
1b6
100
AcDbEntity
  8
0
 62
7
100
AcDbPolyline
 90
2
 70
0
 10
26540.822938
 20
-7670.693520
 30
0.0
 10
26373.182938
 20
-7670.693520
 30
0.0
  0
SPLINE
  5
1b7
100
AcDbEntity
  8
0
 62
7
100
AcDbSpline
 70
8
 71
3
 72
8
 73
4
 74
0
 40
0
 40
0
 40
0
 40
0
 40
1
 40
1
 40
1
 40
1
 10
26373.182938
 20
-7670.693520
 30
0.0
 10
26346.261785
 20
-7670.693520
 30
0.0
 10
26321.385613
 20
-7685.055784
 30
0.0
 10
26307.925037
 20
-7708.370187
 30
0.0
  0
SPLINE
  5
1b8
100
AcDbEntity
  8
0
 62
7
100
AcDbSpline
 70
8
 71
3
 72
8
 73
4
 74
0
 40
0
 40
0
 40
0
 40
0
 40
1
 40
1
 40
1
 40
1
 10
26307.925037
 20
-7708.370187
 30
0.0
 10
26294.464460
 20
-7731.684589
 30
0.0
 10
26294.464460
 20
-7760.409118
 30
0.0
 10
26307.925037
 20
-7783.723520
 30
0.0
  0
SPLINE
  5
1b9
100
AcDbEntity
  8
0
 62
7
100
AcDbSpline
 70
8
 71
3
 72
8
 73
4
 74
0
 40
0
 40
0
 40
0
 40
0
 40
1
 40
1
 40
1
 40
1
 10
26307.925037
 20
-7783.723520
 30
0.0
 10
26321.385613
 20
-7807.037922
 30
0.0
 10
26346.261785
 20
-7821.400187
 30
0.0
 10
26373.182938
 20
-7821.400187
 30
0.0
  0
SPLINE
  5
1ba
100
AcDbEntity
  8
0
 62
7
100
AcDbSpline
 70
8
 71
3
 72
8
 73
4
 74
0
 40
0
 40
0
 40
0
 40
0
 40
1
 40
1
 40
1
 40
1
 10
26540.822938
 20
-7821.400187
 30
0.0
 10
26567.744091
 20
-7821.400187
 30
0.0
 10
26592.620262
 20
-7807.037922
 30
0.0
 10
26606.080839
 20
-7783.723520
 30
0.0
  0
SPLINE
  5
1bb
100
AcDbEntity
  8
0
 62
7
100
AcDbSpline
 70
8
 71
3
 72
8
 73
4
 74
0
 40
0
 40
0
 40
0
 40
0
 40
1
 40
1
 40
1
 40
1
 10
26606.080839
 20
-7783.723520
 30
0.0
 10
26619.541415
 20
-7760.409118
 30
0.0
 10
26619.541415
 20
-7731.684589
 30
0.0
 10
26606.080839
 20
-7708.370187
 30
0.0
  0
SPLINE
  5
1bc
100
AcDbEntity
  8
0
 62
7
100
AcDbSpline
 70
8
 71
3
 72
8
 73
4
 74
0
 40
0
 40
0
 40
0
 40
0
 40
1
 40
1
 40
1
 40
1
 10
26606.080839
 20
-7708.370187
 30
0.0
 10
26592.620262
 20
-7685.055784
 30
0.0
 10
26567.744091
 20
-7670.693520
 30
0.0
 10
26540.822938
 20
-7670.693520
 30
0.0
  0
LWPOLYLINE
  5
1bd
100
AcDbEntity
  8
0
 62
7
100
AcDbPolyline
 90
2
 70
0
 10
26540.822938
 20
-7821.117964
 30
0.0
 10
26373.182938
 20
-7821.117964
 30
0.0
  0
LWPOLYLINE
  5
1be
100
AcDbEntity
  8
0
 62
7
100
AcDbPolyline
 90
2
 70
0
 10
25262.074049
 20
-6559.866853
 30
0.0
 10
25262.074049
 20
-6392.226853
 30
0.0
  0
SPLINE
  5
1bf
100
AcDbEntity
  8
0
 62
7
100
AcDbSpline
 70
8
 71
3
 72
8
 73
4
 74
0
 40
0
 40
0
 40
0
 40
0
 40
1
 40
1
 40
1
 40
1
 10
25262.356271
 20
-6392.226853
 30
0.0
 10
25262.356271
 20
-6365.305700
 30
0.0
 10
25247.994007
 20
-6340.429529
 30
0.0
 10
25224.679604
 20
-6326.968952
 30
0.0
  0
SPLINE
  5
1c0
100
AcDbEntity
  8
0
 62
7
100
AcDbSpline
 70
8
 71
3
 72
8
 73
4
 74
0
 40
0
 40
0
 40
0
 40
0
 40
1
 40
1
 40
1
 40
1
 10
25224.679604
 20
-6326.968952
 30
0.0
 10
25201.365202
 20
-6313.508376
 30
0.0
 10
25172.640674
 20
-6313.508376
 30
0.0
 10
25149.326271
 20
-6326.968952
 30
0.0
  0
SPLINE
  5
1c1
100
AcDbEntity
  8
0
 62
7
100
AcDbSpline
 70
8
 71
3
 72
8
 73
4
 74
0
 40
0
 40
0
 40
0
 40
0
 40
1
 40
1
 40
1
 40
1
 10
25149.326271
 20
-6326.968952
 30
0.0
 10
25126.011869
 20
-6340.429529
 30
0.0
 10
25111.649604
 20
-6365.305700
 30
0.0
 10
25111.649604
 20
-6392.226853
 30
0.0
  0
SPLINE
  5
1c2
100
AcDbEntity
  8
0
 62
7
100
AcDbSpline
 70
8
 71
3
 72
8
 73
4
 74
0
 40
0
 40
0
 40
0
 40
0
 40
1
 40
1
 40
1
 40
1
 10
25111.649604
 20
-6559.866853
 30
0.0
 10
25111.649604
 20
-6586.788006
 30
0.0
 10
25126.011869
 20
-6611.664178
 30
0.0
 10
25149.326271
 20
-6625.124754
 30
0.0
  0
SPLINE
  5
1c3
100
AcDbEntity
  8
0
 62
7
100
AcDbSpline
 70
8
 71
3
 72
8
 73
4
 74
0
 40
0
 40
0
 40
0
 40
0
 40
1
 40
1
 40
1
 40
1
 10
25149.326271
 20
-6625.124754
 30
0.0
 10
25172.640674
 20
-6638.585331
 30
0.0
 10
25201.365202
 20
-6638.585331
 30
0.0
 10
25224.679604
 20
-6625.124754
 30
0.0
  0
SPLINE
  5
1c4
100
AcDbEntity
  8
0
 62
7
100
AcDbSpline
 70
8
 71
3
 72
8
 73
4
 74
0
 40
0
 40
0
 40
0
 40
0
 40
1
 40
1
 40
1
 40
1
 10
25224.679604
 20
-6625.124754
 30
0.0
 10
25247.994007
 20
-6611.664178
 30
0.0
 10
25262.356271
 20
-6586.788006
 30
0.0
 10
25262.356271
 20
-6559.866853
 30
0.0
  0
LWPOLYLINE
  5
1c5
100
AcDbEntity
  8
0
 62
7
100
AcDbPolyline
 90
2
 70
0
 10
25111.649604
 20
-6559.866853
 30
0.0
 10
25111.649604
 20
-6392.226853
 30
0.0
  0
LWPOLYLINE
  5
1c6
100
AcDbEntity
  8
0
 62
7
100
AcDbPolyline
 90
2
 70
0
 10
24979.851827
 20
-6559.866853
 30
0.0
 10
24979.851827
 20
-6392.226853
 30
0.0
  0
SPLINE
  5
1c7
100
AcDbEntity
  8
0
 62
7
100
AcDbSpline
 70
8
 71
3
 72
8
 73
4
 74
0
 40
0
 40
0
 40
0
 40
0
 40
1
 40
1
 40
1
 40
1
 10
24980.134049
 20
-6392.226853
 30
0.0
 10
24980.134049
 20
-6365.305700
 30
0.0
 10
24965.771785
 20
-6340.429529
 30
0.0
 10
24942.457382
 20
-6326.968952
 30
0.0
  0
SPLINE
  5
1c8
100
AcDbEntity
  8
0
 62
7
100
AcDbSpline
 70
8
 71
3
 72
8
 73
4
 74
0
 40
0
 40
0
 40
0
 40
0
 40
1
 40
1
 40
1
 40
1
 10
24942.457382
 20
-6326.968952
 30
0.0
 10
24919.142980
 20
-6313.508376
 30
0.0
 10
24890.418451
 20
-6313.508376
 30
0.0
 10
24867.104049
 20
-6326.968952
 30
0.0
  0
SPLINE
  5
1c9
100
AcDbEntity
  8
0
 62
7
100
AcDbSpline
 70
8
 71
3
 72
8
 73
4
 74
0
 40
0
 40
0
 40
0
 40
0
 40
1
 40
1
 40
1
 40
1
 10
24867.104049
 20
-6326.968952
 30
0.0
 10
24843.789646
 20
-6340.429529
 30
0.0
 10
24829.427382
 20
-6365.305700
 30
0.0
 10
24829.427382
 20
-6392.226853
 30
0.0
  0
SPLINE
  5
1ca
100
AcDbEntity
  8
0
 62
7
100
AcDbSpline
 70
8
 71
3
 72
8
 73
4
 74
0
 40
0
 40
0
 40
0
 40
0
 40
1
 40
1
 40
1
 40
1
 10
24829.427382
 20
-6559.866853
 30
0.0
 10
24829.427382
 20
-6586.788006
 30
0.0
 10
24843.789646
 20
-6611.664178
 30
0.0
 10
24867.104049
 20
-6625.124754
 30
0.0
  0
SPLINE
  5
1cb
100
AcDbEntity
  8
0
 62
7
100
AcDbSpline
 70
8
 71
3
 72
8
 73
4
 74
0
 40
0
 40
0
 40
0
 40
0
 40
1
 40
1
 40
1
 40
1
 10
24867.104049
 20
-6625.124754
 30
0.0
 10
24890.418451
 20
-6638.585331
 30
0.0
 10
24919.142980
 20
-6638.585331
 30
0.0
 10
24942.457382
 20
-6625.124754
 30
0.0
  0
SPLINE
  5
1cc
100
AcDbEntity
  8
0
 62
7
100
AcDbSpline
 70
8
 71
3
 72
8
 73
4
 74
0
 40
0
 40
0
 40
0
 40
0
 40
1
 40
1
 40
1
 40
1
 10
24942.457382
 20
-6625.124754
 30
0.0
 10
24965.771785
 20
-6611.664178
 30
0.0
 10
24980.134049
 20
-6586.788006
 30
0.0
 10
24980.134049
 20
-6559.866853
 30
0.0
  0
LWPOLYLINE
  5
1cd
100
AcDbEntity
  8
0
 62
7
100
AcDbPolyline
 90
2
 70
0
 10
24829.427382
 20
-6559.866853
 30
0.0
 10
24829.427382
 20
-6392.226853
 30
0.0
  0
LWPOLYLINE
  5
1ce
100
AcDbEntity
  8
0
 62
7
100
AcDbPolyline
 90
2
 70
0
 10
24697.629604
 20
-6559.866853
 30
0.0
 10
24697.629604
 20
-6392.226853
 30
0.0
  0
SPLINE
  5
1cf
100
AcDbEntity
  8
0
 62
7
100
AcDbSpline
 70
8
 71
3
 72
8
 73
4
 74
0
 40
0
 40
0
 40
0
 40
0
 40
1
 40
1
 40
1
 40
1
 10
24697.911827
 20
-6392.226853
 30
0.0
 10
24697.911827
 20
-6365.305700
 30
0.0
 10
24683.549562
 20
-6340.429529
 30
0.0
 10
24660.235160
 20
-6326.968952
 30
0.0
  0
SPLINE
  5
1d0
100
AcDbEntity
  8
0
 62
7
100
AcDbSpline
 70
8
 71
3
 72
8
 73
4
 74
0
 40
0
 40
0
 40
0
 40
0
 40
1
 40
1
 40
1
 40
1
 10
24660.235160
 20
-6326.968952
 30
0.0
 10
24636.920758
 20
-6313.508376
 30
0.0
 10
24608.196229
 20
-6313.508376
 30
0.0
 10
24584.881827
 20
-6326.968952
 30
0.0
  0
SPLINE
  5
1d1
100
AcDbEntity
  8
0
 62
7
100
AcDbSpline
 70
8
 71
3
 72
8
 73
4
 74
0
 40
0
 40
0
 40
0
 40
0
 40
1
 40
1
 40
1
 40
1
 10
24584.881827
 20
-6326.968952
 30
0.0
 10
24561.567424
 20
-6340.429529
 30
0.0
 10
24547.205160
 20
-6365.305700
 30
0.0
 10
24547.205160
 20
-6392.226853
 30
0.0
  0
SPLINE
  5
1d2
100
AcDbEntity
  8
0
 62
7
100
AcDbSpline
 70
8
 71
3
 72
8
 73
4
 74
0
 40
0
 40
0
 40
0
 40
0
 40
1
 40
1
 40
1
 40
1
 10
24547.205160
 20
-6559.866853
 30
0.0
 10
24547.205160
 20
-6586.788006
 30
0.0
 10
24561.567424
 20
-6611.664178
 30
0.0
 10
24584.881827
 20
-6625.124754
 30
0.0
  0
SPLINE
  5
1d3
100
AcDbEntity
  8
0
 62
7
100
AcDbSpline
 70
8
 71
3
 72
8
 73
4
 74
0
 40
0
 40
0
 40
0
 40
0
 40
1
 40
1
 40
1
 40
1
 10
24584.881827
 20
-6625.124754
 30
0.0
 10
24608.196229
 20
-6638.585331
 30
0.0
 10
24636.920758
 20
-6638.585331
 30
0.0
 10
24660.235160
 20
-6625.124754
 30
0.0
  0
SPLINE
  5
1d4
100
AcDbEntity
  8
0
 62
7
100
AcDbSpline
 70
8
 71
3
 72
8
 73
4
 74
0
 40
0
 40
0
 40
0
 40
0
 40
1
 40
1
 40
1
 40
1
 10
24660.235160
 20
-6625.124754
 30
0.0
 10
24683.549562
 20
-6611.664178
 30
0.0
 10
24697.911827
 20
-6586.788006
 30
0.0
 10
24697.911827
 20
-6559.866853
 30
0.0
  0
LWPOLYLINE
  5
1d5
100
AcDbEntity
  8
0
 62
7
100
AcDbPolyline
 90
2
 70
0
 10
24547.205160
 20
-6559.866853
 30
0.0
 10
24547.205160
 20
-6392.226853
 30
0.0
  0
LWPOLYLINE
  5
1d6
100
AcDbEntity
  8
0
 62
7
100
AcDbPolyline
 90
2
 70
0
 10
28498.316271
 20
-8085.560187
 30
0.0
 10
28498.316271
 20
-8253.200187
 30
0.0
  0
SPLINE
  5
1d7
100
AcDbEntity
  8
0
 62
7
100
AcDbSpline
 70
8
 71
3
 72
8
 73
4
 74
0
 40
0
 40
0
 40
0
 40
0
 40
1
 40
1
 40
1
 40
1
 10
28498.316271
 20
-8253.200187
 30
0.0
 10
28498.316271
 20
-8280.121340
 30
0.0
 10
28512.678535
 20
-8304.997511
 30
0.0
 10
28535.992938
 20
-8318.458088
 30
0.0
  0
SPLINE
  5
1d8
100
AcDbEntity
  8
0
 62
7
100
AcDbSpline
 70
8
 71
3
 72
8
 73
4
 74
0
 40
0
 40
0
 40
0
 40
0
 40
1
 40
1
 40
1
 40
1
 10
28535.992938
 20
-8318.458088
 30
0.0
 10
28559.307340
 20
-8331.918664
 30
0.0
 10
28588.031869
 20
-8331.918664
 30
0.0
 10
28611.346271
 20
-8318.458088
 30
0.0
  0
SPLINE
  5
1d9
100
AcDbEntity
  8
0
 62
7
100
AcDbSpline
 70
8
 71
3
 72
8
 73
4
 74
0
 40
0
 40
0
 40
0
 40
0
 40
1
 40
1
 40
1
 40
1
 10
28611.346271
 20
-8318.458088
 30
0.0
 10
28634.660674
 20
-8304.997511
 30
0.0
 10
28649.022938
 20
-8280.121340
 30
0.0
 10
28649.022938
 20
-8253.200187
 30
0.0
  0
SPLINE
  5
1da
100
AcDbEntity
  8
0
 62
7
100
AcDbSpline
 70
8
 71
3
 72
8
 73
4
 74
0
 40
0
 40
0
 40
0
 40
0
 40
1
 40
1
 40
1
 40
1
 10
28649.022938
 20
-8085.560187
 30
0.0
 10
28649.022938
 20
-8058.639034
 30
0.0
 10
28634.660674
 20
-8033.762862
 30
0.0
 10
28611.346271
 20
-8020.302286
 30
0.0
  0
SPLINE
  5
1db
100
AcDbEntity
  8
0
 62
7
100
AcDbSpline
 70
8
 71
3
 72
8
 73
4
 74
0
 40
0
 40
0
 40
0
 40
0
 40
1
 40
1
 40
1
 40
1
 10
28611.346271
 20
-8020.302286
 30
0.0
 10
28588.031869
 20
-8006.841709
 30
0.0
 10
28559.307340
 20
-8006.841709
 30
0.0
 10
28535.992938
 20
-8020.302286
 30
0.0
  0
SPLINE
  5
1dc
100
AcDbEntity
  8
0
 62
7
100
AcDbSpline
 70
8
 71
3
 72
8
 73
4
 74
0
 40
0
 40
0
 40
0
 40
0
 40
1
 40
1
 40
1
 40
1
 10
28535.992938
 20
-8020.302286
 30
0.0
 10
28512.678535
 20
-8033.762862
 30
0.0
 10
28498.316271
 20
-8058.639034
 30
0.0
 10
28498.316271
 20
-8085.560187
 30
0.0
  0
LWPOLYLINE
  5
1dd
100
AcDbEntity
  8
0
 62
7
100
AcDbPolyline
 90
2
 70
0
 10
28648.740716
 20
-8085.560187
 30
0.0
 10
28648.740716
 20
-8253.200187
 30
0.0
  0
LWPOLYLINE
  5
1de
100
AcDbEntity
  8
0
 62
7
100
AcDbPolyline
 90
2
 70
0
 10
28780.538493
 20
-8085.560187
 30
0.0
 10
28780.538493
 20
-8253.200187
 30
0.0
  0
SPLINE
  5
1df
100
AcDbEntity
  8
0
 62
7
100
AcDbSpline
 70
8
 71
3
 72
8
 73
4
 74
0
 40
0
 40
0
 40
0
 40
0
 40
1
 40
1
 40
1
 40
1
 10
28780.538493
 20
-8253.200187
 30
0.0
 10
28780.538493
 20
-8280.121340
 30
0.0
 10
28794.900758
 20
-8304.997511
 30
0.0
 10
28818.215160
 20
-8318.458088
 30
0.0
  0
SPLINE
  5
1e0
100
AcDbEntity
  8
0
 62
7
100
AcDbSpline
 70
8
 71
3
 72
8
 73
4
 74
0
 40
0
 40
0
 40
0
 40
0
 40
1
 40
1
 40
1
 40
1
 10
28818.215160
 20
-8318.458088
 30
0.0
 10
28841.529562
 20
-8331.918664
 30
0.0
 10
28870.254091
 20
-8331.918664
 30
0.0
 10
28893.568493
 20
-8318.458088
 30
0.0
  0
SPLINE
  5
1e1
100
AcDbEntity
  8
0
 62
7
100
AcDbSpline
 70
8
 71
3
 72
8
 73
4
 74
0
 40
0
 40
0
 40
0
 40
0
 40
1
 40
1
 40
1
 40
1
 10
28893.568493
 20
-8318.458088
 30
0.0
 10
28916.882896
 20
-8304.997511
 30
0.0
 10
28931.245160
 20
-8280.121340
 30
0.0
 10
28931.245160
 20
-8253.200187
 30
0.0
  0
SPLINE
  5
1e2
100
AcDbEntity
  8
0
 62
7
100
AcDbSpline
 70
8
 71
3
 72
8
 73
4
 74
0
 40
0
 40
0
 40
0
 40
0
 40
1
 40
1
 40
1
 40
1
 10
28931.245160
 20
-8085.560187
 30
0.0
 10
28931.245160
 20
-8058.639034
 30
0.0
 10
28916.882896
 20
-8033.762862
 30
0.0
 10
28893.568493
 20
-8020.302286
 30
0.0
  0
SPLINE
  5
1e3
100
AcDbEntity
  8
0
 62
7
100
AcDbSpline
 70
8
 71
3
 72
8
 73
4
 74
0
 40
0
 40
0
 40
0
 40
0
 40
1
 40
1
 40
1
 40
1
 10
28893.568493
 20
-8020.302286
 30
0.0
 10
28870.254091
 20
-8006.841709
 30
0.0
 10
28841.529562
 20
-8006.841709
 30
0.0
 10
28818.215160
 20
-8020.302286
 30
0.0
  0
SPLINE
  5
1e4
100
AcDbEntity
  8
0
 62
7
100
AcDbSpline
 70
8
 71
3
 72
8
 73
4
 74
0
 40
0
 40
0
 40
0
 40
0
 40
1
 40
1
 40
1
 40
1
 10
28818.215160
 20
-8020.302286
 30
0.0
 10
28794.900758
 20
-8033.762862
 30
0.0
 10
28780.538493
 20
-8058.639034
 30
0.0
 10
28780.538493
 20
-8085.560187
 30
0.0
  0
LWPOLYLINE
  5
1e5
100
AcDbEntity
  8
0
 62
7
100
AcDbPolyline
 90
2
 70
0
 10
28930.962938
 20
-8085.560187
 30
0.0
 10
28930.962938
 20
-8253.200187
 30
0.0
  0
LWPOLYLINE
  5
1e6
100
AcDbEntity
  8
0
 62
7
100
AcDbPolyline
 90
2
 70
0
 10
29062.760716
 20
-8085.560187
 30
0.0
 10
29062.760716
 20
-8253.200187
 30
0.0
  0
SPLINE
  5
1e7
100
AcDbEntity
  8
0
 62
7
100
AcDbSpline
 70
8
 71
3
 72
8
 73
4
 74
0
 40
0
 40
0
 40
0
 40
0
 40
1
 40
1
 40
1
 40
1
 10
29062.760716
 20
-8253.200187
 30
0.0
 10
29062.760716
 20
-8280.121340
 30
0.0
 10
29077.122980
 20
-8304.997511
 30
0.0
 10
29100.437382
 20
-8318.458088
 30
0.0
  0
SPLINE
  5
1e8
100
AcDbEntity
  8
0
 62
7
100
AcDbSpline
 70
8
 71
3
 72
8
 73
4
 74
0
 40
0
 40
0
 40
0
 40
0
 40
1
 40
1
 40
1
 40
1
 10
29100.437382
 20
-8318.458088
 30
0.0
 10
29123.751785
 20
-8331.918664
 30
0.0
 10
29152.476313
 20
-8331.918664
 30
0.0
 10
29175.790716
 20
-8318.458088
 30
0.0
  0
SPLINE
  5
1e9
100
AcDbEntity
  8
0
 62
7
100
AcDbSpline
 70
8
 71
3
 72
8
 73
4
 74
0
 40
0
 40
0
 40
0
 40
0
 40
1
 40
1
 40
1
 40
1
 10
29175.790716
 20
-8318.458088
 30
0.0
 10
29199.105118
 20
-8304.997511
 30
0.0
 10
29213.467382
 20
-8280.121340
 30
0.0
 10
29213.467382
 20
-8253.200187
 30
0.0
  0
SPLINE
  5
1ea
100
AcDbEntity
  8
0
 62
7
100
AcDbSpline
 70
8
 71
3
 72
8
 73
4
 74
0
 40
0
 40
0
 40
0
 40
0
 40
1
 40
1
 40
1
 40
1
 10
29213.467382
 20
-8085.560187
 30
0.0
 10
29213.467382
 20
-8058.639034
 30
0.0
 10
29199.105118
 20
-8033.762862
 30
0.0
 10
29175.790716
 20
-8020.302286
 30
0.0
  0
SPLINE
  5
1eb
100
AcDbEntity
  8
0
 62
7
100
AcDbSpline
 70
8
 71
3
 72
8
 73
4
 74
0
 40
0
 40
0
 40
0
 40
0
 40
1
 40
1
 40
1
 40
1
 10
29175.790716
 20
-8020.302286
 30
0.0
 10
29152.476313
 20
-8006.841709
 30
0.0
 10
29123.751785
 20
-8006.841709
 30
0.0
 10
29100.437382
 20
-8020.302286
 30
0.0
  0
SPLINE
  5
1ec
100
AcDbEntity
  8
0
 62
7
100
AcDbSpline
 70
8
 71
3
 72
8
 73
4
 74
0
 40
0
 40
0
 40
0
 40
0
 40
1
 40
1
 40
1
 40
1
 10
29100.437382
 20
-8020.302286
 30
0.0
 10
29077.122980
 20
-8033.762862
 30
0.0
 10
29062.760716
 20
-8058.639034
 30
0.0
 10
29062.760716
 20
-8085.560187
 30
0.0
  0
LWPOLYLINE
  5
1ed
100
AcDbEntity
  8
0
 62
7
100
AcDbPolyline
 90
2
 70
0
 10
29213.185160
 20
-8085.560187
 30
0.0
 10
29213.185160
 20
-8253.200187
 30
0.0
  0
LWPOLYLINE
  5
1ee
100
AcDbEntity
  8
0
 62
7
100
AcDbPolyline
 90
5
 70
0
 10
22574.643136
 20
-10180.125777
 30
0.0
 10
31189.024913
 20
-10180.125777
 30
0.0
 10
31189.024913
 20
-15176.870222
 30
0.0
 10
22574.643136
 20
-15176.870222
 30
0.0
 10
22574.643136
 20
-10180.125777
 30
0.0
  0
LWPOLYLINE
  5
1ef
100
AcDbEntity
  8
0
 62
7
100
AcDbPolyline
 90
2
 70
0
 10
24187.486973
 20
-12499.089615
 30
0.0
 10
24187.486973
 20
-12216.867393
 30
0.0
  0
LWPOLYLINE
  5
1f0
100
AcDbEntity
  8
0
 62
7
100
AcDbPolyline
 90
4
 70
0
 10
24893.042529
 20
-13204.645170
 30
0.0
 10
24893.042529
 20
-13063.534059
 30
0.0
 10
25175.264751
 20
-13063.534059
 30
0.0
 10
25175.264751
 20
-13204.645170
 30
0.0
  0
LWPOLYLINE
  5
1f1
100
AcDbEntity
  8
0
 62
7
100
AcDbPolyline
 90
5
 70
0
 10
24751.931418
 20
-13204.645170
 30
0.0
 10
24751.931418
 20
-12075.756282
 30
0.0
 10
25316.375862
 20
-12075.756282
 30
0.0
 10
25316.375862
 20
-13204.645170
 30
0.0
 10
24751.931418
 20
-13204.645170
 30
0.0
  0
LWPOLYLINE
  5
1f2
100
AcDbEntity
  8
0
 62
7
100
AcDbPolyline
 90
4
 70
0
 10
27433.042529
 20
-13345.756282
 30
0.0
 10
27433.042529
 20
-13204.645170
 30
0.0
 10
27715.264751
 20
-13204.645170
 30
0.0
 10
27715.264751
 20
-13345.756282
 30
0.0
  0
LWPOLYLINE
  5
1f3
100
AcDbEntity
  8
0
 62
7
100
AcDbPolyline
 90
5
 70
0
 10
27291.931418
 20
-13345.756282
 30
0.0
 10
27291.931418
 20
-12216.867393
 30
0.0
 10
27856.375862
 20
-12216.867393
 30
0.0
 10
27856.375862
 20
-13345.756282
 30
0.0
 10
27291.931418
 20
-13345.756282
 30
0.0
  0
SPLINE
  5
1f4
100
AcDbEntity
  8
0
 62
7
100
AcDbSpline
 70
8
 71
3
 72
8
 73
4
 74
0
 40
0
 40
0
 40
0
 40
0
 40
1
 40
1
 40
1
 40
1
 10
28036.715862
 20
-11544.021393
 30
0.0
 10
28011.363577
 20
-11574.454965
 30
0.0
 10
27997.482349
 20
-11612.813092
 30
0.0
 10
27997.486973
 20
-11652.422948
 30
0.0
  0
SPLINE
  5
1f5
100
AcDbEntity
  8
0
 62
7
100
AcDbSpline
 70
8
 71
3
 72
8
 73
4
 74
0
 40
0
 40
0
 40
0
 40
0
 40
1
 40
1
 40
1
 40
1
 10
27997.684529
 20
-11652.422948
 30
0.0
 10
27997.687060
 20
-11693.815716
 30
0.0
 10
28012.869613
 20
-11733.770331
 30
0.0
 10
28040.356529
 20
-11764.719170
 30
0.0
  0
SPLINE
  5
1f6
100
AcDbEntity
  8
0
 62
7
100
AcDbSpline
 70
8
 71
3
 72
8
 73
4
 74
0
 40
0
 40
0
 40
0
 40
0
 40
1
 40
1
 40
1
 40
1
 10
28335.956084
 20
-11652.422948
 30
0.0
 10
28335.953767
 20
-11612.049261
 30
0.0
 10
28321.508600
 20
-11573.008269
 30
0.0
 10
28295.231418
 20
-11542.356282
 30
0.0
  0
SPLINE
  5
1f7
100
AcDbEntity
  8
0
 62
7
100
AcDbSpline
 70
8
 71
3
 72
8
 73
4
 74
0
 40
0
 40
0
 40
0
 40
0
 40
1
 40
1
 40
1
 40
1
 10
28296.924751
 20
-11760.824504
 30
0.0
 10
28322.277037
 20
-11730.390931
 30
0.0
 10
28336.158264
 20
-11692.032804
 30
0.0
 10
28336.153640
 20
-11652.422948
 30
0.0
  0
SPLINE
  5
1f8
100
AcDbEntity
  8
0
 62
7
100
AcDbSpline
 70
8
 71
3
 72
8
 73
4
 74
0
 40
0
 40
0
 40
0
 40
0
 40
1
 40
1
 40
1
 40
1
 10
28304.516529
 20
-11553.842726
 30
0.0
 10
28272.716263
 20
-11509.429628
 30
0.0
 10
28221.444296
 20
-11483.084306
 30
0.0
 10
28166.820307
 20
-11483.089615
 30
0.0
  0
SPLINE
  5
1f9
100
AcDbEntity
  8
0
 62
7
100
AcDbSpline
 70
8
 71
3
 72
8
 73
4
 74
0
 40
0
 40
0
 40
0
 40
0
 40
1
 40
1
 40
1
 40
1
 10
28166.820307
 20
-11483.089615
 30
0.0
 10
28113.556157
 20
-11483.087383
 30
0.0
 10
28063.395206
 20
-11508.146949
 30
0.0
 10
28031.410084
 20
-11550.738282
 30
0.0
  0
SPLINE
  5
1fa
100
AcDbEntity
  8
0
 62
7
100
AcDbSpline
 70
8
 71
3
 72
8
 73
4
 74
0
 40
0
 40
0
 40
0
 40
0
 40
1
 40
1
 40
1
 40
1
 10
28166.820307
 20
-11821.558726
 30
0.0
 10
28218.990296
 20
-11821.556361
 30
0.0
 10
28268.239724
 20
-11797.478400
 30
0.0
 10
28300.283196
 20
-11756.308948
 30
0.0
  0
SPLINE
  5
1fb
100
AcDbEntity
  8
0
 62
7
100
AcDbSpline
 70
8
 71
3
 72
8
 73
4
 74
0
 40
0
 40
0
 40
0
 40
0
 40
1
 40
1
 40
1
 40
1
 10
28033.188084
 20
-11756.450059
 30
0.0
 10
28065.276062
 20
-11797.663696
 30
0.0
 10
28114.588113
 20
-11821.762552
 30
0.0
 10
28166.820307
 20
-11821.756282
 30
0.0
  0
SPLINE
  5
1fc
100
AcDbEntity
  8
0
 62
7
100
AcDbSpline
 70
8
 71
3
 72
8
 73
4
 74
0
 40
0
 40
0
 40
0
 40
0
 40
1
 40
1
 40
1
 40
1
 10
28166.820307
 20
-11581.867393
 30
0.0
 10
28148.107810
 20
-11581.867393
 30
0.0
 10
28130.161728
 20
-11589.300903
 30
0.0
 10
28116.929995
 20
-11602.532636
 30
0.0
  0
SPLINE
  5
1fd
100
AcDbEntity
  8
0
 62
7
100
AcDbSpline
 70
8
 71
3
 72
8
 73
4
 74
0
 40
0
 40
0
 40
0
 40
0
 40
1
 40
1
 40
1
 40
1
 10
28116.929995
 20
-11602.532636
 30
0.0
 10
28103.698262
 20
-11615.764370
 30
0.0
 10
28096.264751
 20
-11633.710451
 30
0.0
 10
28096.264751
 20
-11652.422948
 30
0.0
  0
SPLINE
  5
1fe
100
AcDbEntity
  8
0
 62
7
100
AcDbSpline
 70
8
 71
3
 72
8
 73
4
 74
0
 40
0
 40
0
 40
0
 40
0
 40
1
 40
1
 40
1
 40
1
 10
28166.820307
 20
-11539.534059
 30
0.0
 10
28136.880312
 20
-11539.534059
 30
0.0
 10
28108.166581
 20
-11551.427676
 30
0.0
 10
28086.995808
 20
-11572.598449
 30
0.0
  0
SPLINE
  5
1ff
100
AcDbEntity
  8
0
 62
7
100
AcDbSpline
 70
8
 71
3
 72
8
 73
4
 74
0
 40
0
 40
0
 40
0
 40
0
 40
1
 40
1
 40
1
 40
1
 10
28086.995808
 20
-11572.598449
 30
0.0
 10
28065.825034
 20
-11593.769223
 30
0.0
 10
28053.931418
 20
-11622.482953
 30
0.0
 10
28053.931418
 20
-11652.422948
 30
0.0
  0
SPLINE
  5
200
100
AcDbEntity
  8
0
 62
7
100
AcDbSpline
 70
8
 71
3
 72
8
 73
4
 74
0
 40
0
 40
0
 40
0
 40
0
 40
1
 40
1
 40
1
 40
1
 10
28166.820307
 20
-11722.978504
 30
0.0
 10
28185.532803
 20
-11722.978504
 30
0.0
 10
28203.478885
 20
-11715.544993
 30
0.0
 10
28216.710618
 20
-11702.313260
 30
0.0
  0
SPLINE
  5
201
100
AcDbEntity
  8
0
 62
7
100
AcDbSpline
 70
8
 71
3
 72
8
 73
4
 74
0
 40
0
 40
0
 40
0
 40
0
 40
1
 40
1
 40
1
 40
1
 10
28216.710618
 20
-11702.313260
 30
0.0
 10
28229.942352
 20
-11689.081527
 30
0.0
 10
28237.375862
 20
-11671.135445
 30
0.0
 10
28237.375862
 20
-11652.422948
 30
0.0
  0
SPLINE
  5
202
100
AcDbEntity
  8
0
 62
7
100
AcDbSpline
 70
8
 71
3
 72
8
 73
4
 74
0
 40
0
 40
0
 40
0
 40
0
 40
1
 40
1
 40
1
 40
1
 10
28166.820307
 20
-11765.311837
 30
0.0
 10
28196.760302
 20
-11765.311837
 30
0.0
 10
28225.474032
 20
-11753.418220
 30
0.0
 10
28246.644806
 20
-11732.247447
 30
0.0
  0
SPLINE
  5
203
100
AcDbEntity
  8
0
 62
7
100
AcDbSpline
 70
8
 71
3
 72
8
 73
4
 74
0
 40
0
 40
0
 40
0
 40
0
 40
1
 40
1
 40
1
 40
1
 10
28246.644806
 20
-11732.247447
 30
0.0
 10
28267.815579
 20
-11711.076674
 30
0.0
 10
28279.709196
 20
-11682.362943
 30
0.0
 10
28279.709196
 20
-11652.422948
 30
0.0
  0
SPLINE
  5
204
100
AcDbEntity
  8
0
 62
7
100
AcDbSpline
 70
8
 71
3
 72
8
 73
4
 74
0
 40
0
 40
0
 40
0
 40
0
 40
1
 40
1
 40
1
 40
1
 10
28340.020084
 20
-11507.586504
 30
0.0
 10
28297.122277
 20
-11456.288146
 30
0.0
 10
28233.691402
 20
-11426.645039
 30
0.0
 10
28166.820307
 20
-11426.645170
 30
0.0
  0
SPLINE
  5
205
100
AcDbEntity
  8
0
 62
7
100
AcDbSpline
 70
8
 71
3
 72
8
 73
4
 74
0
 40
0
 40
0
 40
0
 40
0
 40
1
 40
1
 40
1
 40
1
 10
28166.820307
 20
-11426.927393
 30
0.0
 10
28083.580588
 20
-11426.931551
 30
0.0
 10
28007.112971
 20
-11472.792592
 30
0.0
 10
27967.910084
 20
-11546.222726
 30
0.0
  0
SPLINE
  5
206
100
AcDbEntity
  8
0
 62
7
100
AcDbSpline
 70
8
 71
3
 72
8
 73
4
 74
0
 40
0
 40
0
 40
0
 40
0
 40
1
 40
1
 40
1
 40
1
 10
28167.215418
 20
-11877.918504
 30
0.0
 10
28233.460773
 20
-11877.804206
 30
0.0
 10
28296.304529
 20
-11848.565191
 30
0.0
 10
28339.060529
 20
-11797.964948
 30
0.0
  0
SPLINE
  5
207
100
AcDbEntity
  8
0
 62
7
100
AcDbSpline
 70
8
 71
3
 72
8
 73
4
 74
0
 40
0
 40
0
 40
0
 40
0
 40
1
 40
1
 40
1
 40
1
 10
27970.901640
 20
-11764.634504
 30
0.0
 10
28011.129713
 20
-11834.871792
 30
0.0
 10
28085.878509
 20
-11878.200682
 30
0.0
 10
28166.820307
 20
-11878.200726
 30
0.0
  0
SPLINE
  5
208
100
AcDbEntity
  8
0
 62
7
100
AcDbSpline
 70
8
 71
3
 72
8
 73
4
 74
0
 40
0
 40
0
 40
0
 40
0
 40
1
 40
1
 40
1
 40
1
 10
27968.022973
 20
-11545.376059
 30
0.0
 10
27950.310174
 20
-11578.276063
 30
0.0
 10
27941.039583
 20
-11615.057811
 30
0.0
 10
27941.042529
 20
-11652.422948
 30
0.0
  0
SPLINE
  5
209
100
AcDbEntity
  8
0
 62
7
100
AcDbSpline
 70
8
 71
3
 72
8
 73
4
 74
0
 40
0
 40
0
 40
0
 40
0
 40
1
 40
1
 40
1
 40
1
 10
27941.155418
 20
-11652.422948
 30
0.0
 10
27941.157441
 20
-11694.177562
 30
0.0
 10
27952.744375
 20
-11735.112850
 30
0.0
 10
27974.626973
 20
-11770.674059
 30
0.0
  0
LWPOLYLINE
  5
20a
100
AcDbEntity
  8
0
 62
7
100
AcDbPolyline
 90
2
 70
0
 10
28341.798084
 20
-11793.534059
 30
0.0
 10
28341.798084
 20
-11511.311837
 30
0.0
  0
LWPOLYLINE
  5
20b
100
AcDbEntity
  8
0
 62
7
100
AcDbPolyline
 90
5
 70
0
 10
29267.486973
 20
-13910.200726
 30
0.0
 10
29267.486973
 20
-14192.422948
 30
0.0
 10
28420.820307
 20
-14192.422948
 30
0.0
 10
28420.820307
 20
-13910.200726
 30
0.0
 10
29267.486973
 20
-13910.200726
 30
0.0
  0
LWPOLYLINE
  5
20c
100
AcDbEntity
  8
0
 62
7
100
AcDbPolyline
 90
2
 70
0
 10
28985.264751
 20
-14192.422948
 30
0.0
 10
28985.264751
 20
-13910.200726
 30
0.0
  0
LWPOLYLINE
  5
20d
100
AcDbEntity
  8
0
 62
7
100
AcDbPolyline
 90
5
 70
0
 10
24751.931418
 20
-14192.422948
 30
0.0
 10
24751.931418
 20
-13910.200726
 30
0.0
 10
25598.598084
 20
-13910.200726
 30
0.0
 10
25598.598084
 20
-14192.422948
 30
0.0
 10
24751.931418
 20
-14192.422948
 30
0.0
  0
LWPOLYLINE
  5
20e
100
AcDbEntity
  8
0
 62
7
100
AcDbPolyline
 90
2
 70
0
 10
25034.153640
 20
-13910.200726
 30
0.0
 10
25034.153640
 20
-14192.422948
 30
0.0
  0
LWPOLYLINE
  5
20f
100
AcDbEntity
  8
0
 62
7
100
AcDbPolyline
 90
5
 70
0
 10
24328.598084
 20
-13492.511837
 30
0.0
 10
24328.598084
 20
-14051.311837
 30
0.0
 10
24046.375862
 20
-14051.311837
 30
0.0
 10
24046.375862
 20
-13486.867393
 30
0.0
 10
24328.598084
 20
-13486.867393
 30
0.0
  0
LWPOLYLINE
  5
210
100
AcDbEntity
  8
0
 62
7
100
AcDbPolyline
 90
2
 70
0
 10
24258.042529
 20
-13486.867393
 30
0.0
 10
24328.598084
 20
-13557.422948
 30
0.0
  0
LWPOLYLINE
  5
211
100
AcDbEntity
  8
0
 62
7
100
AcDbPolyline
 90
5
 70
0
 10
26558.153640
 20
-13373.978504
 30
0.0
 10
26558.153640
 20
-14164.200726
 30
0.0
 10
26332.375862
 20
-14164.200726
 30
0.0
 10
26332.375862
 20
-13373.978504
 30
0.0
 10
26558.153640
 20
-13373.978504
 30
0.0
  0
LWPOLYLINE
  5
212
100
AcDbEntity
  8
0
 62
7
100
AcDbPolyline
 90
2
 70
0
 10
26501.709196
 20
-13373.978504
 30
0.0
 10
26558.153640
 20
-13430.422948
 30
0.0
  0
LWPOLYLINE
  5
213
100
AcDbEntity
  8
0
 62
7
100
AcDbPolyline
 90
2
 70
0
 10
27291.931418
 20
-11652.422948
 30
0.0
 10
27574.153640
 20
-11652.422948
 30
0.0
  0
LWPOLYLINE
  5
214
100
AcDbEntity
  8
0
 62
7
100
AcDbPolyline
 90
2
 70
0
 10
26304.153640
 20
-11229.089615
 30
0.0
 10
26304.153640
 20
-11793.534059
 30
0.0
  0
LWPOLYLINE
  5
215
100
AcDbEntity
  8
0
 62
7
100
AcDbPolyline
 90
2
 70
0
 10
26798.042529
 20
-11229.089615
 30
0.0
 10
26798.042529
 20
-11793.534059
 30
0.0
  0
LWPOLYLINE
  5
216
100
AcDbEntity
  8
0
 62
7
100
AcDbPolyline
 90
2
 70
0
 10
26092.486973
 20
-11793.534059
 30
0.0
 10
26092.486973
 20
-11229.089615
 30
0.0
  0
LWPOLYLINE
  5
217
100
AcDbEntity
  8
0
 62
7
100
AcDbPolyline
 90
2
 70
0
 10
26092.486973
 20
-11793.534059
 30
0.0
 10
26798.042529
 20
-11793.534059
 30
0.0
  0
LWPOLYLINE
  5
218
100
AcDbEntity
  8
0
 62
7
100
AcDbPolyline
 90
2
 70
0
 10
26092.486973
 20
-11229.089615
 30
0.0
 10
26798.042529
 20
-11229.089615
 30
0.0
  0
LWPOLYLINE
  5
219
100
AcDbEntity
  8
0
 62
7
100
AcDbPolyline
 90
5
 70
0
 10
29690.820307
 20
-11229.089615
 30
0.0
 10
29690.820307
 20
-11511.311837
 30
0.0
 10
29126.375862
 20
-11511.311837
 30
0.0
 10
29126.375862
 20
-11229.089615
 30
0.0
 10
29690.820307
 20
-11229.089615
 30
0.0
  0
LWPOLYLINE
  5
21a
100
AcDbEntity
  8
0
 62
7
100
AcDbPolyline
 90
5
 70
0
 10
27009.709196
 20
-14192.422948
 30
0.0
 10
27009.709196
 20
-13910.200726
 30
0.0
 10
27856.375862
 20
-13910.200726
 30
0.0
 10
27856.375862
 20
-14192.422948
 30
0.0
 10
27009.709196
 20
-14192.422948
 30
0.0
  0
LWPOLYLINE
  5
21b
100
AcDbEntity
  8
0
 62
7
100
AcDbPolyline
 90
2
 70
0
 10
27291.931418
 20
-13910.200726
 30
0.0
 10
27291.931418
 20
-14192.422948
 30
0.0
  0
LWPOLYLINE
  5
21c
100
AcDbEntity
  8
0
 62
7
100
AcDbPolyline
 90
2
 70
0
 10
26798.042529
 20
-12216.867393
 30
0.0
 10
26092.486973
 20
-12216.867393
 30
0.0
  0
LWPOLYLINE
  5
21d
100
AcDbEntity
  8
0
 62
7
100
AcDbPolyline
 90
2
 70
0
 10
26798.042529
 20
-13063.534059
 30
0.0
 10
26092.486973
 20
-13063.534059
 30
0.0
  0
LWPOLYLINE
  5
21e
100
AcDbEntity
  8
0
 62
7
100
AcDbPolyline
 90
2
 70
0
 10
26586.375862
 20
-13063.534059
 30
0.0
 10
26586.375862
 20
-12216.867393
 30
0.0
  0
LWPOLYLINE
  5
21f
100
AcDbEntity
  8
0
 62
7
100
AcDbPolyline
 90
2
 70
0
 10
26798.042529
 20
-12216.867393
 30
0.0
 10
26798.042529
 20
-13063.534059
 30
0.0
  0
LWPOLYLINE
  5
220
100
AcDbEntity
  8
0
 62
7
100
AcDbPolyline
 90
2
 70
0
 10
26092.486973
 20
-13063.534059
 30
0.0
 10
26092.486973
 20
-12216.867393
 30
0.0
  0
LWPOLYLINE
  5
221
100
AcDbEntity
  8
0
 62
7
100
AcDbPolyline
 90
2
 70
0
 10
25316.375862
 20
-12005.200726
 30
0.0
 10
25316.375862
 20
-11299.645170
 30
0.0
  0
LWPOLYLINE
  5
222
100
AcDbEntity
  8
0
 62
7
100
AcDbPolyline
 90
2
 70
0
 10
24469.709196
 20
-12005.200726
 30
0.0
 10
24469.709196
 20
-11299.645170
 30
0.0
  0
LWPOLYLINE
  5
223
100
AcDbEntity
  8
0
 62
7
100
AcDbPolyline
 90
2
 70
0
 10
24469.709196
 20
-11793.534059
 30
0.0
 10
25316.375862
 20
-11793.534059
 30
0.0
  0
LWPOLYLINE
  5
224
100
AcDbEntity
  8
0
 62
7
100
AcDbPolyline
 90
2
 70
0
 10
25316.375862
 20
-12005.200726
 30
0.0
 10
24469.709196
 20
-12005.200726
 30
0.0
  0
LWPOLYLINE
  5
225
100
AcDbEntity
  8
0
 62
7
100
AcDbPolyline
 90
2
 70
0
 10
24469.709196
 20
-11299.645170
 30
0.0
 10
25316.375862
 20
-11299.645170
 30
0.0
  0
LWPOLYLINE
  5
226
100
AcDbEntity
  8
0
 62
7
100
AcDbPolyline
 90
2
 70
0
 10
28420.820307
 20
-12992.978504
 30
0.0
 10
28420.820307
 20
-13698.534059
 30
0.0
  0
LWPOLYLINE
  5
227
100
AcDbEntity
  8
0
 62
7
100
AcDbPolyline
 90
2
 70
0
 10
29267.486973
 20
-12992.978504
 30
0.0
 10
29267.486973
 20
-13698.534059
 30
0.0
  0
LWPOLYLINE
  5
228
100
AcDbEntity
  8
0
 62
7
100
AcDbPolyline
 90
2
 70
0
 10
29267.486973
 20
-13204.645170
 30
0.0
 10
28420.820307
 20
-13204.645170
 30
0.0
  0
LWPOLYLINE
  5
229
100
AcDbEntity
  8
0
 62
7
100
AcDbPolyline
 90
2
 70
0
 10
28420.820307
 20
-12992.978504
 30
0.0
 10
29267.486973
 20
-12992.978504
 30
0.0
  0
LWPOLYLINE
  5
22a
100
AcDbEntity
  8
0
 62
7
100
AcDbPolyline
 90
2
 70
0
 10
29267.486973
 20
-13698.534059
 30
0.0
 10
28420.820307
 20
-13698.534059
 30
0.0
  0
LWPOLYLINE
  5
22b
100
AcDbEntity
  8
0
 62
7
100
AcDbPolyline
 90
2
 70
0
 10
26361.444751
 20
-11727.494059
 30
0.0
 10
26529.084751
 20
-11727.494059
 30
0.0
  0
SPLINE
  5
22c
100
AcDbEntity
  8
0
 62
7
100
AcDbSpline
 70
8
 71
3
 72
8
 73
4
 74
0
 40
0
 40
0
 40
0
 40
0
 40
1
 40
1
 40
1
 40
1
 10
26529.084751
 20
-11727.776282
 30
0.0
 10
26556.005904
 20
-11727.776282
 30
0.0
 10
26580.882075
 20
-11713.414017
 30
0.0
 10
26594.342652
 20
-11690.099615
 30
0.0
  0
SPLINE
  5
22d
100
AcDbEntity
  8
0
 62
7
100
AcDbSpline
 70
8
 71
3
 72
8
 73
4
 74
0
 40
0
 40
0
 40
0
 40
0
 40
1
 40
1
 40
1
 40
1
 10
26594.342652
 20
-11690.099615
 30
0.0
 10
26607.803229
 20
-11666.785212
 30
0.0
 10
26607.803229
 20
-11638.060684
 30
0.0
 10
26594.342652
 20
-11614.746282
 30
0.0
  0
SPLINE
  5
22e
100
AcDbEntity
  8
0
 62
7
100
AcDbSpline
 70
8
 71
3
 72
8
 73
4
 74
0
 40
0
 40
0
 40
0
 40
0
 40
1
 40
1
 40
1
 40
1
 10
26594.342652
 20
-11614.746282
 30
0.0
 10
26580.882075
 20
-11591.431879
 30
0.0
 10
26556.005904
 20
-11577.069615
 30
0.0
 10
26529.084751
 20
-11577.069615
 30
0.0
  0
SPLINE
  5
22f
100
AcDbEntity
  8
0
 62
7
100
AcDbSpline
 70
8
 71
3
 72
8
 73
4
 74
0
 40
0
 40
0
 40
0
 40
0
 40
1
 40
1
 40
1
 40
1
 10
26361.444751
 20
-11577.069615
 30
0.0
 10
26334.523598
 20
-11577.069615
 30
0.0
 10
26309.647427
 20
-11591.431879
 30
0.0
 10
26296.186850
 20
-11614.746282
 30
0.0
  0
SPLINE
  5
230
100
AcDbEntity
  8
0
 62
7
100
AcDbSpline
 70
8
 71
3
 72
8
 73
4
 74
0
 40
0
 40
0
 40
0
 40
0
 40
1
 40
1
 40
1
 40
1
 10
26296.186850
 20
-11614.746282
 30
0.0
 10
26282.726274
 20
-11638.060684
 30
0.0
 10
26282.726274
 20
-11666.785212
 30
0.0
 10
26296.186850
 20
-11690.099615
 30
0.0
  0
SPLINE
  5
231
100
AcDbEntity
  8
0
 62
7
100
AcDbSpline
 70
8
 71
3
 72
8
 73
4
 74
0
 40
0
 40
0
 40
0
 40
0
 40
1
 40
1
 40
1
 40
1
 10
26296.186850
 20
-11690.099615
 30
0.0
 10
26309.647427
 20
-11713.414017
 30
0.0
 10
26334.523598
 20
-11727.776282
 30
0.0
 10
26361.444751
 20
-11727.776282
 30
0.0
  0
LWPOLYLINE
  5
232
100
AcDbEntity
  8
0
 62
7
100
AcDbPolyline
 90
2
 70
0
 10
26361.444751
 20
-11577.069615
 30
0.0
 10
26529.084751
 20
-11577.069615
 30
0.0
  0
LWPOLYLINE
  5
233
100
AcDbEntity
  8
0
 62
7
100
AcDbPolyline
 90
2
 70
0
 10
26361.444751
 20
-11445.271837
 30
0.0
 10
26529.084751
 20
-11445.271837
 30
0.0
  0
SPLINE
  5
234
100
AcDbEntity
  8
0
 62
7
100
AcDbSpline
 70
8
 71
3
 72
8
 73
4
 74
0
 40
0
 40
0
 40
0
 40
0
 40
1
 40
1
 40
1
 40
1
 10
26529.084751
 20
-11445.554059
 30
0.0
 10
26556.005904
 20
-11445.554059
 30
0.0
 10
26580.882075
 20
-11431.191795
 30
0.0
 10
26594.342652
 20
-11407.877393
 30
0.0
  0
SPLINE
  5
235
100
AcDbEntity
  8
0
 62
7
100
AcDbSpline
 70
8
 71
3
 72
8
 73
4
 74
0
 40
0
 40
0
 40
0
 40
0
 40
1
 40
1
 40
1
 40
1
 10
26594.342652
 20
-11407.877393
 30
0.0
 10
26607.803229
 20
-11384.562990
 30
0.0
 10
26607.803229
 20
-11355.838462
 30
0.0
 10
26594.342652
 20
-11332.524059
 30
0.0
  0
SPLINE
  5
236
100
AcDbEntity
  8
0
 62
7
100
AcDbSpline
 70
8
 71
3
 72
8
 73
4
 74
0
 40
0
 40
0
 40
0
 40
0
 40
1
 40
1
 40
1
 40
1
 10
26594.342652
 20
-11332.524059
 30
0.0
 10
26580.882075
 20
-11309.209657
 30
0.0
 10
26556.005904
 20
-11294.847393
 30
0.0
 10
26529.084751
 20
-11294.847393
 30
0.0
  0
SPLINE
  5
237
100
AcDbEntity
  8
0
 62
7
100
AcDbSpline
 70
8
 71
3
 72
8
 73
4
 74
0
 40
0
 40
0
 40
0
 40
0
 40
1
 40
1
 40
1
 40
1
 10
26361.444751
 20
-11294.847393
 30
0.0
 10
26334.523598
 20
-11294.847393
 30
0.0
 10
26309.647427
 20
-11309.209657
 30
0.0
 10
26296.186850
 20
-11332.524059
 30
0.0
  0
SPLINE
  5
238
100
AcDbEntity
  8
0
 62
7
100
AcDbSpline
 70
8
 71
3
 72
8
 73
4
 74
0
 40
0
 40
0
 40
0
 40
0
 40
1
 40
1
 40
1
 40
1
 10
26296.186850
 20
-11332.524059
 30
0.0
 10
26282.726274
 20
-11355.838462
 30
0.0
 10
26282.726274
 20
-11384.562990
 30
0.0
 10
26296.186850
 20
-11407.877393
 30
0.0
  0
SPLINE
  5
239
100
AcDbEntity
  8
0
 62
7
100
AcDbSpline
 70
8
 71
3
 72
8
 73
4
 74
0
 40
0
 40
0
 40
0
 40
0
 40
1
 40
1
 40
1
 40
1
 10
26296.186850
 20
-11407.877393
 30
0.0
 10
26309.647427
 20
-11431.191795
 30
0.0
 10
26334.523598
 20
-11445.554059
 30
0.0
 10
26361.444751
 20
-11445.554059
 30
0.0
  0
LWPOLYLINE
  5
23a
100
AcDbEntity
  8
0
 62
7
100
AcDbPolyline
 90
2
 70
0
 10
26361.444751
 20
-11294.847393
 30
0.0
 10
26529.084751
 20
-11294.847393
 30
0.0
  0
LWPOLYLINE
  5
23b
100
AcDbEntity
  8
0
 62
7
100
AcDbPolyline
 90
2
 70
0
 10
26529.084751
 20
-12282.625170
 30
0.0
 10
26361.444751
 20
-12282.625170
 30
0.0
  0
SPLINE
  5
23c
100
AcDbEntity
  8
0
 62
7
100
AcDbSpline
 70
8
 71
3
 72
8
 73
4
 74
0
 40
0
 40
0
 40
0
 40
0
 40
1
 40
1
 40
1
 40
1
 10
26361.444751
 20
-12282.625170
 30
0.0
 10
26334.523598
 20
-12282.625170
 30
0.0
 10
26309.647427
 20
-12296.987435
 30
0.0
 10
26296.186850
 20
-12320.301837
 30
0.0
  0
SPLINE
  5
23d
100
AcDbEntity
  8
0
 62
7
100
AcDbSpline
 70
8
 71
3
 72
8
 73
4
 74
0
 40
0
 40
0
 40
0
 40
0
 40
1
 40
1
 40
1
 40
1
 10
26296.186850
 20
-12320.301837
 30
0.0
 10
26282.726274
 20
-12343.616240
 30
0.0
 10
26282.726274
 20
-12372.340768
 30
0.0
 10
26296.186850
 20
-12395.655170
 30
0.0
  0
SPLINE
  5
23e
100
AcDbEntity
  8
0
 62
7
100
AcDbSpline
 70
8
 71
3
 72
8
 73
4
 74
0
 40
0
 40
0
 40
0
 40
0
 40
1
 40
1
 40
1
 40
1
 10
26296.186850
 20
-12395.655170
 30
0.0
 10
26309.647427
 20
-12418.969573
 30
0.0
 10
26334.523598
 20
-12433.331837
 30
0.0
 10
26361.444751
 20
-12433.331837
 30
0.0
  0
SPLINE
  5
23f
100
AcDbEntity
  8
0
 62
7
100
AcDbSpline
 70
8
 71
3
 72
8
 73
4
 74
0
 40
0
 40
0
 40
0
 40
0
 40
1
 40
1
 40
1
 40
1
 10
26529.084751
 20
-12433.331837
 30
0.0
 10
26556.005904
 20
-12433.331837
 30
0.0
 10
26580.882075
 20
-12418.969573
 30
0.0
 10
26594.342652
 20
-12395.655170
 30
0.0
  0
SPLINE
  5
240
100
AcDbEntity
  8
0
 62
7
100
AcDbSpline
 70
8
 71
3
 72
8
 73
4
 74
0
 40
0
 40
0
 40
0
 40
0
 40
1
 40
1
 40
1
 40
1
 10
26594.342652
 20
-12395.655170
 30
0.0
 10
26607.803229
 20
-12372.340768
 30
0.0
 10
26607.803229
 20
-12343.616240
 30
0.0
 10
26594.342652
 20
-12320.301837
 30
0.0
  0
SPLINE
  5
241
100
AcDbEntity
  8
0
 62
7
100
AcDbSpline
 70
8
 71
3
 72
8
 73
4
 74
0
 40
0
 40
0
 40
0
 40
0
 40
1
 40
1
 40
1
 40
1
 10
26594.342652
 20
-12320.301837
 30
0.0
 10
26580.882075
 20
-12296.987435
 30
0.0
 10
26556.005904
 20
-12282.625170
 30
0.0
 10
26529.084751
 20
-12282.625170
 30
0.0
  0
LWPOLYLINE
  5
242
100
AcDbEntity
  8
0
 62
7
100
AcDbPolyline
 90
2
 70
0
 10
26529.084751
 20
-12433.049615
 30
0.0
 10
26361.444751
 20
-12433.049615
 30
0.0
  0
LWPOLYLINE
  5
243
100
AcDbEntity
  8
0
 62
7
100
AcDbPolyline
 90
2
 70
0
 10
26529.084751
 20
-12564.847393
 30
0.0
 10
26361.444751
 20
-12564.847393
 30
0.0
  0
SPLINE
  5
244
100
AcDbEntity
  8
0
 62
7
100
AcDbSpline
 70
8
 71
3
 72
8
 73
4
 74
0
 40
0
 40
0
 40
0
 40
0
 40
1
 40
1
 40
1
 40
1
 10
26361.444751
 20
-12564.847393
 30
0.0
 10
26334.523598
 20
-12564.847393
 30
0.0
 10
26309.647427
 20
-12579.209657
 30
0.0
 10
26296.186850
 20
-12602.524059
 30
0.0
  0
SPLINE
  5
245
100
AcDbEntity
  8
0
 62
7
100
AcDbSpline
 70
8
 71
3
 72
8
 73
4
 74
0
 40
0
 40
0
 40
0
 40
0
 40
1
 40
1
 40
1
 40
1
 10
26296.186850
 20
-12602.524059
 30
0.0
 10
26282.726274
 20
-12625.838462
 30
0.0
 10
26282.726274
 20
-12654.562990
 30
0.0
 10
26296.186850
 20
-12677.877393
 30
0.0
  0
SPLINE
  5
246
100
AcDbEntity
  8
0
 62
7
100
AcDbSpline
 70
8
 71
3
 72
8
 73
4
 74
0
 40
0
 40
0
 40
0
 40
0
 40
1
 40
1
 40
1
 40
1
 10
26296.186850
 20
-12677.877393
 30
0.0
 10
26309.647427
 20
-12701.191795
 30
0.0
 10
26334.523598
 20
-12715.554059
 30
0.0
 10
26361.444751
 20
-12715.554059
 30
0.0
  0
SPLINE
  5
247
100
AcDbEntity
  8
0
 62
7
100
AcDbSpline
 70
8
 71
3
 72
8
 73
4
 74
0
 40
0
 40
0
 40
0
 40
0
 40
1
 40
1
 40
1
 40
1
 10
26529.084751
 20
-12715.554059
 30
0.0
 10
26556.005904
 20
-12715.554059
 30
0.0
 10
26580.882075
 20
-12701.191795
 30
0.0
 10
26594.342652
 20
-12677.877393
 30
0.0
  0
SPLINE
  5
248
100
AcDbEntity
  8
0
 62
7
100
AcDbSpline
 70
8
 71
3
 72
8
 73
4
 74
0
 40
0
 40
0
 40
0
 40
0
 40
1
 40
1
 40
1
 40
1
 10
26594.342652
 20
-12677.877393
 30
0.0
 10
26607.803229
 20
-12654.562990
 30
0.0
 10
26607.803229
 20
-12625.838462
 30
0.0
 10
26594.342652
 20
-12602.524059
 30
0.0
  0
SPLINE
  5
249
100
AcDbEntity
  8
0
 62
7
100
AcDbSpline
 70
8
 71
3
 72
8
 73
4
 74
0
 40
0
 40
0
 40
0
 40
0
 40
1
 40
1
 40
1
 40
1
 10
26594.342652
 20
-12602.524059
 30
0.0
 10
26580.882075
 20
-12579.209657
 30
0.0
 10
26556.005904
 20
-12564.847393
 30
0.0
 10
26529.084751
 20
-12564.847393
 30
0.0
  0
LWPOLYLINE
  5
24a
100
AcDbEntity
  8
0
 62
7
100
AcDbPolyline
 90
2
 70
0
 10
26529.084751
 20
-12715.271837
 30
0.0
 10
26361.444751
 20
-12715.271837
 30
0.0
  0
LWPOLYLINE
  5
24b
100
AcDbEntity
  8
0
 62
7
100
AcDbPolyline
 90
2
 70
0
 10
26529.084751
 20
-12847.069615
 30
0.0
 10
26361.444751
 20
-12847.069615
 30
0.0
  0
SPLINE
  5
24c
100
AcDbEntity
  8
0
 62
7
100
AcDbSpline
 70
8
 71
3
 72
8
 73
4
 74
0
 40
0
 40
0
 40
0
 40
0
 40
1
 40
1
 40
1
 40
1
 10
26361.444751
 20
-12847.069615
 30
0.0
 10
26334.523598
 20
-12847.069615
 30
0.0
 10
26309.647427
 20
-12861.431879
 30
0.0
 10
26296.186850
 20
-12884.746282
 30
0.0
  0
SPLINE
  5
24d
100
AcDbEntity
  8
0
 62
7
100
AcDbSpline
 70
8
 71
3
 72
8
 73
4
 74
0
 40
0
 40
0
 40
0
 40
0
 40
1
 40
1
 40
1
 40
1
 10
26296.186850
 20
-12884.746282
 30
0.0
 10
26282.726274
 20
-12908.060684
 30
0.0
 10
26282.726274
 20
-12936.785212
 30
0.0
 10
26296.186850
 20
-12960.099615
 30
0.0
  0
SPLINE
  5
24e
100
AcDbEntity
  8
0
 62
7
100
AcDbSpline
 70
8
 71
3
 72
8
 73
4
 74
0
 40
0
 40
0
 40
0
 40
0
 40
1
 40
1
 40
1
 40
1
 10
26296.186850
 20
-12960.099615
 30
0.0
 10
26309.647427
 20
-12983.414017
 30
0.0
 10
26334.523598
 20
-12997.776282
 30
0.0
 10
26361.444751
 20
-12997.776282
 30
0.0
  0
SPLINE
  5
24f
100
AcDbEntity
  8
0
 62
7
100
AcDbSpline
 70
8
 71
3
 72
8
 73
4
 74
0
 40
0
 40
0
 40
0
 40
0
 40
1
 40
1
 40
1
 40
1
 10
26529.084751
 20
-12997.776282
 30
0.0
 10
26556.005904
 20
-12997.776282
 30
0.0
 10
26580.882075
 20
-12983.414017
 30
0.0
 10
26594.342652
 20
-12960.099615
 30
0.0
  0
SPLINE
  5
250
100
AcDbEntity
  8
0
 62
7
100
AcDbSpline
 70
8
 71
3
 72
8
 73
4
 74
0
 40
0
 40
0
 40
0
 40
0
 40
1
 40
1
 40
1
 40
1
 10
26594.342652
 20
-12960.099615
 30
0.0
 10
26607.803229
 20
-12936.785212
 30
0.0
 10
26607.803229
 20
-12908.060684
 30
0.0
 10
26594.342652
 20
-12884.746282
 30
0.0
  0
SPLINE
  5
251
100
AcDbEntity
  8
0
 62
7
100
AcDbSpline
 70
8
 71
3
 72
8
 73
4
 74
0
 40
0
 40
0
 40
0
 40
0
 40
1
 40
1
 40
1
 40
1
 10
26594.342652
 20
-12884.746282
 30
0.0
 10
26580.882075
 20
-12861.431879
 30
0.0
 10
26556.005904
 20
-12847.069615
 30
0.0
 10
26529.084751
 20
-12847.069615
 30
0.0
  0
LWPOLYLINE
  5
252
100
AcDbEntity
  8
0
 62
7
100
AcDbPolyline
 90
2
 70
0
 10
26529.084751
 20
-12997.494059
 30
0.0
 10
26361.444751
 20
-12997.494059
 30
0.0
  0
LWPOLYLINE
  5
253
100
AcDbEntity
  8
0
 62
7
100
AcDbPolyline
 90
2
 70
0
 10
25250.335862
 20
-11736.242948
 30
0.0
 10
25250.335862
 20
-11568.602948
 30
0.0
  0
SPLINE
  5
254
100
AcDbEntity
  8
0
 62
7
100
AcDbSpline
 70
8
 71
3
 72
8
 73
4
 74
0
 40
0
 40
0
 40
0
 40
0
 40
1
 40
1
 40
1
 40
1
 10
25250.618084
 20
-11568.602948
 30
0.0
 10
25250.618084
 20
-11541.681795
 30
0.0
 10
25236.255820
 20
-11516.805624
 30
0.0
 10
25212.941418
 20
-11503.345047
 30
0.0
  0
SPLINE
  5
255
100
AcDbEntity
  8
0
 62
7
100
AcDbSpline
 70
8
 71
3
 72
8
 73
4
 74
0
 40
0
 40
0
 40
0
 40
0
 40
1
 40
1
 40
1
 40
1
 10
25212.941418
 20
-11503.345047
 30
0.0
 10
25189.627015
 20
-11489.884471
 30
0.0
 10
25160.902487
 20
-11489.884471
 30
0.0
 10
25137.588084
 20
-11503.345047
 30
0.0
  0
SPLINE
  5
256
100
AcDbEntity
  8
0
 62
7
100
AcDbSpline
 70
8
 71
3
 72
8
 73
4
 74
0
 40
0
 40
0
 40
0
 40
0
 40
1
 40
1
 40
1
 40
1
 10
25137.588084
 20
-11503.345047
 30
0.0
 10
25114.273682
 20
-11516.805624
 30
0.0
 10
25099.911418
 20
-11541.681795
 30
0.0
 10
25099.911418
 20
-11568.602948
 30
0.0
  0
SPLINE
  5
257
100
AcDbEntity
  8
0
 62
7
100
AcDbSpline
 70
8
 71
3
 72
8
 73
4
 74
0
 40
0
 40
0
 40
0
 40
0
 40
1
 40
1
 40
1
 40
1
 10
25099.911418
 20
-11736.242948
 30
0.0
 10
25099.911418
 20
-11763.164101
 30
0.0
 10
25114.273682
 20
-11788.040273
 30
0.0
 10
25137.588084
 20
-11801.500849
 30
0.0
  0
SPLINE
  5
258
100
AcDbEntity
  8
0
 62
7
100
AcDbSpline
 70
8
 71
3
 72
8
 73
4
 74
0
 40
0
 40
0
 40
0
 40
0
 40
1
 40
1
 40
1
 40
1
 10
25137.588084
 20
-11801.500849
 30
0.0
 10
25160.902487
 20
-11814.961426
 30
0.0
 10
25189.627015
 20
-11814.961426
 30
0.0
 10
25212.941418
 20
-11801.500849
 30
0.0
  0
SPLINE
  5
259
100
AcDbEntity
  8
0
 62
7
100
AcDbSpline
 70
8
 71
3
 72
8
 73
4
 74
0
 40
0
 40
0
 40
0
 40
0
 40
1
 40
1
 40
1
 40
1
 10
25212.941418
 20
-11801.500849
 30
0.0
 10
25236.255820
 20
-11788.040273
 30
0.0
 10
25250.618084
 20
-11763.164101
 30
0.0
 10
25250.618084
 20
-11736.242948
 30
0.0
  0
LWPOLYLINE
  5
25a
100
AcDbEntity
  8
0
 62
7
100
AcDbPolyline
 90
2
 70
0
 10
25099.911418
 20
-11736.242948
 30
0.0
 10
25099.911418
 20
-11568.602948
 30
0.0
  0
LWPOLYLINE
  5
25b
100
AcDbEntity
  8
0
 62
7
100
AcDbPolyline
 90
2
 70
0
 10
24968.113640
 20
-11736.242948
 30
0.0
 10
24968.113640
 20
-11568.602948
 30
0.0
  0
SPLINE
  5
25c
100
AcDbEntity
  8
0
 62
7
100
AcDbSpline
 70
8
 71
3
 72
8
 73
4
 74
0
 40
0
 40
0
 40
0
 40
0
 40
1
 40
1
 40
1
 40
1
 10
24968.395862
 20
-11568.602948
 30
0.0
 10
24968.395862
 20
-11541.681795
 30
0.0
 10
24954.033598
 20
-11516.805624
 30
0.0
 10
24930.719196
 20
-11503.345047
 30
0.0
  0
SPLINE
  5
25d
100
AcDbEntity
  8
0
 62
7
100
AcDbSpline
 70
8
 71
3
 72
8
 73
4
 74
0
 40
0
 40
0
 40
0
 40
0
 40
1
 40
1
 40
1
 40
1
 10
24930.719196
 20
-11503.345047
 30
0.0
 10
24907.404793
 20
-11489.884471
 30
0.0
 10
24878.680265
 20
-11489.884471
 30
0.0
 10
24855.365862
 20
-11503.345047
 30
0.0
  0
SPLINE
  5
25e
100
AcDbEntity
  8
0
 62
7
100
AcDbSpline
 70
8
 71
3
 72
8
 73
4
 74
0
 40
0
 40
0
 40
0
 40
0
 40
1
 40
1
 40
1
 40
1
 10
24855.365862
 20
-11503.345047
 30
0.0
 10
24832.051460
 20
-11516.805624
 30
0.0
 10
24817.689196
 20
-11541.681795
 30
0.0
 10
24817.689196
 20
-11568.602948
 30
0.0
  0
SPLINE
  5
25f
100
AcDbEntity
  8
0
 62
7
100
AcDbSpline
 70
8
 71
3
 72
8
 73
4
 74
0
 40
0
 40
0
 40
0
 40
0
 40
1
 40
1
 40
1
 40
1
 10
24817.689196
 20
-11736.242948
 30
0.0
 10
24817.689196
 20
-11763.164101
 30
0.0
 10
24832.051460
 20
-11788.040273
 30
0.0
 10
24855.365862
 20
-11801.500849
 30
0.0
  0
SPLINE
  5
260
100
AcDbEntity
  8
0
 62
7
100
AcDbSpline
 70
8
 71
3
 72
8
 73
4
 74
0
 40
0
 40
0
 40
0
 40
0
 40
1
 40
1
 40
1
 40
1
 10
24855.365862
 20
-11801.500849
 30
0.0
 10
24878.680265
 20
-11814.961426
 30
0.0
 10
24907.404793
 20
-11814.961426
 30
0.0
 10
24930.719196
 20
-11801.500849
 30
0.0
  0
SPLINE
  5
261
100
AcDbEntity
  8
0
 62
7
100
AcDbSpline
 70
8
 71
3
 72
8
 73
4
 74
0
 40
0
 40
0
 40
0
 40
0
 40
1
 40
1
 40
1
 40
1
 10
24930.719196
 20
-11801.500849
 30
0.0
 10
24954.033598
 20
-11788.040273
 30
0.0
 10
24968.395862
 20
-11763.164101
 30
0.0
 10
24968.395862
 20
-11736.242948
 30
0.0
  0
LWPOLYLINE
  5
262
100
AcDbEntity
  8
0
 62
7
100
AcDbPolyline
 90
2
 70
0
 10
24817.689196
 20
-11736.242948
 30
0.0
 10
24817.689196
 20
-11568.602948
 30
0.0
  0
LWPOLYLINE
  5
263
100
AcDbEntity
  8
0
 62
7
100
AcDbPolyline
 90
2
 70
0
 10
24685.891418
 20
-11736.242948
 30
0.0
 10
24685.891418
 20
-11568.602948
 30
0.0
  0
SPLINE
  5
264
100
AcDbEntity
  8
0
 62
7
100
AcDbSpline
 70
8
 71
3
 72
8
 73
4
 74
0
 40
0
 40
0
 40
0
 40
0
 40
1
 40
1
 40
1
 40
1
 10
24686.173640
 20
-11568.602948
 30
0.0
 10
24686.173640
 20
-11541.681795
 30
0.0
 10
24671.811376
 20
-11516.805624
 30
0.0
 10
24648.496973
 20
-11503.345047
 30
0.0
  0
SPLINE
  5
265
100
AcDbEntity
  8
0
 62
7
100
AcDbSpline
 70
8
 71
3
 72
8
 73
4
 74
0
 40
0
 40
0
 40
0
 40
0
 40
1
 40
1
 40
1
 40
1
 10
24648.496973
 20
-11503.345047
 30
0.0
 10
24625.182571
 20
-11489.884471
 30
0.0
 10
24596.458042
 20
-11489.884471
 30
0.0
 10
24573.143640
 20
-11503.345047
 30
0.0
  0
SPLINE
  5
266
100
AcDbEntity
  8
0
 62
7
100
AcDbSpline
 70
8
 71
3
 72
8
 73
4
 74
0
 40
0
 40
0
 40
0
 40
0
 40
1
 40
1
 40
1
 40
1
 10
24573.143640
 20
-11503.345047
 30
0.0
 10
24549.829238
 20
-11516.805624
 30
0.0
 10
24535.466973
 20
-11541.681795
 30
0.0
 10
24535.466973
 20
-11568.602948
 30
0.0
  0
SPLINE
  5
267
100
AcDbEntity
  8
0
 62
7
100
AcDbSpline
 70
8
 71
3
 72
8
 73
4
 74
0
 40
0
 40
0
 40
0
 40
0
 40
1
 40
1
 40
1
 40
1
 10
24535.466973
 20
-11736.242948
 30
0.0
 10
24535.466973
 20
-11763.164101
 30
0.0
 10
24549.829238
 20
-11788.040273
 30
0.0
 10
24573.143640
 20
-11801.500849
 30
0.0
  0
SPLINE
  5
268
100
AcDbEntity
  8
0
 62
7
100
AcDbSpline
 70
8
 71
3
 72
8
 73
4
 74
0
 40
0
 40
0
 40
0
 40
0
 40
1
 40
1
 40
1
 40
1
 10
24573.143640
 20
-11801.500849
 30
0.0
 10
24596.458042
 20
-11814.961426
 30
0.0
 10
24625.182571
 20
-11814.961426
 30
0.0
 10
24648.496973
 20
-11801.500849
 30
0.0
  0
SPLINE
  5
269
100
AcDbEntity
  8
0
 62
7
100
AcDbSpline
 70
8
 71
3
 72
8
 73
4
 74
0
 40
0
 40
0
 40
0
 40
0
 40
1
 40
1
 40
1
 40
1
 10
24648.496973
 20
-11801.500849
 30
0.0
 10
24671.811376
 20
-11788.040273
 30
0.0
 10
24686.173640
 20
-11763.164101
 30
0.0
 10
24686.173640
 20
-11736.242948
 30
0.0
  0
LWPOLYLINE
  5
26a
100
AcDbEntity
  8
0
 62
7
100
AcDbPolyline
 90
2
 70
0
 10
24535.466973
 20
-11736.242948
 30
0.0
 10
24535.466973
 20
-11568.602948
 30
0.0
  0
LWPOLYLINE
  5
26b
100
AcDbEntity
  8
0
 62
7
100
AcDbPolyline
 90
2
 70
0
 10
28486.578084
 20
-13261.936282
 30
0.0
 10
28486.578084
 20
-13429.576282
 30
0.0
  0
SPLINE
  5
26c
100
AcDbEntity
  8
0
 62
7
100
AcDbSpline
 70
8
 71
3
 72
8
 73
4
 74
0
 40
0
 40
0
 40
0
 40
0
 40
1
 40
1
 40
1
 40
1
 10
28486.578084
 20
-13429.576282
 30
0.0
 10
28486.578084
 20
-13456.497435
 30
0.0
 10
28500.940349
 20
-13481.373606
 30
0.0
 10
28524.254751
 20
-13494.834182
 30
0.0
  0
SPLINE
  5
26d
100
AcDbEntity
  8
0
 62
7
100
AcDbSpline
 70
8
 71
3
 72
8
 73
4
 74
0
 40
0
 40
0
 40
0
 40
0
 40
1
 40
1
 40
1
 40
1
 10
28524.254751
 20
-13494.834182
 30
0.0
 10
28547.569154
 20
-13508.294759
 30
0.0
 10
28576.293682
 20
-13508.294759
 30
0.0
 10
28599.608084
 20
-13494.834182
 30
0.0
  0
SPLINE
  5
26e
100
AcDbEntity
  8
0
 62
7
100
AcDbSpline
 70
8
 71
3
 72
8
 73
4
 74
0
 40
0
 40
0
 40
0
 40
0
 40
1
 40
1
 40
1
 40
1
 10
28599.608084
 20
-13494.834182
 30
0.0
 10
28622.922487
 20
-13481.373606
 30
0.0
 10
28637.284751
 20
-13456.497435
 30
0.0
 10
28637.284751
 20
-13429.576282
 30
0.0
  0
SPLINE
  5
26f
100
AcDbEntity
  8
0
 62
7
100
AcDbSpline
 70
8
 71
3
 72
8
 73
4
 74
0
 40
0
 40
0
 40
0
 40
0
 40
1
 40
1
 40
1
 40
1
 10
28637.284751
 20
-13261.936282
 30
0.0
 10
28637.284751
 20
-13235.015128
 30
0.0
 10
28622.922487
 20
-13210.138957
 30
0.0
 10
28599.608084
 20
-13196.678381
 30
0.0
  0
SPLINE
  5
270
100
AcDbEntity
  8
0
 62
7
100
AcDbSpline
 70
8
 71
3
 72
8
 73
4
 74
0
 40
0
 40
0
 40
0
 40
0
 40
1
 40
1
 40
1
 40
1
 10
28599.608084
 20
-13196.678381
 30
0.0
 10
28576.293682
 20
-13183.217804
 30
0.0
 10
28547.569154
 20
-13183.217804
 30
0.0
 10
28524.254751
 20
-13196.678381
 30
0.0
  0
SPLINE
  5
271
100
AcDbEntity
  8
0
 62
7
100
AcDbSpline
 70
8
 71
3
 72
8
 73
4
 74
0
 40
0
 40
0
 40
0
 40
0
 40
1
 40
1
 40
1
 40
1
 10
28524.254751
 20
-13196.678381
 30
0.0
 10
28500.940349
 20
-13210.138957
 30
0.0
 10
28486.578084
 20
-13235.015128
 30
0.0
 10
28486.578084
 20
-13261.936282
 30
0.0
  0
LWPOLYLINE
  5
272
100
AcDbEntity
  8
0
 62
7
100
AcDbPolyline
 90
2
 70
0
 10
28637.002529
 20
-13261.936282
 30
0.0
 10
28637.002529
 20
-13429.576282
 30
0.0
  0
LWPOLYLINE
  5
273
100
AcDbEntity
  8
0
 62
7
100
AcDbPolyline
 90
2
 70
0
 10
28768.800307
 20
-13261.936282
 30
0.0
 10
28768.800307
 20
-13429.576282
 30
0.0
  0
SPLINE
  5
274
100
AcDbEntity
  8
0
 62
7
100
AcDbSpline
 70
8
 71
3
 72
8
 73
4
 74
0
 40
0
 40
0
 40
0
 40
0
 40
1
 40
1
 40
1
 40
1
 10
28768.800307
 20
-13429.576282
 30
0.0
 10
28768.800307
 20
-13456.497435
 30
0.0
 10
28783.162571
 20
-13481.373606
 30
0.0
 10
28806.476973
 20
-13494.834182
 30
0.0
  0
SPLINE
  5
275
100
AcDbEntity
  8
0
 62
7
100
AcDbSpline
 70
8
 71
3
 72
8
 73
4
 74
0
 40
0
 40
0
 40
0
 40
0
 40
1
 40
1
 40
1
 40
1
 10
28806.476973
 20
-13494.834182
 30
0.0
 10
28829.791376
 20
-13508.294759
 30
0.0
 10
28858.515904
 20
-13508.294759
 30
0.0
 10
28881.830307
 20
-13494.834182
 30
0.0
  0
SPLINE
  5
276
100
AcDbEntity
  8
0
 62
7
100
AcDbSpline
 70
8
 71
3
 72
8
 73
4
 74
0
 40
0
 40
0
 40
0
 40
0
 40
1
 40
1
 40
1
 40
1
 10
28881.830307
 20
-13494.834182
 30
0.0
 10
28905.144709
 20
-13481.373606
 30
0.0
 10
28919.506973
 20
-13456.497435
 30
0.0
 10
28919.506973
 20
-13429.576282
 30
0.0
  0
SPLINE
  5
277
100
AcDbEntity
  8
0
 62
7
100
AcDbSpline
 70
8
 71
3
 72
8
 73
4
 74
0
 40
0
 40
0
 40
0
 40
0
 40
1
 40
1
 40
1
 40
1
 10
28919.506973
 20
-13261.936282
 30
0.0
 10
28919.506973
 20
-13235.015128
 30
0.0
 10
28905.144709
 20
-13210.138957
 30
0.0
 10
28881.830307
 20
-13196.678381
 30
0.0
  0
SPLINE
  5
278
100
AcDbEntity
  8
0
 62
7
100
AcDbSpline
 70
8
 71
3
 72
8
 73
4
 74
0
 40
0
 40
0
 40
0
 40
0
 40
1
 40
1
 40
1
 40
1
 10
28881.830307
 20
-13196.678381
 30
0.0
 10
28858.515904
 20
-13183.217804
 30
0.0
 10
28829.791376
 20
-13183.217804
 30
0.0
 10
28806.476973
 20
-13196.678381
 30
0.0
  0
SPLINE
  5
279
100
AcDbEntity
  8
0
 62
7
100
AcDbSpline
 70
8
 71
3
 72
8
 73
4
 74
0
 40
0
 40
0
 40
0
 40
0
 40
1
 40
1
 40
1
 40
1
 10
28806.476973
 20
-13196.678381
 30
0.0
 10
28783.162571
 20
-13210.138957
 30
0.0
 10
28768.800307
 20
-13235.015128
 30
0.0
 10
28768.800307
 20
-13261.936282
 30
0.0
  0
LWPOLYLINE
  5
27a
100
AcDbEntity
  8
0
 62
7
100
AcDbPolyline
 90
2
 70
0
 10
28919.224751
 20
-13261.936282
 30
0.0
 10
28919.224751
 20
-13429.576282
 30
0.0
  0
LWPOLYLINE
  5
27b
100
AcDbEntity
  8
0
 62
7
100
AcDbPolyline
 90
2
 70
0
 10
29051.022529
 20
-13261.936282
 30
0.0
 10
29051.022529
 20
-13429.576282
 30
0.0
  0
SPLINE
  5
27c
100
AcDbEntity
  8
0
 62
7
100
AcDbSpline
 70
8
 71
3
 72
8
 73
4
 74
0
 40
0
 40
0
 40
0
 40
0
 40
1
 40
1
 40
1
 40
1
 10
29051.022529
 20
-13429.576282
 30
0.0
 10
29051.022529
 20
-13456.497435
 30
0.0
 10
29065.384793
 20
-13481.373606
 30
0.0
 10
29088.699196
 20
-13494.834182
 30
0.0
  0
SPLINE
  5
27d
100
AcDbEntity
  8
0
 62
7
100
AcDbSpline
 70
8
 71
3
 72
8
 73
4
 74
0
 40
0
 40
0
 40
0
 40
0
 40
1
 40
1
 40
1
 40
1
 10
29088.699196
 20
-13494.834182
 30
0.0
 10
29112.013598
 20
-13508.294759
 30
0.0
 10
29140.738126
 20
-13508.294759
 30
0.0
 10
29164.052529
 20
-13494.834182
 30
0.0
  0
SPLINE
  5
27e
100
AcDbEntity
  8
0
 62
7
100
AcDbSpline
 70
8
 71
3
 72
8
 73
4
 74
0
 40
0
 40
0
 40
0
 40
0
 40
1
 40
1
 40
1
 40
1
 10
29164.052529
 20
-13494.834182
 30
0.0
 10
29187.366931
 20
-13481.373606
 30
0.0
 10
29201.729196
 20
-13456.497435
 30
0.0
 10
29201.729196
 20
-13429.576282
 30
0.0
  0
SPLINE
  5
27f
100
AcDbEntity
  8
0
 62
7
100
AcDbSpline
 70
8
 71
3
 72
8
 73
4
 74
0
 40
0
 40
0
 40
0
 40
0
 40
1
 40
1
 40
1
 40
1
 10
29201.729196
 20
-13261.936282
 30
0.0
 10
29201.729196
 20
-13235.015128
 30
0.0
 10
29187.366931
 20
-13210.138957
 30
0.0
 10
29164.052529
 20
-13196.678381
 30
0.0
  0
SPLINE
  5
280
100
AcDbEntity
  8
0
 62
7
100
AcDbSpline
 70
8
 71
3
 72
8
 73
4
 74
0
 40
0
 40
0
 40
0
 40
0
 40
1
 40
1
 40
1
 40
1
 10
29164.052529
 20
-13196.678381
 30
0.0
 10
29140.738126
 20
-13183.217804
 30
0.0
 10
29112.013598
 20
-13183.217804
 30
0.0
 10
29088.699196
 20
-13196.678381
 30
0.0
  0
SPLINE
  5
281
100
AcDbEntity
  8
0
 62
7
100
AcDbSpline
 70
8
 71
3
 72
8
 73
4
 74
0
 40
0
 40
0
 40
0
 40
0
 40
1
 40
1
 40
1
 40
1
 10
29088.699196
 20
-13196.678381
 30
0.0
 10
29065.384793
 20
-13210.138957
 30
0.0
 10
29051.022529
 20
-13235.015128
 30
0.0
 10
29051.022529
 20
-13261.936282
 30
0.0
  0
LWPOLYLINE
  5
282
100
AcDbEntity
  8
0
 62
7
100
AcDbPolyline
 90
2
 70
0
 10
29201.446973
 20
-13261.936282
 30
0.0
 10
29201.446973
 20
-13429.576282
 30
0.0
  0
LWPOLYLINE
  5
283
100
AcDbEntity
  8
0
 62
7
100
AcDbPolyline
 90
5
 70
0
 10
12687.298448
 20
-10180.125777
 30
0.0
 10
21301.680226
 20
-10180.125777
 30
0.0
 10
21301.680226
 20
-15176.870222
 30
0.0
 10
12687.298448
 20
-15176.870222
 30
0.0
 10
12687.298448
 20
-10180.125777
 30
0.0
  0
LWPOLYLINE
  5
284
100
AcDbEntity
  8
0
 62
7
100
AcDbPolyline
 90
2
 70
0
 10
16474.100063
 20
-11652.422948
 30
0.0
 10
16641.740063
 20
-11652.422948
 30
0.0
  0
LWPOLYLINE
  5
285
100
AcDbEntity
  8
0
 62
7
100
AcDbPolyline
 90
2
 70
0
 10
16474.100063
 20
-11370.200726
 30
0.0
 10
16641.740063
 20
-11370.200726
 30
0.0
  0
LWPOLYLINE
  5
286
100
AcDbEntity
  8
0
 62
7
100
AcDbPolyline
 90
2
 70
0
 10
16641.740063
 20
-12357.978504
 30
0.0
 10
16474.100063
 20
-12357.978504
 30
0.0
  0
LWPOLYLINE
  5
287
100
AcDbEntity
  8
0
 62
7
100
AcDbPolyline
 90
2
 70
0
 10
16641.740063
 20
-12640.200726
 30
0.0
 10
16474.100063
 20
-12640.200726
 30
0.0
  0
LWPOLYLINE
  5
288
100
AcDbEntity
  8
0
 62
7
100
AcDbPolyline
 90
2
 70
0
 10
16641.740063
 20
-12922.422948
 30
0.0
 10
16474.100063
 20
-12922.422948
 30
0.0
  0
LWPOLYLINE
  5
289
100
AcDbEntity
  8
0
 62
7
100
AcDbPolyline
 90
2
 70
0
 10
15287.920063
 20
-11736.242948
 30
0.0
 10
15287.920063
 20
-11568.602948
 30
0.0
  0
LWPOLYLINE
  5
28a
100
AcDbEntity
  8
0
 62
7
100
AcDbPolyline
 90
2
 70
0
 10
15005.697841
 20
-11736.242948
 30
0.0
 10
15005.697841
 20
-11568.602948
 30
0.0
  0
LWPOLYLINE
  5
28b
100
AcDbEntity
  8
0
 62
7
100
AcDbPolyline
 90
2
 70
0
 10
14723.475619
 20
-11736.242948
 30
0.0
 10
14723.475619
 20
-11568.602948
 30
0.0
  0
LWPOLYLINE
  5
28c
100
AcDbEntity
  8
0
 62
7
100
AcDbPolyline
 90
2
 70
0
 10
18674.586730
 20
-13261.936282
 30
0.0
 10
18674.586730
 20
-13429.576282
 30
0.0
  0
LWPOLYLINE
  5
28d
100
AcDbEntity
  8
0
 62
7
100
AcDbPolyline
 90
2
 70
0
 10
18956.808952
 20
-13261.936282
 30
0.0
 10
18956.808952
 20
-13429.576282
 30
0.0
  0
LWPOLYLINE
  5
28e
100
AcDbEntity
  8
0
 62
7
100
AcDbPolyline
 90
2
 70
0
 10
19239.031174
 20
-13261.936282
 30
0.0
 10
19239.031174
 20
-13429.576282
 30
0.0
  0
LWPOLYLINE
  5
28f
100
AcDbEntity
  8
0
 62
7
100
AcDbPolyline
 90
5
 70
0
 10
2375.500569
 20
-10151.166419
 30
0.0
 10
10989.882347
 20
-10151.166419
 30
0.0
 10
10989.882347
 20
-15147.910863
 30
0.0
 10
2375.500569
 20
-15147.910863
 30
0.0
 10
2375.500569
 20
-10151.166419
 30
0.0
  0
LWPOLYLINE
  5
290
100
AcDbEntity
  8
0
 62
7
100
AcDbPolyline
 90
11
 70
0
 10
9982.462184
 20
-12315.754701
 30
0.0
 10
9815.668851
 20
-12315.754701
 30
0.0
 10
9815.668851
 20
-12421.588034
 30
0.0
 10
9823.571073
 20
-12448.116923
 30
0.0
 10
9831.473296
 20
-12461.099145
 30
0.0
 10
9847.277740
 20
-12474.363590
 30
0.0
 10
9871.266629
 20
-12474.363590
 30
0.0
 10
9887.071073
 20
-12461.099145
 30
0.0
 10
9894.973296
 20
-12448.116923
 30
0.0
 10
9902.875518
 20
-12421.588034
 30
0.0
 10
9902.875518
 20
-12315.754701
 30
0.0
  0
LWPOLYLINE
  5
291
100
AcDbEntity
  8
0
 62
7
100
AcDbPolyline
 90
2
 70
0
 10
9871.266629
 20
-12712.559145
 30
0.0
 10
9982.462184
 20
-12712.559145
 30
0.0
  0
LWPOLYLINE
  5
292
100
AcDbEntity
  8
0
 62
7
100
AcDbPolyline
 90
7
 70
0
 10
9871.266629
 20
-12593.461368
 30
0.0
 10
9958.473296
 20
-12593.461368
 30
0.0
 10
9974.277740
 20
-12606.725812
 30
0.0
 10
9982.462184
 20
-12633.254701
 30
0.0
 10
9982.462184
 20
-12672.765812
 30
0.0
 10
9974.277740
 20
-12699.294701
 30
0.0
 10
9966.375518
 20
-12712.559145
 30
0.0
  0
LWPOLYLINE
  5
293
100
AcDbEntity
  8
0
 62
7
100
AcDbPolyline
 90
2
 70
0
 10
9871.266629
 20
-12844.921368
 30
0.0
 10
9982.462184
 20
-12844.921368
 30
0.0
  0
LWPOLYLINE
  5
294
100
AcDbEntity
  8
0
 62
7
100
AcDbPolyline
 90
7
 70
0
 10
9887.071073
 20
-12844.921368
 30
0.0
 10
9879.168851
 20
-12857.903590
 30
0.0
 10
9871.266629
 20
-12884.432479
 30
0.0
 10
9871.266629
 20
-12924.225812
 30
0.0
 10
9879.168851
 20
-12950.754701
 30
0.0
 10
9894.973296
 20
-12963.736923
 30
0.0
 10
9982.462184
 20
-12963.736923
 30
0.0
  0
LWPOLYLINE
  5
295
100
AcDbEntity
  8
0
 62
7
100
AcDbPolyline
 90
2
 70
0
 10
9982.462184
 20
-13096.099145
 30
0.0
 10
9815.668851
 20
-13096.099145
 30
0.0
  0
LWPOLYLINE
  5
296
100
AcDbEntity
  8
0
 62
7
100
AcDbPolyline
 90
2
 70
0
 10
9918.962184
 20
-13122.628034
 30
0.0
 10
9982.462184
 20
-13201.932479
 30
0.0
  0
LWPOLYLINE
  5
297
100
AcDbEntity
  8
0
 62
7
100
AcDbPolyline
 90
2
 70
0
 10
9871.266629
 20
-13201.932479
 30
0.0
 10
9934.766629
 20
-13096.099145
 30
0.0
  0
LWPOLYLINE
  5
298
100
AcDbEntity
  8
0
 62
7
100
AcDbPolyline
 90
2
 70
0
 10
3443.655518
 20
-12329.019145
 30
0.0
 10
3443.655518
 20
-12461.099145
 30
0.0
  0
LWPOLYLINE
  5
299
100
AcDbEntity
  8
0
 62
7
100
AcDbPolyline
 90
3
 70
0
 10
3491.351073
 20
-12302.490256
 30
0.0
 10
3324.557740
 20
-12395.059145
 30
0.0
 10
3491.351073
 20
-12487.628034
 30
0.0
  0
LWPOLYLINE
  5
29a
100
AcDbEntity
  8
0
 62
7
100
AcDbPolyline
 90
2
 70
0
 10
3380.155518
 20
-12540.685812
 30
0.0
 10
3380.155518
 20
-12646.519145
 30
0.0
  0
LWPOLYLINE
  5
29b
100
AcDbEntity
  8
0
 62
7
100
AcDbPolyline
 90
5
 70
0
 10
3324.557740
 20
-12580.196923
 30
0.0
 10
3467.362184
 20
-12580.196923
 30
0.0
 10
3483.166629
 20
-12593.461368
 30
0.0
 10
3491.351073
 20
-12619.990256
 30
0.0
 10
3491.351073
 20
-12646.519145
 30
0.0
  0
LWPOLYLINE
  5
29c
100
AcDbEntity
  8
0
 62
7
100
AcDbPolyline
 90
6
 70
0
 10
3491.351073
 20
-12857.903590
 30
0.0
 10
3403.862184
 20
-12857.903590
 30
0.0
 10
3388.057740
 20
-12844.921368
 30
0.0
 10
3380.155518
 20
-12818.392479
 30
0.0
 10
3380.155518
 20
-12765.334701
 30
0.0
 10
3388.057740
 20
-12739.088034
 30
0.0
  0
LWPOLYLINE
  5
29d
100
AcDbEntity
  8
0
 62
7
100
AcDbPolyline
 90
10
 70
0
 10
3483.166629
 20
-12857.903590
 30
0.0
 10
3491.351073
 20
-12831.656923
 30
0.0
 10
3491.351073
 20
-12765.334701
 30
0.0
 10
3483.166629
 20
-12739.088034
 30
0.0
 10
3467.362184
 20
-12725.823590
 30
0.0
 10
3451.557740
 20
-12725.823590
 30
0.0
 10
3435.753296
 20
-12739.088034
 30
0.0
 10
3427.851073
 20
-12765.334701
 30
0.0
 10
3427.851073
 20
-12831.656923
 30
0.0
 10
3419.666629
 20
-12857.903590
 30
0.0
  0
LWPOLYLINE
  5
29e
100
AcDbEntity
  8
0
 62
7
100
AcDbPolyline
 90
2
 70
0
 10
3491.351073
 20
-12990.265812
 30
0.0
 10
3380.155518
 20
-12990.265812
 30
0.0
  0
LWPOLYLINE
  5
29f
100
AcDbEntity
  8
0
 62
7
100
AcDbPolyline
 90
5
 70
0
 10
3411.764407
 20
-12990.265812
 30
0.0
 10
3395.959962
 20
-13003.530256
 30
0.0
 10
3388.057740
 20
-13016.794701
 30
0.0
 10
3380.155518
 20
-13043.323590
 30
0.0
 10
3380.155518
 20
-13069.570256
 30
0.0
  0
LWPOLYLINE
  5
2a0
100
AcDbEntity
  8
0
 62
7
100
AcDbPolyline
 90
2
 70
0
 10
3491.351073
 20
-13162.139145
 30
0.0
 10
3380.155518
 20
-13162.139145
 30
0.0
  0
LWPOLYLINE
  5
2a1
100
AcDbEntity
  8
0
 62
7
100
AcDbPolyline
 90
6
 70
0
 10
3324.557740
 20
-13162.139145
 30
0.0
 10
3332.459962
 20
-13149.156923
 30
0.0
 10
3340.362184
 20
-13162.139145
 30
0.0
 10
3332.459962
 20
-13175.403590
 30
0.0
 10
3324.557740
 20
-13162.139145
 30
0.0
 10
3340.362184
 20
-13162.139145
 30
0.0
  0
LWPOLYLINE
  5
2a2
100
AcDbEntity
  8
0
 62
7
100
AcDbPolyline
 90
2
 70
0
 10
6162.302184
 20
-11623.463590
 30
0.0
 10
6329.942184
 20
-11623.463590
 30
0.0
  0
LWPOLYLINE
  5
2a3
100
AcDbEntity
  8
0
 62
7
100
AcDbPolyline
 90
2
 70
0
 10
6162.302184
 20
-11341.241368
 30
0.0
 10
6329.942184
 20
-11341.241368
 30
0.0
  0
LWPOLYLINE
  5
2a4
100
AcDbEntity
  8
0
 62
7
100
AcDbPolyline
 90
2
 70
0
 10
6329.942184
 20
-12329.019145
 30
0.0
 10
6162.302184
 20
-12329.019145
 30
0.0
  0
LWPOLYLINE
  5
2a5
100
AcDbEntity
  8
0
 62
7
100
AcDbPolyline
 90
2
 70
0
 10
6329.942184
 20
-12611.241368
 30
0.0
 10
6162.302184
 20
-12611.241368
 30
0.0
  0
LWPOLYLINE
  5
2a6
100
AcDbEntity
  8
0
 62
7
100
AcDbPolyline
 90
2
 70
0
 10
6329.942184
 20
-12893.463590
 30
0.0
 10
6162.302184
 20
-12893.463590
 30
0.0
  0
LWPOLYLINE
  5
2a7
100
AcDbEntity
  8
0
 62
7
100
AcDbPolyline
 90
2
 70
0
 10
4976.122184
 20
-11707.283590
 30
0.0
 10
4976.122184
 20
-11539.643590
 30
0.0
  0
LWPOLYLINE
  5
2a8
100
AcDbEntity
  8
0
 62
7
100
AcDbPolyline
 90
2
 70
0
 10
4693.899962
 20
-11707.283590
 30
0.0
 10
4693.899962
 20
-11539.643590
 30
0.0
  0
LWPOLYLINE
  5
2a9
100
AcDbEntity
  8
0
 62
7
100
AcDbPolyline
 90
2
 70
0
 10
4411.677740
 20
-11707.283590
 30
0.0
 10
4411.677740
 20
-11539.643590
 30
0.0
  0
LWPOLYLINE
  5
2aa
100
AcDbEntity
  8
0
 62
7
100
AcDbPolyline
 90
2
 70
0
 10
8362.788851
 20
-13232.976923
 30
0.0
 10
8362.788851
 20
-13400.616923
 30
0.0
  0
LWPOLYLINE
  5
2ab
100
AcDbEntity
  8
0
 62
7
100
AcDbPolyline
 90
2
 70
0
 10
8645.011073
 20
-13232.976923
 30
0.0
 10
8645.011073
 20
-13400.616923
 30
0.0
  0
LWPOLYLINE
  5
2ac
100
AcDbEntity
  8
0
 62
7
100
AcDbPolyline
 90
2
 70
0
 10
8927.233296
 20
-13232.976923
 30
0.0
 10
8927.233296
 20
-13400.616923
 30
0.0
  0
LWPOLYLINE
  5
2ad
100
AcDbEntity
  8
0
 62
7
100
AcDbPolyline
 90
2
 70
0
 10
7375.011073
 20
-13740.130256
 30
0.0
 10
5681.677740
 20
-13740.130256
 30
0.0
  0
LWPOLYLINE
  5
2ae
100
AcDbEntity
  8
0
 62
7
100
AcDbPolyline
 90
2
 70
0
 10
5681.677740
 20
-12470.130256
 30
0.0
 10
5681.677740
 20
-13740.130256
 30
0.0
  0
LWPOLYLINE
  5
2af
100
AcDbEntity
  8
0
 62
7
100
AcDbPolyline
 90
2
 70
0
 10
7375.011073
 20
-13740.130256
 30
0.0
 10
7375.011073
 20
-12893.463590
 30
0.0
  0
LWPOLYLINE
  5
2b0
100
AcDbEntity
  8
0
 62
7
100
AcDbPolyline
 90
2
 70
0
 10
7798.344407
 20
-12893.463590
 30
0.0
 10
7375.011073
 20
-12893.463590
 30
0.0
  0
LWPOLYLINE
  5
2b1
100
AcDbEntity
  8
0
 62
7
100
AcDbPolyline
 90
2
 70
0
 10
5681.677740
 20
-12470.130256
 30
0.0
 10
5258.344407
 20
-12470.130256
 30
0.0
  0
LWPOLYLINE
  5
2b2
100
AcDbEntity
  8
0
 62
7
100
AcDbPolyline
 90
2
 70
0
 10
7798.344407
 20
-12611.241368
 30
0.0
 10
8362.788851
 20
-12329.019145
 30
0.0
  0
LWPOLYLINE
  5
2b3
100
AcDbEntity
  8
0
 62
7
100
AcDbPolyline
 90
2
 70
0
 10
6246.122184
 20
-11341.241368
 30
0.0
 10
9068.344407
 20
-11341.241368
 30
0.0
  0
LWPOLYLINE
  5
2b4
100
AcDbEntity
  8
0
 62
7
100
AcDbPolyline
 90
3
 70
0
 10
8362.788851
 20
-13316.796923
 30
0.0
 10
7939.455518
 20
-13316.796923
 30
0.0
 10
7798.344407
 20
-13175.685812
 30
0.0
  0
LWPOLYLINE
  5
2b5
100
AcDbEntity
  8
0
 62
7
100
AcDbPolyline
 90
2
 70
0
 10
7516.122184
 20
-14022.352479
 30
0.0
 10
7516.122184
 20
-14304.574701
 30
0.0
  0
LWPOLYLINE
  5
2b6
100
AcDbEntity
  8
0
 62
7
100
AcDbPolyline
 90
2
 70
0
 10
8362.788851
 20
-14304.574701
 30
0.0
 10
8362.788851
 20
-14022.352479
 30
0.0
  0
LWPOLYLINE
  5
2b7
100
AcDbEntity
  8
0
 62
7
100
AcDbPolyline
 90
2
 70
0
 10
5258.344407
 20
-14022.352479
 30
0.0
 10
5258.344407
 20
-13034.574701
 30
0.0
  0
LWPOLYLINE
  5
2b8
100
AcDbEntity
  8
0
 62
7
100
AcDbPolyline
 90
2
 70
0
 10
9350.566629
 20
-11341.241368
 30
0.0
 10
9350.566629
 20
-14304.574701
 30
0.0
  0
LWPOLYLINE
  5
2b9
100
AcDbEntity
  8
0
 62
7
100
AcDbPolyline
 90
2
 70
0
 10
5258.344407
 20
-14304.574701
 30
0.0
 10
5258.344407
 20
-14022.352479
 30
0.0
  0
LWPOLYLINE
  5
2ba
100
AcDbEntity
  8
0
 62
7
100
AcDbPolyline
 90
4
 70
0
 10
9350.566629
 20
-14304.574701
 30
0.0
 10
8362.788851
 20
-14304.574701
 30
0.0
 10
7516.122184
 20
-14304.574701
 30
0.0
 10
5258.344407
 20
-14304.574701
 30
0.0
  0
LWPOLYLINE
  5
2bb
100
AcDbEntity
  8
0
 62
7
100
AcDbPolyline
 90
3
 70
0
 10
9350.566629
 20
-11341.241368
 30
0.0
 10
9350.566629
 20
-11623.463590
 30
0.0
 10
8080.566629
 20
-11623.463590
 30
0.0
  0
LWPOLYLINE
  5
2bc
100
AcDbEntity
  8
0
 62
7
100
AcDbPolyline
 90
3
 70
0
 10
8362.788851
 20
-14022.352479
 30
0.0
 10
8362.788851
 20
-13740.130256
 30
0.0
 10
7798.344407
 20
-13175.685812
 30
0.0
  0
LWPOLYLINE
  5
2bd
100
AcDbEntity
  8
0
 62
7
100
AcDbPolyline
 90
2
 70
0
 10
7939.455518
 20
-13316.796923
 30
0.0
 10
7798.344407
 20
-13175.685812
 30
0.0
  0
LWPOLYLINE
  5
2be
100
AcDbEntity
  8
0
 62
7
100
AcDbPolyline
 90
2
 70
0
 10
5258.344407
 20
-14022.352479
 30
0.0
 10
5258.344407
 20
-14022.352479
 30
0.0
  0
LWPOLYLINE
  5
2bf
100
AcDbEntity
  8
0
 62
7
100
AcDbPolyline
 90
2
 70
0
 10
4411.677740
 20
-11623.463590
 30
0.0
 10
4411.677740
 20
-11905.685812
 30
0.0
  0
LWPOLYLINE
  5
2c0
100
AcDbEntity
  8
0
 62
7
100
AcDbPolyline
 90
2
 70
0
 10
4835.011073
 20
-12329.019145
 30
0.0
 10
4411.677740
 20
-12752.352479
 30
0.0
  0
LWPOLYLINE
  5
2c1
100
AcDbEntity
  8
0
 62
7
100
AcDbPolyline
 90
2
 70
0
 10
4411.677740
 20
-11905.685812
 30
0.0
 10
4835.011073
 20
-12329.019145
 30
0.0
  0
LWPOLYLINE
  5
2c2
100
AcDbEntity
  8
0
 62
7
100
AcDbPolyline
 90
3
 70
0
 10
4411.677740
 20
-11623.463590
 30
0.0
 10
4411.677740
 20
-11764.574701
 30
0.0
 10
3988.344407
 20
-12187.908034
 30
0.0
  0
LWPOLYLINE
  5
2c3
100
AcDbEntity
  8
0
 62
7
100
AcDbPolyline
 90
2
 70
0
 10
6246.122184
 20
-12893.463590
 30
0.0
 10
6951.677740
 20
-12893.463590
 30
0.0
  0
LWPOLYLINE
  5
2c4
100
AcDbEntity
  8
0
 62
7
100
AcDbPolyline
 90
2
 70
0
 10
6246.122184
 20
-13457.908034
 30
0.0
 10
6246.122184
 20
-12893.463590
 30
0.0
  0
LWPOLYLINE
  5
2c5
100
AcDbEntity
  8
0
 62
7
100
AcDbPolyline
 90
2
 70
0
 10
6951.677740
 20
-12611.241368
 30
0.0
 10
6951.677740
 20
-12893.463590
 30
0.0
  0
LWPOLYLINE
  5
2c6
100
AcDbEntity
  8
0
 62
7
100
AcDbPolyline
 90
2
 70
0
 10
6246.122184
 20
-14022.352479
 30
0.0
 10
6951.677740
 20
-14022.352479
 30
0.0
  0
LWPOLYLINE
  5
2c7
100
AcDbEntity
  8
0
 62
7
100
AcDbPolyline
 90
2
 70
0
 10
3988.344407
 20
-13881.241368
 30
0.0
 10
4693.899962
 20
-14022.352479
 30
0.0
  0
LWPOLYLINE
  5
2c8
100
AcDbEntity
  8
0
 62
7
100
AcDbPolyline
 90
2
 70
0
 10
8645.011073
 20
-13316.796923
 30
0.0
 10
8645.011073
 20
-13599.019145
 30
0.0
  0
LWPOLYLINE
  5
2c9
100
AcDbEntity
  8
0
 62
7
100
AcDbPolyline
 90
2
 70
0
 10
8927.233296
 20
-13881.241368
 30
0.0
 10
8927.233296
 20
-14022.352479
 30
0.0
  0
LWPOLYLINE
  5
2ca
100
AcDbEntity
  8
0
 62
7
100
AcDbPolyline
 90
2
 70
0
 10
8645.011073
 20
-13599.019145
 30
0.0
 10
8927.233296
 20
-13881.241368
 30
0.0
  0
LWPOLYLINE
  5
2cb
100
AcDbEntity
  8
0
 62
7
100
AcDbPolyline
 90
2
 70
0
 10
8927.233296
 20
-14022.352479
 30
0.0
 10
8927.233296
 20
-14022.352479
 30
0.0
  0
LWPOLYLINE
  5
2cc
100
AcDbEntity
  8
0
 62
7
100
AcDbPolyline
 90
2
 70
0
 10
4411.677740
 20
-12470.130256
 30
0.0
 10
3988.344407
 20
-12470.130256
 30
0.0
  0
LWPOLYLINE
  5
2cd
100
AcDbEntity
  8
0
 62
7
100
AcDbPolyline
 90
2
 70
0
 10
3988.344407
 20
-13599.019145
 30
0.0
 10
3988.344407
 20
-12470.130256
 30
0.0
  0
LWPOLYLINE
  5
2ce
100
AcDbEntity
  8
0
 62
7
100
AcDbPolyline
 90
2
 70
0
 10
5258.344407
 20
-12752.352479
 30
0.0
 10
5117.233296
 20
-12752.352479
 30
0.0
  0
LWPOLYLINE
  5
2cf
100
AcDbEntity
  8
0
 62
7
100
AcDbPolyline
 90
2
 70
0
 10
3988.344407
 20
-13599.019145
 30
0.0
 10
3988.344407
 20
-13599.019145
 30
0.0
  0
LWPOLYLINE
  5
2d0
100
AcDbEntity
  8
0
 62
7
100
AcDbPolyline
 90
2
 70
0
 10
4835.011073
 20
-13599.019145
 30
0.0
 10
3988.344407
 20
-13599.019145
 30
0.0
  0
LWPOLYLINE
  5
2d1
100
AcDbEntity
  8
0
 62
7
100
AcDbPolyline
 90
2
 70
0
 10
4835.011073
 20
-13034.574701
 30
0.0
 10
4835.011073
 20
-13599.019145
 30
0.0
  0
LWPOLYLINE
  5
2d2
100
AcDbEntity
  8
0
 62
7
100
AcDbPolyline
 90
2
 70
0
 10
5117.233296
 20
-12752.352479
 30
0.0
 10
4835.011073
 20
-13034.574701
 30
0.0
  0
LWPOLYLINE
  5
2d3
100
AcDbEntity
  8
0
 62
7
100
AcDbPolyline
 90
2
 70
0
 10
8927.233296
 20
-12329.019145
 30
0.0
 10
8927.233296
 20
-13316.796923
 30
0.0
  0
LWPOLYLINE
  5
2d4
100
AcDbEntity
  8
0
 62
7
100
AcDbPolyline
 90
2
 70
0
 10
7375.011073
 20
-11623.463590
 30
0.0
 10
7798.344407
 20
-11623.463590
 30
0.0
  0
LWPOLYLINE
  5
2d5
100
AcDbEntity
  8
0
 62
7
100
AcDbPolyline
 90
2
 70
0
 10
4693.899962
 20
-11623.463590
 30
0.0
 10
4976.122184
 20
-11623.463590
 30
0.0
  0
LWPOLYLINE
  5
2d6
100
AcDbEntity
  8
0
 62
7
100
AcDbPolyline
 90
4
 70
0
 10
5258.344407
 20
-12187.908034
 30
0.0
 10
5258.344407
 20
-11905.685812
 30
0.0
 10
4976.122184
 20
-11623.463590
 30
0.0
 10
6246.122184
 20
-11623.463590
 30
0.0
  0
LWPOLYLINE
  5
2d7
100
AcDbEntity
  8
0
 62
7
100
AcDbPolyline
 90
3
 70
0
 10
6246.122184
 20
-12611.241368
 30
0.0
 10
6246.122184
 20
-12329.019145
 30
0.0
 10
6246.122184
 20
-11623.463590
 30
0.0
  0
LWPOLYLINE
  5
2d8
100
AcDbEntity
  8
0
 62
7
100
AcDbPolyline
 90
2
 70
0
 10
7092.788851
 20
-11623.463590
 30
0.0
 10
7798.344407
 20
-12329.019145
 30
0.0
  0
LWPOLYLINE
  5
2d9
100
AcDbEntity
  8
0
 62
7
100
AcDbPolyline
 90
2
 70
0
 10
6246.122184
 20
-11623.463590
 30
0.0
 10
7092.788851
 20
-11623.463590
 30
0.0
  0
LWPOLYLINE
  5
2da
100
AcDbEntity
  8
0
 62
7
100
AcDbPolyline
 90
2
 70
0
 10
6951.677740
 20
-13175.685812
 30
0.0
 10
7798.344407
 20
-12329.019145
 30
0.0
  0
LWPOLYLINE
  5
2db
100
AcDbEntity
  8
0
 62
7
100
AcDbPolyline
 90
2
 70
0
 10
5258.344407
 20
-12187.908034
 30
0.0
 10
4411.677740
 20
-13034.574701
 30
0.0
  0
ENDSEC
  0
SECTION
  2
OBJECTS
  0
DICTIONARY
  5
C
330
0
100
AcDbDictionary
  3
ACAD_GROUP
350
D
  3
ACAD_MLINESTYLE
350
17
  0
DICTIONARY
  5
D
330
C
100
AcDbDictionary
  0
DICTIONARY
  5
1A
330
C
100
AcDbDictionary
  0
DICTIONARY
  5
17
330
C
100
AcDbDictionary
  3
STANDARD
350
18
  0
DICTIONARY
  5
19
330
C
100
AcDbDictionary
  0
ENDSEC
  0
EOF
