<?xml version="1.0" standalone="no"?>
 <!DOCTYPE svg PUBLIC "-//W3C//DTD SVG 1.1//EN" 
 "http://www.w3.org/Graphics/SVG/1.1/DTD/svg11.dtd"> 
<svg xmlns="http://www.w3.org/2000/svg" version="1.1" 
    width="29.7002cm" height="21.0007cm" viewBox="0 0 116930 82680 ">
<title>SVG Picture created as atari punk-F_SilkS.svg date 2015/03/05 00:34:45 </title>
  <desc>Picture generated by PCBNEW </desc>
<g style="fill:#000000; fill-opacity:1;stroke:#000000; stroke-opacity:1;
stroke-linecap:round; stroke-linejoin:round; "
 transform="translate(0 0) scale(1 1)">
</g>
<g style="fill:#000000; fill-opacity:1.0; 
stroke:#000000; stroke-width:59.0551; stroke-opacity:1; 
stroke-linecap:round; stroke-linejoin:round;">
<rect x="42785.2" y="31283.2" width="30523.4" height="17705" rx="0" />
</g>
<g style="fill:#FFFFFF; fill-opacity:1.0; 
stroke:#FFFFFF; stroke-width:150; stroke-opacity:1; 
stroke-linecap:round; stroke-linejoin:round;">
<path d="M48500 39500
L48500 38500
" />
</g>
<g style="fill:#FFFFFF; fill-opacity:0.0; 
stroke:#FFFFFF; stroke-width:150; stroke-opacity:1; 
stroke-linecap:round; stroke-linejoin:round;">
<circle cx="48500" cy="39500" r="559.017" /> 
</g>
<g style="fill:#FFFFFF; fill-opacity:0.0; 
stroke:#FFFFFF; stroke-width:100; stroke-opacity:1; 
stroke-linecap:round; stroke-linejoin:round;">
<path d="M51000 42000
L51000 41500
" />
<path d="M51000 41500
L52000 41500
" />
<path d="M52000 41500
L52000 42000
" />
<path d="M50500 42000
L50500 38000
" />
<path d="M50500 38000
L52500 38000
" />
<path d="M52500 38000
L52500 42000
" />
<path d="M52500 42000
L50500 42000
" />
<path d="M60000 42500
L60000 42000
" />
<path d="M60000 42000
L61000 42000
" />
<path d="M61000 42000
L61000 42500
" />
<path d="M59500 42500
L59500 38500
" />
<path d="M59500 38500
L61500 38500
" />
<path d="M61500 38500
L61500 42500
" />
<path d="M61500 42500
L59500 42500
" />
<path d="M63220 37000
L63220 36000
" />
</g>
<g style="fill:#FFFFFF; fill-opacity:0.0; 
stroke:#FFFFFF; stroke-width:60; stroke-opacity:1; 
stroke-linecap:round; stroke-linejoin:round;">
<path d="M62139 36115.9 A600 600 0.0 0 0 62000 36500 " />
<path d="M62000.7 36500 A599.256 599.256 0.0 0 0 62151.9 36897.9 " />
<path d="M63199.3 36500 A599.27 599.27 0.0 0 0 63055 36110 " />
<path d="M63061 36884.1 A600 600 0.0 0 0 63200 36500 " />
<path d="M63087.9 36150.7 A600 600 0.0 0 0 62600 35900 " />
<path d="M62600 35900 A600 600 0.0 0 0 62120.2 36139.7 " />
<path d="M62600 37099.3 A599.294 599.294 0.0 0 0 63072.9 36868.1 " />
<path d="M62126.5 36868.6 A600 600 0.0 0 0 62600 37100 " />
<path d="M62600 36250 A250 250 0.0 0 0 62350 36500 " />
<path d="M62600 36100 A400 400 0.0 0 0 62200 36500 " />
<path d="M62600 36750 A250 250 0.0 0 0 62850 36500 " />
<path d="M62600 36900 A400 400 0.0 0 0 63000 36500 " />
</g>
<g style="fill:#FFFFFF; fill-opacity:0.0; 
stroke:#FFFFFF; stroke-width:100; stroke-opacity:1; 
stroke-linecap:round; stroke-linejoin:round;">
<path d="M63213.7 35986.8 A800 800 0.0 0 0 62600 35700 " />
<path d="M62600 35701 A799 799 0.0 0 0 61895.2 36123.7 " />
<path d="M62601.4 37299 A798.972 798.972 0.0 0 0 63210.3 37015.7 " />
<path d="M61905.8 36897.6 A800 800 0.0 0 0 62600 37300 " />
<path d="M61895.6 36120.7 A800 800 0.0 0 0 61800 36500 " />
<path d="M61800.4 36500 A799.576 799.576 0.0 0 0 61919 36919 " />
</g>
<g style="fill:#FFFFFF; fill-opacity:0.0; 
stroke:#FFFFFF; stroke-width:60; stroke-opacity:1; 
stroke-linecap:round; stroke-linejoin:round;">
<path d="M66500 44500
L66500 45500
" />
<path d="M66500 45500
L63500 45500
" />
<path d="M63500 45500
L63500 44500
" />
<path d="M63500 44500
L66500 44500
" />
<path d="M65500 45500
L65500 44500
" />
<path d="M50500 45500
L50500 44500
" />
<path d="M50500 44500
L53500 44500
" />
<path d="M53500 44500
L53500 45500
" />
<path d="M53500 45500
L50500 45500
" />
<path d="M51500 44500
L51500 45500
" />
</g>
<g style="fill:#FFFFFF; fill-opacity:0.0; 
stroke:#FFFFFF; stroke-width:120; stroke-opacity:1; 
stroke-linecap:round; stroke-linejoin:round;">
<path d="M49000 43020
L49000 45000
" />
<path d="M49000 45000
L48000 45000
" />
<path d="M48000 45000
L48000 43000
" />
<path d="M48000 43000
L49000 43000
" />
<path d="M48750 43000
L49000 43250
" />
<path d="M56900 42600
L56900 45400
" />
<path d="M56900 45400
L56100 45400
" />
<path d="M56100 45400
L56100 42600
" />
<path d="M56100 42600
L56900 42600
" />
<path d="M56700 42600
L56900 42800
" />
<circle cx="65000" cy="39000" r="1750" /> 
</g>
<g style="fill:#FFFFFF; fill-opacity:0.0; 
stroke:#FFFFFF; stroke-width:150; stroke-opacity:1; 
stroke-linecap:round; stroke-linejoin:round;">
<path d="M59500 36500
L60500 36500
" />
<circle cx="59500" cy="36500" r="559.017" /> 
</g>
<g style="fill:#FFFFFF; fill-opacity:0.0; 
stroke:#FFFFFF; stroke-width:100; stroke-opacity:1; 
stroke-linecap:round; stroke-linejoin:round;">
<path d="M56000 35000
L56000 37000
" />
<path d="M57750 35000
L57750 37000
" />
<path d="M55250 37000
L55250 35000
" />
<path d="M55250 37000
L57750 37000
" />
<path d="M55250 35000
L57750 35000
" />
</g>
<g style="fill:#FFFFFF; fill-opacity:0.0; 
stroke:#FFFFFF; stroke-width:60; stroke-opacity:1; 
stroke-linecap:round; stroke-linejoin:round;">
<path d="M68000 35000
L68000 36000
" />
<path d="M68000 36000
L66000 36000
" />
<path d="M66000 36000
L66000 35000
" />
<path d="M66000 35000
L68000 35000
" />
<path d="M58500 45500
L58500 44500
" />
<path d="M58500 44500
L61500 44500
" />
<path d="M61500 44500
L61500 45500
" />
<path d="M61500 45500
L58500 45500
" />
<path d="M59500 44500
L59500 45500
" />
</g>
<g style="fill:#FFFFFF; fill-opacity:0.0; 
stroke:#FFFFFF; stroke-width:100; stroke-opacity:1; 
stroke-linecap:round; stroke-linejoin:round;">
<path d="M57750 38500
L55250 38500
" />
<path d="M57750 41500
L55250 41500
" />
<path d="M57000 41500
L57000 38500
" />
<path d="M57750 38500
L57750 41500
" />
<path d="M55250 41500
L55250 38500
" />
<path d="M52500 37750
L52500 35250
" />
<path d="M49500 37750
L49500 35250
" />
<path d="M49500 37000
L52500 37000
" />
<path d="M52500 37750
L49500 37750
" />
<path d="M49500 35250
L52500 35250
" />
<path d="M63500 41250
L63500 43750
" />
<path d="M66500 41250
L66500 43750
" />
<path d="M66500 42000
L63500 42000
" />
<path d="M63500 41250
L66500 41250
" />
<path d="M66500 43750
L63500 43750
" />
</g>
<g style="fill:#FFFFFF; fill-opacity:0.0; 
stroke:#FFFFFF; stroke-width:150; stroke-opacity:1; 
stroke-linecap:round; stroke-linejoin:round;">
<circle cx="46500" cy="36000" r="900" /> 
<circle cx="46500" cy="45000" r="900" /> 
<circle cx="69500" cy="45000" r="900" /> 
<circle cx="69500" cy="36000" r="900" /> 
</g>
<g style="fill:#FFFFFF; fill-opacity:0.0; 
stroke:#FFFFFF; stroke-width:59.0551; stroke-opacity:1; 
stroke-linecap:round; stroke-linejoin:round;">
<circle cx="48500" cy="39500" r="245.472" /> 
<circle cx="48500" cy="38500" r="245.472" /> 
<polyline fill="none;"
points="53245,41745
52754,41745
52754,41254
53245,41254
53245,41745
" /> 
<circle cx="53000" cy="40500" r="245.472" /> 
<circle cx="53000" cy="39500" r="245.472" /> 
<circle cx="53000" cy="38500" r="245.472" /> 
<circle cx="50000" cy="38500" r="245.472" /> 
<circle cx="50000" cy="39500" r="245.472" /> 
<circle cx="50000" cy="40500" r="245.472" /> 
<circle cx="50000" cy="41500" r="245.472" /> 
<polyline fill="none;"
points="62245,42245
61754,42245
61754,41754
62245,41754
62245,42245
" /> 
<circle cx="62000" cy="41000" r="245.472" /> 
<circle cx="62000" cy="40000" r="245.472" /> 
<circle cx="62000" cy="39000" r="245.472" /> 
<circle cx="59000" cy="39000" r="245.472" /> 
<circle cx="59000" cy="40000" r="245.472" /> 
<circle cx="59000" cy="41000" r="245.472" /> 
<circle cx="59000" cy="42000" r="245.472" /> 
<circle cx="62000" cy="36500" r="300.472" /> 
<circle cx="63000" cy="36500" r="300.472" /> 
<polyline fill="none;"
points="66270,44729
66270,45270
65729,45270
65729,44729
66270,44729
" /> 
<circle cx="65000" cy="45000" r="270.472" /> 
<circle cx="64000" cy="45000" r="270.472" /> 
<polyline fill="none;"
points="50729,45270
50729,44729
51270,44729
51270,45270
50729,45270
" /> 
<circle cx="52000" cy="45000" r="270.472" /> 
<circle cx="53000" cy="45000" r="270.472" /> 
<circle cx="48500" cy="43500" r="245.472" /> 
<circle cx="48500" cy="44500" r="245.472" /> 
<circle cx="56500" cy="43000" r="245.472" /> 
<circle cx="56500" cy="45000" r="245.472" /> 
<polyline fill="none;"
points="63679,39320
63679,38679
64320,38679
64320,39320
63679,39320
" /> 
<circle cx="66000" cy="39000" r="320.472" /> 
<circle cx="59500" cy="36500" r="245.472" /> 
<circle cx="60500" cy="36500" r="245.472" /> 
<path d="M56203 36766
L56797 36766
" />
<path d="M56203 36233
L56797 36233
" />
<path d="M56797 36767 A266.972 266.972 0.0 0 0 56797 36233 " />
<path d="M56203 36233 A266.972 266.972 0.0 0 0 56203 36767 " />
<path d="M56203 35766
L56797 35766
" />
<path d="M56203 35233
L56797 35233
" />
<path d="M56797 35767 A266.972 266.972 0.0 0 0 56797 35233 " />
<path d="M56203 35233 A266.972 266.972 0.0 0 0 56203 35767 " />
<polyline fill="none;"
points="67770,35229
67770,35770
67229,35770
67229,35229
67770,35229
" /> 
<circle cx="66500" cy="35500" r="270.472" /> 
<polyline fill="none;"
points="58729,45270
58729,44729
59270,44729
59270,45270
58729,45270
" /> 
<circle cx="60000" cy="45000" r="270.472" /> 
<circle cx="61000" cy="45000" r="270.472" /> 
<path d="M56797 38733
L56203 38733
" />
<path d="M56797 39266
L56203 39266
" />
<path d="M56203 38733 A266.972 266.972 0.0 0 0 56203 39267 " />
<path d="M56797 39267 A266.972 266.972 0.0 0 0 56797 38733 " />
<path d="M56797 39733
L56203 39733
" />
<path d="M56797 40266
L56203 40266
" />
<path d="M56203 39733 A266.972 266.972 0.0 0 0 56203 40267 " />
<path d="M56797 40267 A266.972 266.972 0.0 0 0 56797 39733 " />
<path d="M56797 40733
L56203 40733
" />
<path d="M56797 41266
L56203 41266
" />
<path d="M56203 40733 A266.972 266.972 0.0 0 0 56203 41267 " />
<path d="M56797 41267 A266.972 266.972 0.0 0 0 56797 40733 " />
<path d="M52266 36797
L52266 36203
" />
<path d="M51733 36797
L51733 36203
" />
<path d="M52267 36203 A266.972 266.972 0.0 0 0 51733 36203 " />
<path d="M51733 36797 A266.972 266.972 0.0 0 0 52267 36797 " />
<path d="M51266 36797
L51266 36203
" />
<path d="M50733 36797
L50733 36203
" />
<path d="M51267 36203 A266.972 266.972 0.0 0 0 50733 36203 " />
<path d="M50733 36797 A266.972 266.972 0.0 0 0 51267 36797 " />
<path d="M50266 36797
L50266 36203
" />
<path d="M49733 36797
L49733 36203
" />
<path d="M50267 36203 A266.972 266.972 0.0 0 0 49733 36203 " />
<path d="M49733 36797 A266.972 266.972 0.0 0 0 50267 36797 " />
<path d="M63733 42203
L63733 42797
" />
<path d="M64266 42203
L64266 42797
" />
<path d="M63733 42797 A266.972 266.972 0.0 0 0 64267 42797 " />
<path d="M64267 42203 A266.972 266.972 0.0 0 0 63733 42203 " />
<path d="M64733 42203
L64733 42797
" />
<path d="M65266 42203
L65266 42797
" />
<path d="M64733 42797 A266.972 266.972 0.0 0 0 65267 42797 " />
<path d="M65267 42203 A266.972 266.972 0.0 0 0 64733 42203 " />
<path d="M65733 42203
L65733 42797
" />
<path d="M66266 42203
L66266 42797
" />
<path d="M65733 42797 A266.972 266.972 0.0 0 0 66267 42797 " />
<path d="M66267 42203 A266.972 266.972 0.0 0 0 65733 42203 " />
<circle cx="46500" cy="36000" r="770.472" /> 
<circle cx="46500" cy="45000" r="770.472" /> 
<circle cx="69500" cy="45000" r="770.472" /> 
<circle cx="69500" cy="36000" r="770.472" /> 
</g> 
</svg>
