<?xml version="1.0" standalone="no"?>
 <!DOCTYPE svg PUBLIC "-//W3C//DTD SVG 1.1//EN" 
 "http://www.w3.org/Graphics/SVG/1.1/DTD/svg11.dtd"> 
<svg xmlns="http://www.w3.org/2000/svg" version="1.1" 
    width="29.7002cm" height="21.0007cm" viewBox="0 0 116930 82680 ">
<title>SVG Picture created as atari punk-B_Cu.svg date 2015/03/05 00:34:45 </title>
  <desc>Picture generated by PCBNEW </desc>
<g style="fill:#000000; fill-opacity:1;stroke:#000000; stroke-opacity:1;
stroke-linecap:round; stroke-linejoin:round; "
 transform="translate(0 0) scale(1 1)">
</g>
<g style="fill:#000000; fill-opacity:1.0; 
stroke:#000000; stroke-width:59.0551; stroke-opacity:1; 
stroke-linecap:round; stroke-linejoin:round;">
<rect x="42785.2" y="31283.2" width="30523.4" height="17705" rx="0" />
</g>
<g style="fill:#FFFFFF; fill-opacity:0.0; 
stroke:#FFFFFF; stroke-width:118.11; stroke-opacity:1; 
stroke-linecap:round; stroke-linejoin:round;">
<path d="M69739 38953
L69148 38953
L69148 39328
L69176 39422
L69204 39468
L69260 39515
L69345 39515
L69401 39468
L69429 39422
L69457 39328
L69457 38953
" />
<path d="M69345 40359
L69739 40359
" />
<path d="M69345 39937
L69654 39937
L69710 39984
L69739 40078
L69739 40218
L69710 40312
L69682 40359
" />
<path d="M69345 40828
L69739 40828
" />
<path d="M69401 40828
L69373 40874
L69345 40968
L69345 41109
L69373 41203
L69429 41249
L69739 41249
" />
<path d="M69739 41718
L69148 41718
" />
<path d="M69514 41812
L69739 42093
" />
<path d="M69345 42093
L69570 41718
" />
<path d="M46570 39000
L46570 39468
" />
<path d="M46739 38906
L46148 39234
L46739 39562
" />
<path d="M46345 39750
L46345 40125
" />
<path d="M46148 39890
L46654 39890
L46710 39937
L46739 40031
L46739 40125
" />
<path d="M46739 40874
L46429 40874
L46373 40828
L46345 40734
L46345 40546
L46373 40453
" />
<path d="M46710 40874
L46739 40781
L46739 40546
L46710 40453
L46654 40406
L46598 40406
L46542 40453
L46514 40546
L46514 40781
L46485 40874
" />
<path d="M46739 41343
L46345 41343
" />
<path d="M46457 41343
L46401 41390
L46373 41437
L46345 41531
L46345 41624
" />
<path d="M46739 41952
L46345 41952
" />
<path d="M46148 41952
L46176 41906
L46204 41952
L46176 41999
L46148 41952
L46204 41952
" />
</g>
<g style="fill:#FFFFFF; fill-opacity:0.0; 
stroke:#FFFFFF; stroke-width:59.0551; stroke-opacity:1; 
stroke-linecap:round; stroke-linejoin:round;">
</g>
<g style="fill:#FFFFFF; fill-opacity:1.0; 
stroke:#FFFFFF; stroke-width:59.0551; stroke-opacity:1; 
stroke-linecap:round; stroke-linejoin:round;">
<circle cx="48500" cy="39500" r="245.472" /> 
<circle cx="48500" cy="38500" r="245.472" /> 
<polyline style="fill-rule:evenodd;"
points="53245,41745
52754,41745
52754,41254
53245,41254
53245,41745
" /> 
<circle cx="53000" cy="40500" r="245.472" /> 
<circle cx="53000" cy="39500" r="245.472" /> 
<circle cx="53000" cy="38500" r="245.472" /> 
<circle cx="50000" cy="38500" r="245.472" /> 
<circle cx="50000" cy="39500" r="245.472" /> 
<circle cx="50000" cy="40500" r="245.472" /> 
<circle cx="50000" cy="41500" r="245.472" /> 
<polyline style="fill-rule:evenodd;"
points="62245,42245
61754,42245
61754,41754
62245,41754
62245,42245
" /> 
<circle cx="62000" cy="41000" r="245.472" /> 
<circle cx="62000" cy="40000" r="245.472" /> 
<circle cx="62000" cy="39000" r="245.472" /> 
<circle cx="59000" cy="39000" r="245.472" /> 
<circle cx="59000" cy="40000" r="245.472" /> 
<circle cx="59000" cy="41000" r="245.472" /> 
<circle cx="59000" cy="42000" r="245.472" /> 
<circle cx="62000" cy="36500" r="300.472" /> 
<circle cx="63000" cy="36500" r="300.472" /> 
<polyline style="fill-rule:evenodd;"
points="66270,44729
66270,45270
65729,45270
65729,44729
66270,44729
" /> 
<circle cx="65000" cy="45000" r="270.472" /> 
<circle cx="64000" cy="45000" r="270.472" /> 
<polyline style="fill-rule:evenodd;"
points="50729,45270
50729,44729
51270,44729
51270,45270
50729,45270
" /> 
<circle cx="52000" cy="45000" r="270.472" /> 
<circle cx="53000" cy="45000" r="270.472" /> 
<circle cx="48500" cy="43500" r="245.472" /> 
<circle cx="48500" cy="44500" r="245.472" /> 
<circle cx="56500" cy="43000" r="245.472" /> 
<circle cx="56500" cy="45000" r="245.472" /> 
<polyline style="fill-rule:evenodd;"
points="63679,39320
63679,38679
64320,38679
64320,39320
63679,39320
" /> 
<circle cx="66000" cy="39000" r="320.472" /> 
<circle cx="59500" cy="36500" r="245.472" /> 
<circle cx="60500" cy="36500" r="245.472" /> 
</g>
<g style="fill:#FFFFFF; fill-opacity:1.0; 
stroke:#FFFFFF; stroke-width:593; stroke-opacity:1; 
stroke-linecap:round; stroke-linejoin:round;">
<path d="M56203 36500
L56797 36500
" />
<path d="M56203 35500
L56797 35500
" />
</g>
<g style="fill:#FFFFFF; fill-opacity:1.0; 
stroke:#FFFFFF; stroke-width:59.0551; stroke-opacity:1; 
stroke-linecap:round; stroke-linejoin:round;">
<polyline style="fill-rule:evenodd;"
points="67770,35229
67770,35770
67229,35770
67229,35229
67770,35229
" /> 
<circle cx="66500" cy="35500" r="270.472" /> 
<polyline style="fill-rule:evenodd;"
points="58729,45270
58729,44729
59270,44729
59270,45270
58729,45270
" /> 
<circle cx="60000" cy="45000" r="270.472" /> 
<circle cx="61000" cy="45000" r="270.472" /> 
</g>
<g style="fill:#FFFFFF; fill-opacity:1.0; 
stroke:#FFFFFF; stroke-width:593; stroke-opacity:1; 
stroke-linecap:round; stroke-linejoin:round;">
<path d="M56797 39000
L56203 39000
" />
<path d="M56797 40000
L56203 40000
" />
<path d="M56797 41000
L56203 41000
" />
<path d="M52000 36797
L52000 36203
" />
<path d="M51000 36797
L51000 36203
" />
<path d="M50000 36797
L50000 36203
" />
<path d="M64000 42203
L64000 42797
" />
<path d="M65000 42203
L65000 42797
" />
<path d="M66000 42203
L66000 42797
" />
</g>
<g style="fill:#FFFFFF; fill-opacity:1.0; 
stroke:#FFFFFF; stroke-width:59.0551; stroke-opacity:1; 
stroke-linecap:round; stroke-linejoin:round;">
<circle cx="46500" cy="36000" r="770.472" /> 
<circle cx="46500" cy="45000" r="770.472" /> 
<circle cx="69500" cy="45000" r="770.472" /> 
<circle cx="69500" cy="36000" r="770.472" /> 
</g>
<g style="fill:#FFFFFF; fill-opacity:1.0; 
stroke:#FFFFFF; stroke-width:100; stroke-opacity:1; 
stroke-linecap:round; stroke-linejoin:round;">
<path d="M60500 44000
L54500 44000
" />
<path d="M54500 39500
L54500 44000
" />
<path d="M60500 44000
L60500 41000
" />
<path d="M62000 41000
L60500 41000
" />
<path d="M54500 39500
L53000 39500
" />
<path d="M62000 40000
L64000 39000
" />
</g>
<g style="fill:#FFFFFF; fill-opacity:1.0; 
stroke:#FFFFFF; stroke-width:236.22; stroke-opacity:1; 
stroke-linecap:round; stroke-linejoin:round;">
<path d="M56500 35500
L66500 35500
" />
<path d="M64000 42500
L62500 42500
" />
<path d="M62500 42500
L62000 42000
" />
<path d="M61000 45000
L61000 46000
" />
<path d="M64000 46000
L64000 45000
" />
<path d="M53000 45000
L53000 41500
" />
<path d="M67500 35500
L67500 46000
" />
<path d="M53000 46000
L53000 45000
" />
<path d="M67500 46000
L64000 46000
" />
<path d="M64000 46000
L61000 46000
" />
<path d="M61000 46000
L53000 46000
" />
<path d="M67500 35500
L67500 36500
" />
<path d="M67500 36500
L63000 36500
" />
<path d="M64000 45000
L64000 44000
" />
<path d="M64000 44000
L62000 42000
" />
</g>
<g style="fill:#FFFFFF; fill-opacity:1.0; 
stroke:#FFFFFF; stroke-width:100; stroke-opacity:1; 
stroke-linecap:round; stroke-linejoin:round;">
<path d="M62500 42500
L62000 42000
" />
<path d="M53000 45000
L53000 45000
" />
<path d="M50000 36500
L50000 37500
" />
<path d="M51500 39000
L50000 40500
" />
<path d="M50000 37500
L51500 39000
" />
<path d="M50000 36500
L50000 37000
" />
<path d="M50000 37000
L48500 38500
" />
<path d="M56500 41000
L59000 41000
" />
<path d="M56500 43000
L56500 41000
" />
<path d="M59000 40000
L59000 41000
" />
<path d="M56500 45000
L59000 45000
" />
<path d="M48500 44500
L51000 45000
" />
<path d="M65000 42500
L65000 43500
" />
<path d="M66000 44500
L66000 45000
" />
<path d="M65000 43500
L66000 44500
" />
<path d="M66000 45000
L66000 45000
" />
<path d="M50000 39500
L48500 39500
" />
<path d="M48500 43500
L48500 39500
" />
<path d="M53000 40500
L52500 40500
" />
<path d="M48500 43500
L48500 43500
" />
<path d="M51500 43500
L48500 43500
" />
<path d="M51500 41500
L51500 43500
" />
<path d="M52500 40500
L51500 41500
" />
<path d="M66000 39000
L66000 42500
" />
<path d="M60500 36500
L62000 36500
" />
<path d="M51000 36500
L52000 36500
" />
<path d="M53000 38500
L53000 37500
" />
<path d="M53000 37500
L52000 36500
" />
<path d="M52000 36500
L56500 36500
" />
<path d="M56500 40000
L56500 39000
" />
<path d="M56500 39000
L56500 36500
" />
<path d="M59500 36500
L62000 39000
" />
<path d="M56500 36500
L59500 36500
" />
<path d="M59000 42000
L62000 39000
" />
<path d="M53000 38500
L50000 41500
" />
</g>
<g style="fill:#FFFFFF; fill-opacity:1.0; 
stroke:#FFFFFF; stroke-width:59.0551; stroke-opacity:1; 
stroke-linecap:round; stroke-linejoin:round;">
<polyline style="fill-rule:evenodd;"
points="70730,46730
70550,46730
70550,44792
70550,35792
70390,35406
70095,35110
69709,34950
69292,34949
68906,35109
68610,35404
68450,35790
68449,36207
68609,36594
68904,36889
69290,37049
69707,37050
70094,36890
70389,36595
70549,36209
70550,35792
70550,44792
70390,44406
70222,44237
70222,42590
70222,38409
68659,38409
68659,42590
70222,42590
70222,44237
70095,44110
69709,43950
69292,43949
68906,44109
68610,44404
68450,44790
68449,45207
68609,45594
68904,45889
69290,46049
69707,46050
70094,45890
70389,45595
70549,45209
70550,44792
70550,46730
68050,46730
68050,35750
68050,35249
68049,35150
68011,35058
67941,34987
67849,34949
67612,34950
67550,35012
67550,35450
67987,35450
68050,35387
68050,35249
68050,35750
68050,35612
67987,35550
67550,35550
67550,35987
67612,36050
67849,36050
67941,36012
68011,35941
68049,35849
68050,35750
68050,46730
67450,46730
67450,35987
67450,35550
67442,35550
67442,35450
67450,35450
67450,35012
67387,34950
67150,34949
67058,34987
66988,35058
66950,35150
66950,35172
66811,35034
66609,34950
66391,34949
66188,35033
66090,35131
57212,35131
57199,35113
57022,34995
56813,34953
56186,34953
55977,34995
55800,35113
55681,35290
55639,35500
55681,35709
55800,35886
55970,36000
55800,36113
55742,36200
52546,36200
52546,36186
52504,35977
52386,35800
52209,35681
52000,35639
51790,35681
51613,35800
51500,35970
51386,35800
51209,35681
51000,35639
50790,35681
50613,35800
50500,35970
50386,35800
50209,35681
50000,35639
49790,35681
49613,35800
49495,35977
49453,36186
49453,36813
49495,37022
49518,37057
48600,37975
48396,37974
48203,38054
48055,38202
47975,38395
47974,38603
48054,38797
48202,38944
48335,39000
48203,39054
48055,39202
47975,39395
47974,39603
48054,39797
48200,39942
48200,43057
48055,43202
47975,43395
47974,43603
48054,43797
48202,43944
48335,44000
48203,44054
48055,44202
47975,44395
47974,44603
48054,44797
48202,44944
48395,45024
48603,45025
48797,44945
48863,44878
50449,45195
50449,45349
50487,45441
50558,45511
50650,45549
50749,45550
51349,45550
51441,45512
51511,45441
51549,45349
51549,45327
51688,45465
51890,45549
52108,45550
52311,45466
52465,45311
52497,45236
52518,45287
52614,45315
52929,45000
52614,44684
52518,44712
52499,44767
52466,44688
52311,44534
52109,44450
51891,44449
51688,44533
51550,44672
51550,44650
51512,44558
51441,44488
51349,44450
51250,44449
50650,44449
50558,44487
50488,44558
50475,44588
48981,44290
48945,44203
48797,44055
48664,43999
48797,43945
48942,43800
51500,43800
51614,43777
51712,43712
51777,43614
51800,43500
51800,41624
52590,40833
52702,40944
52774,40974
52774,40974
52675,40975
52583,41013
52512,41083
52474,41175
52475,41387
52537,41450
52950,41450
52950,41442
53050,41442
53050,41450
53462,41450
53525,41387
53525,41175
53487,41083
53416,41013
53324,40975
53225,40974
53225,40974
53297,40945
53444,40797
53524,40604
53525,40396
53445,40203
53297,40055
53164,39999
53297,39945
53442,39800
54200,39800
54200,44000
54222,44114
54287,44212
54385,44277
54500,44300
60500,44300
60614,44277
60712,44212
60777,44114
60800,44000
60800,41300
61557,41300
61702,41444
61774,41474
61774,41474
61675,41475
61583,41513
61512,41583
61474,41675
61475,41887
61537,41950
61950,41950
61950,41942
62050,41942
62050,41950
62462,41950
62525,41887
62525,41675
62487,41583
62416,41513
62324,41475
62225,41474
62225,41474
62297,41445
62444,41297
62524,41104
62525,40896
62445,40703
62297,40555
62164,40499
62297,40445
62444,40297
62524,40104
62524,40072
63528,39570
63600,39599
63699,39600
64399,39600
64491,39562
64561,39491
64599,39399
64600,39300
64600,38600
64562,38508
64491,38438
64399,38400
64300,38399
63600,38399
63584,38406
63584,36588
63574,36358
63506,36194
63407,36163
63336,36233
63336,36092
63305,35993
63088,35915
62858,35925
62694,35993
62663,36092
63000,36429
63336,36092
63336,36233
63070,36500
63407,36836
63506,36805
63584,36588
63584,38406
63508,38437
63438,38508
63400,38600
63399,38699
63399,38963
63336,38995
63336,36907
63000,36570
62663,36907
62694,37006
62911,37084
63141,37074
63305,37006
63336,36907
63336,38995
62254,39537
62164,39499
62297,39445
62444,39297
62524,39104
62525,38896
62445,38703
62297,38555
62104,38475
61899,38474
60449,37024
60603,37025
60797,36945
60942,36800
61496,36800
61508,36828
61671,36991
61884,37079
62114,37080
62328,36991
62491,36828
62500,36807
62592,36836
62929,36500
62592,36163
62500,36192
62491,36171
62328,36008
62115,35920
61885,35919
61671,36008
61508,36171
61496,36200
60942,36200
60797,36055
60604,35975
60396,35974
60203,36054
60055,36202
59999,36335
59945,36203
59797,36055
59604,35975
59396,35974
59203,36054
59057,36200
57257,36200
57199,36113
57029,36000
57199,35886
57212,35868
66090,35868
66188,35965
66390,36049
66608,36050
66811,35966
66950,35827
66950,35849
66988,35941
67058,36012
67150,36050
67387,36050
67450,35987
67450,46730
66600,46730
66600,38881
66508,38660
66340,38491
66119,38400
65881,38399
65660,38491
65491,38659
65400,38880
65399,39118
65491,39339
65659,39508
65700,39525
65700,41742
65613,41800
65500,41970
65386,41800
65209,41681
65000,41639
64790,41681
64613,41800
64495,41977
64494,41978
64485,41947
64351,41781
64162,41678
64134,41673
64050,41721
64050,42450
64057,42450
64057,42550
64050,42550
64050,43278
64134,43326
64162,43321
64351,43218
64485,43052
64494,43021
64495,43022
64613,43199
64700,43257
64700,43500
64722,43614
64787,43712
65562,44486
65558,44487
65488,44558
65450,44650
65450,44672
65311,44534
65109,44450
64891,44449
64688,44533
64534,44688
64502,44763
64481,44712
64385,44684
64315,44755
64315,44614
64287,44518
64081,44445
63950,44451
63950,43278
63950,42550
63950,42450
63950,41721
63865,41673
63837,41678
63648,41781
63514,41947
63453,42153
63453,42450
63950,42450
63950,42550
63453,42550
63453,42847
63514,43052
63648,43218
63837,43321
63865,43326
63950,43278
63950,44451
63863,44456
63712,44518
63684,44614
64000,44929
64315,44614
64315,44755
64070,45000
64385,45315
64481,45287
64500,45232
64533,45311
64688,45465
64890,45549
65108,45550
65311,45466
65449,45327
65449,45349
65487,45441
65558,45511
65650,45549
65749,45550
66349,45550
66441,45512
66511,45441
66549,45349
66550,45250
66550,44650
66512,44558
66441,44488
66349,44450
66290,44449
66277,44385
66212,44287
66212,44287
65300,43375
65300,43257
65386,43199
65500,43029
65613,43199
65790,43318
66000,43360
66209,43318
66386,43199
66504,43022
66546,42813
66546,42186
66504,41977
66386,41800
66300,41742
66300,39525
66339,39508
66508,39340
66599,39119
66600,38881
66600,46730
64315,46730
64315,45385
64000,45070
63929,45141
63929,45000
63614,44684
63518,44712
63445,44918
63456,45136
63518,45287
63614,45315
63929,45000
63929,45141
63684,45385
63712,45481
63918,45554
64136,45543
64287,45481
64315,45385
64315,46730
62525,46730
62525,42324
62525,42112
62462,42050
62050,42050
62050,42462
62112,42525
62225,42525
62324,42524
62416,42486
62487,42416
62525,42324
62525,46730
61950,46730
61950,42462
61950,42050
61537,42050
61475,42112
61474,42324
61512,42416
61583,42486
61675,42524
61774,42525
61887,42525
61950,42462
61950,46730
61554,46730
61554,45081
61543,44863
61481,44712
61385,44684
61315,44755
61315,44614
61287,44518
61081,44445
60863,44456
60712,44518
60684,44614
61000,44929
61315,44614
61315,44755
61070,45000
61385,45315
61481,45287
61554,45081
61554,46730
61315,46730
61315,45385
61000,45070
60929,45141
60929,45000
60614,44684
60518,44712
60499,44767
60466,44688
60311,44534
60109,44450
59891,44449
59688,44533
59550,44672
59550,44650
59512,44558
59441,44488
59349,44450
59250,44449
58650,44449
58558,44487
58488,44558
58450,44650
58450,44700
56942,44700
56797,44555
56604,44475
56396,44474
56203,44554
56055,44702
55975,44895
55974,45103
56054,45297
56202,45444
56395,45524
56603,45525
56797,45445
56942,45300
58449,45300
58449,45349
58487,45441
58558,45511
58650,45549
58749,45550
59349,45550
59441,45512
59511,45441
59549,45349
59549,45327
59688,45465
59890,45549
60108,45550
60311,45466
60465,45311
60497,45236
60518,45287
60614,45315
60929,45000
60929,45141
60684,45385
60712,45481
60918,45554
61136,45543
61287,45481
61315,45385
61315,46730
53554,46730
53554,45081
53543,44863
53525,44817
53525,41824
53525,41612
53462,41550
53050,41550
53050,41962
53112,42025
53225,42025
53324,42024
53416,41986
53487,41916
53525,41824
53525,44817
53481,44712
53385,44684
53315,44755
53315,44614
53287,44518
53081,44445
52950,44451
52950,41962
52950,41550
52537,41550
52475,41612
52474,41824
52512,41916
52583,41986
52675,42024
52774,42025
52887,42025
52950,41962
52950,44451
52863,44456
52712,44518
52684,44614
53000,44929
53315,44614
53315,44755
53070,45000
53385,45315
53481,45287
53554,45081
53554,46730
53315,46730
53315,45385
53000,45070
52684,45385
52712,45481
52918,45554
53136,45543
53287,45481
53315,45385
53315,46730
47550,46730
47550,44792
47550,35792
47390,35406
47095,35110
46709,34950
46292,34949
45906,35109
45610,35404
45450,35790
45449,36207
45609,36594
45904,36889
46290,37049
46707,37050
47094,36890
47389,36595
47549,36209
47550,35792
47550,44792
47390,44406
47222,44237
47222,42496
47222,38503
45659,38503
45659,42496
47222,42496
47222,44237
47095,44110
46709,43950
46292,43949
45906,44109
45610,44404
45450,44790
45449,45207
45609,45594
45904,45889
46290,46049
46707,46050
47094,45890
47389,45595
47549,45209
47550,44792
47550,46730
45269,46730
45269,34269
70730,34269
70730,46730
" /> 
</g>
<g style="fill:#FFFFFF; fill-opacity:0.0; 
stroke:#FFFFFF; stroke-width:100; stroke-opacity:1; 
stroke-linecap:round; stroke-linejoin:round;">
<polyline fill="none;"
points="70730,46730
70550,46730
70550,44792
70550,35792
70390,35406
70095,35110
69709,34950
69292,34949
68906,35109
68610,35404
68450,35790
68449,36207
68609,36594
68904,36889
69290,37049
69707,37050
70094,36890
70389,36595
70549,36209
70550,35792
70550,44792
70390,44406
70222,44237
70222,42590
70222,38409
68659,38409
68659,42590
70222,42590
70222,44237
70095,44110
69709,43950
69292,43949
68906,44109
68610,44404
68450,44790
68449,45207
68609,45594
68904,45889
69290,46049
69707,46050
70094,45890
70389,45595
70549,45209
70550,44792
70550,46730
68050,46730
68050,35750
68050,35249
68049,35150
68011,35058
67941,34987
67849,34949
67612,34950
67550,35012
67550,35450
67987,35450
68050,35387
68050,35249
68050,35750
68050,35612
67987,35550
67550,35550
67550,35987
67612,36050
67849,36050
67941,36012
68011,35941
68049,35849
68050,35750
68050,46730
67450,46730
67450,35987
67450,35550
67442,35550
67442,35450
67450,35450
67450,35012
67387,34950
67150,34949
67058,34987
66988,35058
66950,35150
66950,35172
66811,35034
66609,34950
66391,34949
66188,35033
66090,35131
57212,35131
57199,35113
57022,34995
56813,34953
56186,34953
55977,34995
55800,35113
55681,35290
55639,35500
55681,35709
55800,35886
55970,36000
55800,36113
55742,36200
52546,36200
52546,36186
52504,35977
52386,35800
52209,35681
52000,35639
51790,35681
51613,35800
51500,35970
51386,35800
51209,35681
51000,35639
50790,35681
50613,35800
50500,35970
50386,35800
50209,35681
50000,35639
49790,35681
49613,35800
49495,35977
49453,36186
49453,36813
49495,37022
49518,37057
48600,37975
48396,37974
48203,38054
48055,38202
47975,38395
47974,38603
48054,38797
48202,38944
48335,39000
48203,39054
48055,39202
47975,39395
47974,39603
48054,39797
48200,39942
48200,43057
48055,43202
47975,43395
47974,43603
48054,43797
48202,43944
48335,44000
48203,44054
48055,44202
47975,44395
47974,44603
48054,44797
48202,44944
48395,45024
48603,45025
48797,44945
48863,44878
50449,45195
50449,45349
50487,45441
50558,45511
50650,45549
50749,45550
51349,45550
51441,45512
51511,45441
51549,45349
51549,45327
51688,45465
51890,45549
52108,45550
52311,45466
52465,45311
52497,45236
52518,45287
52614,45315
52929,45000
52614,44684
52518,44712
52499,44767
52466,44688
52311,44534
52109,44450
51891,44449
51688,44533
51550,44672
51550,44650
51512,44558
51441,44488
51349,44450
51250,44449
50650,44449
50558,44487
50488,44558
50475,44588
48981,44290
48945,44203
48797,44055
48664,43999
48797,43945
48942,43800
51500,43800
51614,43777
51712,43712
51777,43614
51800,43500
51800,41624
52590,40833
52702,40944
52774,40974
52774,40974
52675,40975
52583,41013
52512,41083
52474,41175
52475,41387
52537,41450
52950,41450
52950,41442
53050,41442
53050,41450
53462,41450
53525,41387
53525,41175
53487,41083
53416,41013
53324,40975
53225,40974
53225,40974
53297,40945
53444,40797
53524,40604
53525,40396
53445,40203
53297,40055
53164,39999
53297,39945
53442,39800
54200,39800
54200,44000
54222,44114
54287,44212
54385,44277
54500,44300
60500,44300
60614,44277
60712,44212
60777,44114
60800,44000
60800,41300
61557,41300
61702,41444
61774,41474
61774,41474
61675,41475
61583,41513
61512,41583
61474,41675
61475,41887
61537,41950
61950,41950
61950,41942
62050,41942
62050,41950
62462,41950
62525,41887
62525,41675
62487,41583
62416,41513
62324,41475
62225,41474
62225,41474
62297,41445
62444,41297
62524,41104
62525,40896
62445,40703
62297,40555
62164,40499
62297,40445
62444,40297
62524,40104
62524,40072
63528,39570
63600,39599
63699,39600
64399,39600
64491,39562
64561,39491
64599,39399
64600,39300
64600,38600
64562,38508
64491,38438
64399,38400
64300,38399
63600,38399
63584,38406
63584,36588
63574,36358
63506,36194
63407,36163
63336,36233
63336,36092
63305,35993
63088,35915
62858,35925
62694,35993
62663,36092
63000,36429
63336,36092
63336,36233
63070,36500
63407,36836
63506,36805
63584,36588
63584,38406
63508,38437
63438,38508
63400,38600
63399,38699
63399,38963
63336,38995
63336,36907
63000,36570
62663,36907
62694,37006
62911,37084
63141,37074
63305,37006
63336,36907
63336,38995
62254,39537
62164,39499
62297,39445
62444,39297
62524,39104
62525,38896
62445,38703
62297,38555
62104,38475
61899,38474
60449,37024
60603,37025
60797,36945
60942,36800
61496,36800
61508,36828
61671,36991
61884,37079
62114,37080
62328,36991
62491,36828
62500,36807
62592,36836
62929,36500
62592,36163
62500,36192
62491,36171
62328,36008
62115,35920
61885,35919
61671,36008
61508,36171
61496,36200
60942,36200
60797,36055
60604,35975
60396,35974
60203,36054
60055,36202
59999,36335
59945,36203
59797,36055
59604,35975
59396,35974
59203,36054
59057,36200
57257,36200
57199,36113
57029,36000
57199,35886
57212,35868
66090,35868
66188,35965
66390,36049
66608,36050
66811,35966
66950,35827
66950,35849
66988,35941
67058,36012
67150,36050
67387,36050
67450,35987
67450,46730
66600,46730
66600,38881
66508,38660
66340,38491
66119,38400
65881,38399
65660,38491
65491,38659
65400,38880
65399,39118
65491,39339
65659,39508
65700,39525
65700,41742
65613,41800
65500,41970
65386,41800
65209,41681
65000,41639
64790,41681
64613,41800
64495,41977
64494,41978
64485,41947
64351,41781
64162,41678
64134,41673
64050,41721
64050,42450
64057,42450
64057,42550
64050,42550
64050,43278
64134,43326
64162,43321
64351,43218
64485,43052
64494,43021
64495,43022
64613,43199
64700,43257
64700,43500
64722,43614
64787,43712
65562,44486
65558,44487
65488,44558
65450,44650
65450,44672
65311,44534
65109,44450
64891,44449
64688,44533
64534,44688
64502,44763
64481,44712
64385,44684
64315,44755
64315,44614
64287,44518
64081,44445
63950,44451
63950,43278
63950,42550
63950,42450
63950,41721
63865,41673
63837,41678
63648,41781
63514,41947
63453,42153
63453,42450
63950,42450
63950,42550
63453,42550
63453,42847
63514,43052
63648,43218
63837,43321
63865,43326
63950,43278
63950,44451
63863,44456
63712,44518
63684,44614
64000,44929
64315,44614
64315,44755
64070,45000
64385,45315
64481,45287
64500,45232
64533,45311
64688,45465
64890,45549
65108,45550
65311,45466
65449,45327
65449,45349
65487,45441
65558,45511
65650,45549
65749,45550
66349,45550
66441,45512
66511,45441
66549,45349
66550,45250
66550,44650
66512,44558
66441,44488
66349,44450
66290,44449
66277,44385
66212,44287
66212,44287
65300,43375
65300,43257
65386,43199
65500,43029
65613,43199
65790,43318
66000,43360
66209,43318
66386,43199
66504,43022
66546,42813
66546,42186
66504,41977
66386,41800
66300,41742
66300,39525
66339,39508
66508,39340
66599,39119
66600,38881
66600,46730
64315,46730
64315,45385
64000,45070
63929,45141
63929,45000
63614,44684
63518,44712
63445,44918
63456,45136
63518,45287
63614,45315
63929,45000
63929,45141
63684,45385
63712,45481
63918,45554
64136,45543
64287,45481
64315,45385
64315,46730
62525,46730
62525,42324
62525,42112
62462,42050
62050,42050
62050,42462
62112,42525
62225,42525
62324,42524
62416,42486
62487,42416
62525,42324
62525,46730
61950,46730
61950,42462
61950,42050
61537,42050
61475,42112
61474,42324
61512,42416
61583,42486
61675,42524
61774,42525
61887,42525
61950,42462
61950,46730
61554,46730
61554,45081
61543,44863
61481,44712
61385,44684
61315,44755
61315,44614
61287,44518
61081,44445
60863,44456
60712,44518
60684,44614
61000,44929
61315,44614
61315,44755
61070,45000
61385,45315
61481,45287
61554,45081
61554,46730
61315,46730
61315,45385
61000,45070
60929,45141
60929,45000
60614,44684
60518,44712
60499,44767
60466,44688
60311,44534
60109,44450
59891,44449
59688,44533
59550,44672
59550,44650
59512,44558
59441,44488
59349,44450
59250,44449
58650,44449
58558,44487
58488,44558
58450,44650
58450,44700
56942,44700
56797,44555
56604,44475
56396,44474
56203,44554
56055,44702
55975,44895
55974,45103
56054,45297
56202,45444
56395,45524
56603,45525
56797,45445
56942,45300
58449,45300
58449,45349
58487,45441
58558,45511
58650,45549
58749,45550
59349,45550
59441,45512
59511,45441
59549,45349
59549,45327
59688,45465
59890,45549
60108,45550
60311,45466
60465,45311
60497,45236
60518,45287
60614,45315
60929,45000
60929,45141
60684,45385
60712,45481
60918,45554
61136,45543
61287,45481
61315,45385
61315,46730
53554,46730
53554,45081
53543,44863
53525,44817
53525,41824
53525,41612
53462,41550
53050,41550
53050,41962
53112,42025
53225,42025
53324,42024
53416,41986
53487,41916
53525,41824
53525,44817
53481,44712
53385,44684
53315,44755
53315,44614
53287,44518
53081,44445
52950,44451
52950,41962
52950,41550
52537,41550
52475,41612
52474,41824
52512,41916
52583,41986
52675,42024
52774,42025
52887,42025
52950,41962
52950,44451
52863,44456
52712,44518
52684,44614
53000,44929
53315,44614
53315,44755
53070,45000
53385,45315
53481,45287
53554,45081
53554,46730
53315,46730
53315,45385
53000,45070
52684,45385
52712,45481
52918,45554
53136,45543
53287,45481
53315,45385
53315,46730
47550,46730
47550,44792
47550,35792
47390,35406
47095,35110
46709,34950
46292,34949
45906,35109
45610,35404
45450,35790
45449,36207
45609,36594
45904,36889
46290,37049
46707,37050
47094,36890
47389,36595
47549,36209
47550,35792
47550,44792
47390,44406
47222,44237
47222,42496
47222,38503
45659,38503
45659,42496
47222,42496
47222,44237
47095,44110
46709,43950
46292,43949
45906,44109
45610,44404
45450,44790
45449,45207
45609,45594
45904,45889
46290,46049
46707,46050
47094,45890
47389,45595
47549,45209
47550,44792
47550,46730
45269,46730
45269,34269
70730,34269
70730,46730
" /> 
</g>
<g style="fill:#000000; fill-opacity:0.0; 
stroke:#000000; stroke-width:59.0551; stroke-opacity:1; 
stroke-linecap:round; stroke-linejoin:round;">
</g>
<g style="fill:#000000; fill-opacity:1.0; 
stroke:#000000; stroke-width:59.0551; stroke-opacity:1; 
stroke-linecap:round; stroke-linejoin:round;">
<circle cx="48500" cy="39500" r="39.3701" /> 
<circle cx="48500" cy="38500" r="39.3701" /> 
<circle cx="53000" cy="41500" r="39.3701" /> 
<circle cx="53000" cy="40500" r="39.3701" /> 
<circle cx="53000" cy="39500" r="39.3701" /> 
<circle cx="53000" cy="38500" r="39.3701" /> 
<circle cx="50000" cy="38500" r="39.3701" /> 
<circle cx="50000" cy="39500" r="39.3701" /> 
<circle cx="50000" cy="40500" r="39.3701" /> 
<circle cx="50000" cy="41500" r="39.3701" /> 
<circle cx="62000" cy="42000" r="39.3701" /> 
<circle cx="62000" cy="41000" r="39.3701" /> 
<circle cx="62000" cy="40000" r="39.3701" /> 
<circle cx="62000" cy="39000" r="39.3701" /> 
<circle cx="59000" cy="39000" r="39.3701" /> 
<circle cx="59000" cy="40000" r="39.3701" /> 
<circle cx="59000" cy="41000" r="39.3701" /> 
<circle cx="59000" cy="42000" r="39.3701" /> 
<circle cx="62000" cy="36500" r="39.3701" /> 
<circle cx="63000" cy="36500" r="39.3701" /> 
<circle cx="66000" cy="45000" r="39.3701" /> 
<circle cx="65000" cy="45000" r="39.3701" /> 
<circle cx="64000" cy="45000" r="39.3701" /> 
<circle cx="51000" cy="45000" r="39.3701" /> 
<circle cx="52000" cy="45000" r="39.3701" /> 
<circle cx="53000" cy="45000" r="39.3701" /> 
<circle cx="48500" cy="43500" r="39.3701" /> 
<circle cx="48500" cy="44500" r="39.3701" /> 
<circle cx="56500" cy="43000" r="39.3701" /> 
<circle cx="56500" cy="45000" r="39.3701" /> 
<circle cx="64000" cy="39000" r="39.3701" /> 
<circle cx="66000" cy="39000" r="39.3701" /> 
<circle cx="59500" cy="36500" r="39.3701" /> 
<circle cx="60500" cy="36500" r="39.3701" /> 
<circle cx="56500" cy="36500" r="39.3701" /> 
<circle cx="56500" cy="35500" r="39.3701" /> 
<circle cx="67500" cy="35500" r="39.3701" /> 
<circle cx="66500" cy="35500" r="39.3701" /> 
<circle cx="59000" cy="45000" r="39.3701" /> 
<circle cx="60000" cy="45000" r="39.3701" /> 
<circle cx="61000" cy="45000" r="39.3701" /> 
<circle cx="56500" cy="39000" r="39.3701" /> 
<circle cx="56500" cy="40000" r="39.3701" /> 
<circle cx="56500" cy="41000" r="39.3701" /> 
<circle cx="52000" cy="36500" r="39.3701" /> 
<circle cx="51000" cy="36500" r="39.3701" /> 
<circle cx="50000" cy="36500" r="39.3701" /> 
<circle cx="64000" cy="42500" r="39.3701" /> 
<circle cx="65000" cy="42500" r="39.3701" /> 
<circle cx="66000" cy="42500" r="39.3701" /> 
<circle cx="46500" cy="36000" r="39.3701" /> 
<circle cx="46500" cy="45000" r="39.3701" /> 
<circle cx="69500" cy="45000" r="39.3701" /> 
<circle cx="69500" cy="36000" r="39.3701" /> 
</g> 
</svg>
