<?xml version="1.0" standalone="no"?>
 <!DOCTYPE svg PUBLIC "-//W3C//DTD SVG 1.1//EN" 
 "http://www.w3.org/Graphics/SVG/1.1/DTD/svg11.dtd"> 
<svg xmlns="http://www.w3.org/2000/svg" version="1.1" 
    width="29.7002cm" height="21.0007cm" viewBox="0 0 116930 82680 ">
<title>SVG Picture created as atari punk-F_SilkS.svg date 2015/02/21 23:21:10 </title>
  <desc>Picture generated by PCBNEW </desc>
<g style="fill:#000000; fill-opacity:1;stroke:#000000; stroke-opacity:1;
stroke-linecap:round; stroke-linejoin:round; "
 transform="translate(0 0) scale(1 1)">
</g>
<g style="fill:#000000; fill-opacity:0.0; 
stroke:#000000; stroke-width:150; stroke-opacity:1; 
stroke-linecap:round; stroke-linejoin:round;">
<path d="M48500 39500
L48500 38500
" />
<circle cx="48500" cy="39500" r="559.017" /> 
</g>
<g style="fill:#000000; fill-opacity:0.0; 
stroke:#000000; stroke-width:100; stroke-opacity:1; 
stroke-linecap:round; stroke-linejoin:round;">
<path d="M51000 42000
L51000 41500
" />
<path d="M51000 41500
L52000 41500
" />
<path d="M52000 41500
L52000 42000
" />
<path d="M50500 42000
L50500 38000
" />
<path d="M50500 38000
L52500 38000
" />
<path d="M52500 38000
L52500 42000
" />
<path d="M52500 42000
L50500 42000
" />
<path d="M60000 42500
L60000 42000
" />
<path d="M60000 42000
L61000 42000
" />
<path d="M61000 42000
L61000 42500
" />
<path d="M59500 42500
L59500 38500
" />
<path d="M59500 38500
L61500 38500
" />
<path d="M61500 38500
L61500 42500
" />
<path d="M61500 42500
L59500 42500
" />
<path d="M63220 37000
L63220 36000
" />
</g>
<g style="fill:#000000; fill-opacity:0.0; 
stroke:#000000; stroke-width:60; stroke-opacity:1; 
stroke-linecap:round; stroke-linejoin:round;">
<path d="M62139 36115.9 A600 600 0.0 0 0 62000 36500 " />
<path d="M62000.7 36500 A599.256 599.256 0.0 0 0 62151.9 36897.9 " />
<path d="M63199.3 36500 A599.27 599.27 0.0 0 0 63055 36110 " />
<path d="M63061 36884.1 A600 600 0.0 0 0 63200 36500 " />
<path d="M63087.9 36150.7 A600 600 0.0 0 0 62600 35900 " />
<path d="M62600 35900 A600 600 0.0 0 0 62120.2 36139.7 " />
<path d="M62600 37099.3 A599.294 599.294 0.0 0 0 63072.9 36868.1 " />
<path d="M62126.5 36868.6 A600 600 0.0 0 0 62600 37100 " />
<path d="M62600 36250 A250 250 0.0 0 0 62350 36500 " />
<path d="M62600 36100 A400 400 0.0 0 0 62200 36500 " />
<path d="M62600 36750 A250 250 0.0 0 0 62850 36500 " />
<path d="M62600 36900 A400 400 0.0 0 0 63000 36500 " />
</g>
<g style="fill:#000000; fill-opacity:0.0; 
stroke:#000000; stroke-width:100; stroke-opacity:1; 
stroke-linecap:round; stroke-linejoin:round;">
<path d="M63213.7 35986.8 A800 800 0.0 0 0 62600 35700 " />
<path d="M62600 35701 A799 799 0.0 0 0 61895.2 36123.7 " />
<path d="M62601.4 37299 A798.972 798.972 0.0 0 0 63210.3 37015.7 " />
<path d="M61905.8 36897.6 A800 800 0.0 0 0 62600 37300 " />
<path d="M61895.6 36120.7 A800 800 0.0 0 0 61800 36500 " />
<path d="M61800.4 36500 A799.576 799.576 0.0 0 0 61919 36919 " />
</g>
<g style="fill:#000000; fill-opacity:0.0; 
stroke:#000000; stroke-width:60; stroke-opacity:1; 
stroke-linecap:round; stroke-linejoin:round;">
<path d="M66500 44500
L66500 45500
" />
<path d="M66500 45500
L63500 45500
" />
<path d="M63500 45500
L63500 44500
" />
<path d="M63500 44500
L66500 44500
" />
<path d="M65500 45500
L65500 44500
" />
<path d="M50500 45500
L50500 44500
" />
<path d="M50500 44500
L53500 44500
" />
<path d="M53500 44500
L53500 45500
" />
<path d="M53500 45500
L50500 45500
" />
<path d="M51500 44500
L51500 45500
" />
</g>
<g style="fill:#000000; fill-opacity:0.0; 
stroke:#000000; stroke-width:120; stroke-opacity:1; 
stroke-linecap:round; stroke-linejoin:round;">
<path d="M49000 43020
L49000 45000
" />
<path d="M49000 45000
L48000 45000
" />
<path d="M48000 45000
L48000 43000
" />
<path d="M48000 43000
L49000 43000
" />
<path d="M48750 43000
L49000 43250
" />
<path d="M56900 42600
L56900 45400
" />
<path d="M56900 45400
L56100 45400
" />
<path d="M56100 45400
L56100 42600
" />
<path d="M56100 42600
L56900 42600
" />
<path d="M56700 42600
L56900 42800
" />
<circle cx="65000" cy="39000" r="1750" /> 
</g>
<g style="fill:#000000; fill-opacity:0.0; 
stroke:#000000; stroke-width:150; stroke-opacity:1; 
stroke-linecap:round; stroke-linejoin:round;">
<path d="M59500 36500
L60500 36500
" />
<circle cx="59500" cy="36500" r="559.017" /> 
</g>
<g style="fill:#000000; fill-opacity:0.0; 
stroke:#000000; stroke-width:100; stroke-opacity:1; 
stroke-linecap:round; stroke-linejoin:round;">
<path d="M56000 35000
L56000 37000
" />
<path d="M57750 35000
L57750 37000
" />
<path d="M55250 37000
L55250 35000
" />
<path d="M55250 37000
L57750 37000
" />
<path d="M55250 35000
L57750 35000
" />
</g>
<g style="fill:#000000; fill-opacity:0.0; 
stroke:#000000; stroke-width:60; stroke-opacity:1; 
stroke-linecap:round; stroke-linejoin:round;">
<path d="M68000 35000
L68000 36000
" />
<path d="M68000 36000
L66000 36000
" />
<path d="M66000 36000
L66000 35000
" />
<path d="M66000 35000
L68000 35000
" />
<path d="M58500 45500
L58500 44500
" />
<path d="M58500 44500
L61500 44500
" />
<path d="M61500 44500
L61500 45500
" />
<path d="M61500 45500
L58500 45500
" />
<path d="M59500 44500
L59500 45500
" />
</g>
<g style="fill:#000000; fill-opacity:0.0; 
stroke:#000000; stroke-width:100; stroke-opacity:1; 
stroke-linecap:round; stroke-linejoin:round;">
<path d="M57750 38500
L55250 38500
" />
<path d="M57750 41500
L55250 41500
" />
<path d="M57000 41500
L57000 38500
" />
<path d="M57750 38500
L57750 41500
" />
<path d="M55250 41500
L55250 38500
" />
<path d="M52500 37750
L52500 35250
" />
<path d="M49500 37750
L49500 35250
" />
<path d="M49500 37000
L52500 37000
" />
<path d="M52500 37750
L49500 37750
" />
<path d="M49500 35250
L52500 35250
" />
<path d="M63500 41250
L63500 43750
" />
<path d="M66500 41250
L66500 43750
" />
<path d="M66500 42000
L63500 42000
" />
<path d="M63500 41250
L66500 41250
" />
<path d="M66500 43750
L63500 43750
" />
</g>
<g style="fill:#000000; fill-opacity:0.0; 
stroke:#000000; stroke-width:150; stroke-opacity:1; 
stroke-linecap:round; stroke-linejoin:round;">
<circle cx="46500" cy="36000" r="900" /> 
<circle cx="46500" cy="45000" r="900" /> 
<circle cx="69500" cy="45000" r="900" /> 
<circle cx="69500" cy="36000" r="900" /> 
</g>
<g style="fill:#000000; fill-opacity:0.0; 
stroke:#000000; stroke-width:80; stroke-opacity:1; 
stroke-linecap:round; stroke-linejoin:round;">
<path d="M49722 39483
L49460 39650
" />
<path d="M49722 39769
L49172 39769
L49172 39578
L49198 39530
L49225 39507
L49277 39483
L49355 39483
L49408 39507
L49434 39530
L49460 39578
L49460 39769
" />
<path d="M49225 39292
L49198 39269
L49172 39221
L49172 39102
L49198 39054
L49225 39030
L49277 39007
L49329 39007
L49408 39030
L49722 39316
L49722 39007
" />
<path d="M51157 42202
L51157 42607
L51178 42654
L51200 42678
L51242 42702
L51328 42702
L51371 42678
L51392 42654
L51414 42607
L51414 42202
" />
<path d="M51864 42702
L51607 42702
" />
<path d="M51735 42702
L51735 42202
L51692 42273
L51650 42321
L51607 42345
" />
<path d="M51702 40885
L51702 41076
L51202 41076
" />
<path d="M51702 40752
L51202 40752
L51559 40619
L51202 40485
L51702 40485
" />
<path d="M51202 40104
L51202 40295
L51440 40314
L51416 40295
L51392 40257
L51392 40161
L51416 40123
L51440 40104
L51488 40085
L51607 40085
L51654 40104
L51678 40123
L51702 40161
L51702 40257
L51678 40295
L51654 40314
" />
<path d="M51202 39723
L51202 39914
L51440 39933
L51416 39914
L51392 39876
L51392 39780
L51416 39742
L51440 39723
L51488 39704
L51607 39704
L51654 39723
L51678 39742
L51702 39780
L51702 39876
L51678 39914
L51654 39933
" />
<path d="M51202 39342
L51202 39533
L51440 39552
L51416 39533
L51392 39495
L51392 39400
L51416 39361
L51440 39342
L51488 39323
L51607 39323
L51654 39342
L51678 39361
L51702 39400
L51702 39495
L51678 39533
L51654 39552
" />
<path d="M51702 39152
L51202 39152
L51702 38923
L51202 38923
" />
<path d="M60157 42702
L60157 43107
L60178 43154
L60200 43178
L60242 43202
L60328 43202
L60371 43178
L60392 43154
L60414 43107
L60414 42702
" />
<path d="M60607 42750
L60628 42726
L60671 42702
L60778 42702
L60821 42726
L60842 42750
L60864 42797
L60864 42845
L60842 42916
L60585 43202
L60864 43202
" />
<path d="M60702 41385
L60702 41576
L60202 41576
" />
<path d="M60702 41252
L60202 41252
L60559 41119
L60202 40985
L60702 40985
" />
<path d="M60202 40604
L60202 40795
L60440 40814
L60416 40795
L60392 40757
L60392 40661
L60416 40623
L60440 40604
L60488 40585
L60607 40585
L60654 40604
L60678 40623
L60702 40661
L60702 40757
L60678 40795
L60654 40814
" />
<path d="M60202 40223
L60202 40414
L60440 40433
L60416 40414
L60392 40376
L60392 40280
L60416 40242
L60440 40223
L60488 40204
L60607 40204
L60654 40223
L60678 40242
L60702 40280
L60702 40376
L60678 40414
L60654 40433
" />
<path d="M60202 39842
L60202 40033
L60440 40052
L60416 40033
L60392 39995
L60392 39900
L60416 39861
L60440 39842
L60488 39823
L60607 39823
L60654 39842
L60678 39861
L60702 39900
L60702 39995
L60678 40033
L60654 40052
" />
<path d="M60702 39652
L60202 39652
L60702 39423
L60202 39423
" />
</g>
<g style="fill:#000000; fill-opacity:0.0; 
stroke:#000000; stroke-width:35; stroke-opacity:1; 
stroke-linecap:round; stroke-linejoin:round;">
<path d="M62978 35521
L62978 35221
L63050 35221
L63092 35235
L63121 35264
L63135 35292
L63150 35350
L63150 35392
L63135 35450
L63121 35478
L63092 35507
L63050 35521
L62978 35521
" />
<path d="M63435 35521
L63264 35521
" />
<path d="M63350 35521
L63350 35221
L63321 35264
L63292 35292
L63264 35307
" />
<path d="M62307 37621
L62164 37621
L62164 37321
" />
<path d="M62407 37464
L62507 37464
" />
<path d="M62550 37621
L62407 37621
L62407 37321
L62550 37321
" />
<path d="M62678 37621
L62678 37321
L62750 37321
L62792 37335
L62821 37364
L62835 37392
L62850 37450
L62850 37492
L62835 37550
L62821 37578
L62792 37607
L62750 37621
L62678 37621
" />
</g>
<g style="fill:#000000; fill-opacity:0.0; 
stroke:#000000; stroke-width:60; stroke-opacity:1; 
stroke-linecap:round; stroke-linejoin:round;">
<path d="M64766 45611
L64766 45897
L64747 45954
L64709 45992
L64652 46011
L64614 46011
" />
<path d="M64919 45611
L65166 45611
L65033 45764
L65090 45764
L65128 45783
L65147 45802
L65166 45840
L65166 45935
L65147 45973
L65128 45992
L65090 46011
L64976 46011
L64938 45992
L64919 45973
" />
<path d="M51966 43911
L51966 44197
L51947 44254
L51909 44292
L51852 44311
L51814 44311
" />
<path d="M52366 44311
L52138 44311
" />
<path d="M52252 44311
L52252 43911
L52214 43969
L52176 44007
L52138 44026
" />
</g>
<g style="fill:#000000; fill-opacity:0.0; 
stroke:#000000; stroke-width:80; stroke-opacity:1; 
stroke-linecap:round; stroke-linejoin:round;">
<path d="M49523 44166
L49542 44185
L49561 44242
L49561 44280
L49542 44338
L49504 44376
L49466 44395
L49390 44414
L49333 44414
L49257 44395
L49219 44376
L49180 44338
L49161 44280
L49161 44242
L49180 44185
L49200 44166
" />
<path d="M49561 43785
L49561 44014
" />
<path d="M49561 43899
L49161 43899
L49219 43938
L49257 43976
L49276 44014
" />
<path d="M56623 44066
L56642 44085
L56661 44142
L56661 44180
L56642 44238
L56604 44276
L56566 44295
L56490 44314
L56433 44314
L56357 44295
L56319 44276
L56280 44238
L56261 44180
L56261 44142
L56280 44085
L56300 44066
" />
<path d="M56300 43914
L56280 43895
L56261 43857
L56261 43761
L56280 43723
L56300 43704
L56338 43685
L56376 43685
L56433 43704
L56661 43933
L56661 43685
" />
<path d="M64933 40123
L64914 40142
L64857 40161
L64819 40161
L64761 40142
L64723 40104
L64704 40066
L64685 39990
L64685 39933
L64704 39857
L64723 39819
L64761 39780
L64819 39761
L64857 39761
L64914 39780
L64933 39800
" />
<path d="M65066 39761
L65314 39761
L65180 39914
L65238 39914
L65276 39933
L65295 39952
L65314 39990
L65314 40085
L65295 40123
L65276 40142
L65238 40161
L65123 40161
L65085 40142
L65066 40123
" />
<path d="M64571 38161
L64342 38161
" />
<path d="M64457 38161
L64457 37761
L64419 37819
L64380 37857
L64342 37876
" />
<path d="M64819 37761
L64857 37761
L64895 37780
L64914 37800
L64933 37838
L64952 37914
L64952 38009
L64933 38085
L64914 38123
L64895 38142
L64857 38161
L64819 38161
L64780 38142
L64761 38123
L64742 38085
L64723 38009
L64723 37914
L64742 37838
L64761 37800
L64780 37780
L64819 37761
" />
<path d="M65295 37895
L65295 38161
" />
<path d="M65123 37895
L65123 38104
L65142 38142
L65180 38161
L65238 38161
L65276 38142
L65295 38123
" />
<path d="M65619 37952
L65485 37952
" />
<path d="M65485 38161
L65485 37761
L65676 37761
" />
<path d="M59516 37722
L59350 37460
" />
<path d="M59230 37722
L59230 37172
L59421 37172
L59469 37198
L59492 37225
L59516 37277
L59516 37355
L59492 37408
L59469 37434
L59421 37460
L59230 37460
" />
<path d="M59992 37722
L59707 37722
" />
<path d="M59850 37722
L59850 37172
L59802 37251
L59754 37303
L59707 37329
" />
</g>
<g style="fill:#000000; fill-opacity:0.0; 
stroke:#000000; stroke-width:47.2441; stroke-opacity:1; 
stroke-linecap:round; stroke-linejoin:round;">
<path d="M55077 36419
L55092 36374
L55092 36299
L55077 36269
L55062 36254
L55032 36239
L55002 36239
L54972 36254
L54957 36269
L54942 36299
L54927 36359
L54912 36389
L54897 36404
L54867 36419
L54837 36419
L54807 36404
L54792 36389
L54777 36359
L54777 36284
L54792 36239
" />
<path d="M54777 36134
L55092 36059
L54867 36000
L55092 35940
L54777 35865
" />
<path d="M55092 35580
L55092 35760
" />
<path d="M55092 35670
L54777 35670
L54822 35700
L54852 35730
L54867 35760
" />
<path d="M58127 37972
L57812 37972
L57812 37897
L57827 37852
L57857 37822
L57887 37807
L57947 37792
L57992 37792
L58052 37807
L58082 37822
L58112 37852
L58127 37897
L58127 37972
" />
<path d="M57812 37657
L58067 37657
L58097 37642
L58112 37627
L58127 37597
L58127 37537
L58112 37507
L58097 37492
L58067 37477
L57812 37477
" />
<path d="M58037 37342
L58037 37192
" />
<path d="M58127 37372
L57812 37267
L58127 37162
" />
<path d="M58127 36907
L58127 37057
L57812 37057
" />
<path d="M58157 36877
L58157 36637
" />
<path d="M58112 36577
L58127 36532
L58127 36457
L58112 36427
L58097 36412
L58067 36397
L58037 36397
L58007 36412
L57992 36427
L57977 36457
L57962 36517
L57947 36547
L57932 36562
L57902 36577
L57872 36577
L57842 36562
L57827 36547
L57812 36517
L57812 36442
L57827 36397
" />
<path d="M57812 36292
L58127 36217
L57902 36157
L58127 36097
L57812 36022
" />
<path d="M58127 35902
L57812 35902
" />
<path d="M57812 35797
L57812 35617
" />
<path d="M58127 35707
L57812 35707
" />
<path d="M58097 35332
L58112 35347
L58127 35392
L58127 35422
L58112 35467
L58082 35497
L58052 35512
L57992 35527
L57947 35527
L57887 35512
L57857 35497
L57827 35467
L57812 35422
L57812 35392
L57827 35347
L57842 35332
" />
<path d="M58127 35197
L57812 35197
" />
<path d="M57962 35197
L57962 35017
" />
<path d="M58127 35017
L57812 35017
" />
<path d="M58157 34942
L58157 34702
" />
<path d="M58127 34627
L57812 34627
" />
<path d="M58127 34477
L57812 34477
L58127 34297
L57812 34297
" />
<path d="M57812 34192
L58127 34087
L57812 33982
" />
</g>
<g style="fill:#000000; fill-opacity:0.0; 
stroke:#000000; stroke-width:60; stroke-opacity:1; 
stroke-linecap:round; stroke-linejoin:round;">
<path d="M66521 36371
L66521 36071
L66635 36071
L66664 36085
L66678 36100
L66692 36128
L66692 36171
L66678 36200
L66664 36214
L66635 36228
L66521 36228
" />
<path d="M66835 36371
L66892 36371
L66921 36357
L66935 36342
L66964 36300
L66978 36242
L66978 36128
L66964 36100
L66950 36085
L66921 36071
L66864 36071
L66835 36085
L66821 36100
L66807 36128
L66807 36200
L66821 36228
L66835 36242
L66864 36257
L66921 36257
L66950 36242
L66964 36228
L66978 36200
" />
<path d="M67078 36171
L67150 36371
L67221 36171
" />
<path d="M67492 36371
L67321 36371
" />
<path d="M67407 36371
L67407 36071
L67378 36114
L67350 36142
L67321 36157
" />
<path d="M59966 43911
L59966 44197
L59947 44254
L59909 44292
L59852 44311
L59814 44311
" />
<path d="M60138 43950
L60157 43930
L60195 43911
L60290 43911
L60328 43930
L60347 43950
L60366 43988
L60366 44026
L60347 44083
L60119 44311
L60366 44311
" />
</g>
<g style="fill:#000000; fill-opacity:0.0; 
stroke:#000000; stroke-width:47.2441; stroke-opacity:1; 
stroke-linecap:round; stroke-linejoin:round;">
<path d="M58123 40207
L57973 40312
" />
<path d="M58123 40387
L57808 40387
L57808 40267
L57823 40237
L57838 40222
L57868 40207
L57913 40207
L57943 40222
L57958 40237
L57973 40267
L57973 40387
" />
<path d="M57808 40117
L58123 40012
L57808 39907
" />
<path d="M57838 39817
L57823 39802
L57808 39772
L57808 39697
L57823 39667
L57838 39652
L57868 39637
L57898 39637
L57943 39652
L58123 39832
L58123 39637
" />
<path d="M54917 40367
L55127 40367
" />
<path d="M54797 40442
L55022 40517
L55022 40322
" />
<path d="M54812 40232
L54812 40022
L55127 40157
" />
<path d="M54812 39842
L54812 39812
L54827 39782
L54842 39767
L54872 39752
L54932 39737
L55007 39737
L55067 39752
L55097 39767
L55112 39782
L55127 39812
L55127 39842
L55112 39872
L55097 39887
L55067 39902
L55007 39917
L54932 39917
L54872 39902
L54842 39887
L54827 39872
L54812 39842
" />
<path d="M55127 39602
L54812 39602
" />
<path d="M55007 39572
L55127 39482
" />
<path d="M54917 39482
L55037 39602
" />
<path d="M50792 38123
L50687 37973
" />
<path d="M50612 38123
L50612 37808
L50732 37808
L50762 37823
L50777 37838
L50792 37868
L50792 37913
L50777 37943
L50762 37958
L50732 37973
L50612 37973
" />
<path d="M50882 37808
L50987 38123
L51092 37808
" />
<path d="M51362 38123
L51182 38123
" />
<path d="M51272 38123
L51272 37808
L51242 37853
L51212 37883
L51182 37898
" />
<path d="M50632 34917
L50632 35127
" />
<path d="M50557 34797
L50482 35022
L50677 35022
" />
<path d="M50767 34812
L50977 34812
L50842 35127
" />
<path d="M51157 34812
L51187 34812
L51217 34827
L51232 34842
L51247 34872
L51262 34932
L51262 35007
L51247 35067
L51232 35097
L51217 35112
L51187 35127
L51157 35127
L51127 35112
L51112 35097
L51097 35067
L51082 35007
L51082 34932
L51097 34872
L51112 34842
L51127 34827
L51157 34812
" />
<path d="M51397 35127
L51397 34812
" />
<path d="M51427 35007
L51517 35127
" />
<path d="M51517 34917
L51397 35037
" />
<path d="M64832 41131
L64727 40981
" />
<path d="M64652 41131
L64652 40816
L64772 40816
L64802 40831
L64817 40846
L64832 40876
L64832 40921
L64817 40951
L64802 40966
L64772 40981
L64652 40981
" />
<path d="M64922 40816
L65027 41131
L65132 40816
" />
<path d="M65207 40816
L65402 40816
L65297 40936
L65342 40936
L65372 40951
L65387 40966
L65402 40996
L65402 41071
L65387 41101
L65372 41116
L65342 41131
L65252 41131
L65222 41116
L65207 41101
" />
<path d="M64662 44127
L64482 44127
" />
<path d="M64572 44127
L64572 43812
L64542 43857
L64512 43887
L64482 43902
" />
<path d="M64857 43812
L64887 43812
L64917 43827
L64932 43842
L64947 43872
L64962 43932
L64962 44007
L64947 44067
L64932 44097
L64917 44112
L64887 44127
L64857 44127
L64827 44112
L64812 44097
L64797 44067
L64782 44007
L64782 43932
L64797 43872
L64812 43842
L64827 43827
L64857 43812
" />
<path d="M65157 43812
L65187 43812
L65217 43827
L65232 43842
L65247 43872
L65262 43932
L65262 44007
L65247 44067
L65232 44097
L65217 44112
L65187 44127
L65157 44127
L65127 44112
L65112 44097
L65097 44067
L65082 44007
L65082 43932
L65097 43872
L65112 43842
L65127 43827
L65157 43812
" />
<path d="M65397 44127
L65397 43812
" />
<path d="M65427 44007
L65517 44127
" />
<path d="M65517 43917
L65397 44037
" />
</g>
<g style="fill:#000000; fill-opacity:0.0; 
stroke:#000000; stroke-width:100; stroke-opacity:1; 
stroke-linecap:round; stroke-linejoin:round;">
<path d="M46109 34961
L45880 34961
" />
<path d="M45995 34961
L45995 34561
L45957 34619
L45919 34657
L45880 34676
" />
<path d="M46280 34961
L46280 34561
L46433 34561
L46471 34580
L46490 34600
L46509 34638
L46509 34695
L46490 34733
L46471 34752
L46433 34771
L46280 34771
" />
<path d="M46680 34961
L46680 34561
" />
<path d="M46871 34961
L46871 34561
L47100 34961
L47100 34561
" />
<path d="M46109 43961
L45880 43961
" />
<path d="M45995 43961
L45995 43561
L45957 43619
L45919 43657
L45880 43676
" />
<path d="M46280 43961
L46280 43561
L46433 43561
L46471 43580
L46490 43600
L46509 43638
L46509 43695
L46490 43733
L46471 43752
L46433 43771
L46280 43771
" />
<path d="M46680 43961
L46680 43561
" />
<path d="M46871 43961
L46871 43561
L47100 43961
L47100 43561
" />
<path d="M69109 43961
L68880 43961
" />
<path d="M68995 43961
L68995 43561
L68957 43619
L68919 43657
L68880 43676
" />
<path d="M69280 43961
L69280 43561
L69433 43561
L69471 43580
L69490 43600
L69509 43638
L69509 43695
L69490 43733
L69471 43752
L69433 43771
L69280 43771
" />
<path d="M69680 43961
L69680 43561
" />
<path d="M69871 43961
L69871 43561
L70100 43961
L70100 43561
" />
<path d="M69109 34961
L68880 34961
" />
<path d="M68995 34961
L68995 34561
L68957 34619
L68919 34657
L68880 34676
" />
<path d="M69280 34961
L69280 34561
L69433 34561
L69471 34580
L69490 34600
L69509 34638
L69509 34695
L69490 34733
L69471 34752
L69433 34771
L69280 34771
" />
<path d="M69680 34961
L69680 34561
" />
<path d="M69871 34961
L69871 34561
L70100 34961
L70100 34561
" />
</g> 
</svg>
