<?xml version="1.0" standalone="no"?>
 <!DOCTYPE svg PUBLIC "-//W3C//DTD SVG 1.1//EN" 
 "http://www.w3.org/Graphics/SVG/1.1/DTD/svg11.dtd"> 
<svg xmlns="http://www.w3.org/2000/svg" version="1.1" 
    width="29.7002cm" height="21.0007cm" viewBox="0 0 116930 82680 ">
<title>SVG Picture created as atari punk-B_Cu.svg date 2015/02/21 23:21:10 </title>
  <desc>Picture generated by PCBNEW </desc>
<g style="fill:#000000; fill-opacity:1;stroke:#000000; stroke-opacity:1;
stroke-linecap:round; stroke-linejoin:round; "
 transform="translate(0 0) scale(1 1)">
</g>
<g style="fill:#000000; fill-opacity:0.0; 
stroke:#000000; stroke-width:118.11; stroke-opacity:1; 
stroke-linecap:round; stroke-linejoin:round;">
<path d="M69739 38953
L69148 38953
L69148 39328
L69176 39422
L69204 39468
L69260 39515
L69345 39515
L69401 39468
L69429 39422
L69457 39328
L69457 38953
" />
<path d="M69345 40359
L69739 40359
" />
<path d="M69345 39937
L69654 39937
L69710 39984
L69739 40078
L69739 40218
L69710 40312
L69682 40359
" />
<path d="M69345 40828
L69739 40828
" />
<path d="M69401 40828
L69373 40874
L69345 40968
L69345 41109
L69373 41203
L69429 41249
L69739 41249
" />
<path d="M69739 41718
L69148 41718
" />
<path d="M69514 41812
L69739 42093
" />
<path d="M69345 42093
L69570 41718
" />
<path d="M46570 39000
L46570 39468
" />
<path d="M46739 38906
L46148 39234
L46739 39562
" />
<path d="M46345 39750
L46345 40125
" />
<path d="M46148 39890
L46654 39890
L46710 39937
L46739 40031
L46739 40125
" />
<path d="M46739 40874
L46429 40874
L46373 40828
L46345 40734
L46345 40546
L46373 40453
" />
<path d="M46710 40874
L46739 40781
L46739 40546
L46710 40453
L46654 40406
L46598 40406
L46542 40453
L46514 40546
L46514 40781
L46485 40874
" />
<path d="M46739 41343
L46345 41343
" />
<path d="M46457 41343
L46401 41390
L46373 41437
L46345 41531
L46345 41624
" />
<path d="M46739 41952
L46345 41952
" />
<path d="M46148 41952
L46176 41906
L46204 41952
L46176 41999
L46148 41952
L46204 41952
" />
</g>
<g style="fill:#000000; fill-opacity:0.0; 
stroke:#000000; stroke-width:59.0551; stroke-opacity:1; 
stroke-linecap:round; stroke-linejoin:round;">
</g>
<g style="fill:#000000; fill-opacity:1.0; 
stroke:#000000; stroke-width:59.0551; stroke-opacity:1; 
stroke-linecap:round; stroke-linejoin:round;">
<circle cx="48500" cy="39500" r="245.472" /> 
<circle cx="48500" cy="38500" r="245.472" /> 
<polyline style="fill-rule:evenodd;"
points="53245,41745
52754,41745
52754,41254
53245,41254
53245,41745
" /> 
<circle cx="53000" cy="40500" r="245.472" /> 
<circle cx="53000" cy="39500" r="245.472" /> 
<circle cx="53000" cy="38500" r="245.472" /> 
<circle cx="50000" cy="38500" r="245.472" /> 
<circle cx="50000" cy="39500" r="245.472" /> 
<circle cx="50000" cy="40500" r="245.472" /> 
<circle cx="50000" cy="41500" r="245.472" /> 
<polyline style="fill-rule:evenodd;"
points="62245,42245
61754,42245
61754,41754
62245,41754
62245,42245
" /> 
<circle cx="62000" cy="41000" r="245.472" /> 
<circle cx="62000" cy="40000" r="245.472" /> 
<circle cx="62000" cy="39000" r="245.472" /> 
<circle cx="59000" cy="39000" r="245.472" /> 
<circle cx="59000" cy="40000" r="245.472" /> 
<circle cx="59000" cy="41000" r="245.472" /> 
<circle cx="59000" cy="42000" r="245.472" /> 
<circle cx="62000" cy="36500" r="300.472" /> 
<circle cx="63000" cy="36500" r="300.472" /> 
<polyline style="fill-rule:evenodd;"
points="66270,44729
66270,45270
65729,45270
65729,44729
66270,44729
" /> 
<circle cx="65000" cy="45000" r="270.472" /> 
<circle cx="64000" cy="45000" r="270.472" /> 
<polyline style="fill-rule:evenodd;"
points="50729,45270
50729,44729
51270,44729
51270,45270
50729,45270
" /> 
<circle cx="52000" cy="45000" r="270.472" /> 
<circle cx="53000" cy="45000" r="270.472" /> 
<circle cx="48500" cy="43500" r="245.472" /> 
<circle cx="48500" cy="44500" r="245.472" /> 
<circle cx="56500" cy="43000" r="245.472" /> 
<circle cx="56500" cy="45000" r="245.472" /> 
<polyline style="fill-rule:evenodd;"
points="63679,39320
63679,38679
64320,38679
64320,39320
63679,39320
" /> 
<circle cx="66000" cy="39000" r="320.472" /> 
<circle cx="59500" cy="36500" r="245.472" /> 
<circle cx="60500" cy="36500" r="245.472" /> 
</g>
<g style="fill:#000000; fill-opacity:1.0; 
stroke:#000000; stroke-width:593; stroke-opacity:1; 
stroke-linecap:round; stroke-linejoin:round;">
<path d="M56203 36500
L56797 36500
" />
<path d="M56203 35500
L56797 35500
" />
</g>
<g style="fill:#000000; fill-opacity:1.0; 
stroke:#000000; stroke-width:59.0551; stroke-opacity:1; 
stroke-linecap:round; stroke-linejoin:round;">
<polyline style="fill-rule:evenodd;"
points="67770,35229
67770,35770
67229,35770
67229,35229
67770,35229
" /> 
<circle cx="66500" cy="35500" r="270.472" /> 
<polyline style="fill-rule:evenodd;"
points="58729,45270
58729,44729
59270,44729
59270,45270
58729,45270
" /> 
<circle cx="60000" cy="45000" r="270.472" /> 
<circle cx="61000" cy="45000" r="270.472" /> 
</g>
<g style="fill:#000000; fill-opacity:1.0; 
stroke:#000000; stroke-width:593; stroke-opacity:1; 
stroke-linecap:round; stroke-linejoin:round;">
<path d="M56797 39000
L56203 39000
" />
<path d="M56797 40000
L56203 40000
" />
<path d="M56797 41000
L56203 41000
" />
<path d="M52000 36797
L52000 36203
" />
<path d="M51000 36797
L51000 36203
" />
<path d="M50000 36797
L50000 36203
" />
<path d="M64000 42203
L64000 42797
" />
<path d="M65000 42203
L65000 42797
" />
<path d="M66000 42203
L66000 42797
" />
</g>
<g style="fill:#000000; fill-opacity:1.0; 
stroke:#000000; stroke-width:59.0551; stroke-opacity:1; 
stroke-linecap:round; stroke-linejoin:round;">
<circle cx="46500" cy="36000" r="770.472" /> 
<circle cx="46500" cy="45000" r="770.472" /> 
<circle cx="69500" cy="45000" r="770.472" /> 
<circle cx="69500" cy="36000" r="770.472" /> 
</g>
<g style="fill:#000000; fill-opacity:1.0; 
stroke:#000000; stroke-width:100; stroke-opacity:1; 
stroke-linecap:round; stroke-linejoin:round;">
<path d="M60500 44000
L54500 44000
" />
<path d="M54500 39500
L54500 44000
" />
<path d="M60500 44000
L60500 41000
" />
<path d="M62000 41000
L60500 41000
" />
<path d="M54500 39500
L53000 39500
" />
<path d="M62000 40000
L64000 39000
" />
</g>
<g style="fill:#000000; fill-opacity:1.0; 
stroke:#000000; stroke-width:236.22; stroke-opacity:1; 
stroke-linecap:round; stroke-linejoin:round;">
<path d="M56500 35500
L66500 35500
" />
<path d="M64000 42500
L62500 42500
" />
<path d="M62500 42500
L62000 42000
" />
<path d="M61000 45000
L61000 46000
" />
<path d="M64000 46000
L64000 45000
" />
<path d="M53000 45000
L53000 41500
" />
<path d="M67500 35500
L67500 46000
" />
<path d="M53000 46000
L53000 45000
" />
<path d="M67500 46000
L64000 46000
" />
<path d="M64000 46000
L61000 46000
" />
<path d="M61000 46000
L53000 46000
" />
<path d="M67500 35500
L67500 36500
" />
<path d="M67500 36500
L63000 36500
" />
<path d="M64000 45000
L64000 44000
" />
<path d="M64000 44000
L62000 42000
" />
</g>
<g style="fill:#000000; fill-opacity:1.0; 
stroke:#000000; stroke-width:100; stroke-opacity:1; 
stroke-linecap:round; stroke-linejoin:round;">
<path d="M62500 42500
L62000 42000
" />
<path d="M53000 45000
L53000 45000
" />
<path d="M50000 36500
L50000 37500
" />
<path d="M51500 39000
L50000 40500
" />
<path d="M50000 37500
L51500 39000
" />
<path d="M50000 36500
L50000 37000
" />
<path d="M50000 37000
L48500 38500
" />
<path d="M56500 41000
L59000 41000
" />
<path d="M56500 43000
L56500 41000
" />
<path d="M59000 40000
L59000 41000
" />
<path d="M56500 45000
L59000 45000
" />
<path d="M48500 44500
L51000 45000
" />
<path d="M66000 45000
L66000 43500
" />
<path d="M66000 43500
L65000 42500
" />
<path d="M66000 45000
L66000 45000
" />
<path d="M50000 39500
L48500 39500
" />
<path d="M48500 43500
L48500 39500
" />
<path d="M53000 40500
L52500 40500
" />
<path d="M48500 43500
L48500 43500
" />
<path d="M51500 43500
L48500 43500
" />
<path d="M51500 41500
L51500 43500
" />
<path d="M52500 40500
L51500 41500
" />
<path d="M66000 39000
L66000 42500
" />
<path d="M60500 36500
L62000 36500
" />
<path d="M51000 36500
L52000 36500
" />
<path d="M53000 38500
L53000 37500
" />
<path d="M53000 37500
L52000 36500
" />
<path d="M52000 36500
L56500 36500
" />
<path d="M56500 40000
L56500 39000
" />
<path d="M56500 39000
L56500 36500
" />
<path d="M59500 36500
L62000 39000
" />
<path d="M56500 36500
L59500 36500
" />
<path d="M59000 42000
L62000 39000
" />
<path d="M53000 38500
L50000 41500
" />
</g> 
</svg>
