<?xml version="1.0" standalone="no"?>
 <!DOCTYPE svg PUBLIC "-//W3C//DTD SVG 1.1//EN" 
 "http://www.w3.org/Graphics/SVG/1.1/DTD/svg11.dtd"> 
<svg xmlns="http://www.w3.org/2000/svg" version="1.1" 
    width="29.7002cm" height="21.0007cm" viewBox="0 0 116930 82680 ">
<title>SVG Picture created as atari punk-F_Cu.svg date 2015/02/21 23:21:10 </title>
  <desc>Picture generated by PCBNEW </desc>
<g style="fill:#000000; fill-opacity:1;stroke:#000000; stroke-opacity:1;
stroke-linecap:round; stroke-linejoin:round; "
 transform="translate(0 0) scale(1 1)">
</g>
<g style="fill:#000000; fill-opacity:0.0; 
stroke:#000000; stroke-width:59.0551; stroke-opacity:1; 
stroke-linecap:round; stroke-linejoin:round;">
</g>
<g style="fill:#000000; fill-opacity:1.0; 
stroke:#000000; stroke-width:59.0551; stroke-opacity:1; 
stroke-linecap:round; stroke-linejoin:round;">
<circle cx="48500" cy="39500" r="245.472" /> 
<circle cx="48500" cy="38500" r="245.472" /> 
<polyline style="fill-rule:evenodd;"
points="53245,41745
52754,41745
52754,41254
53245,41254
53245,41745
" /> 
<circle cx="53000" cy="40500" r="245.472" /> 
<circle cx="53000" cy="39500" r="245.472" /> 
<circle cx="53000" cy="38500" r="245.472" /> 
<circle cx="50000" cy="38500" r="245.472" /> 
<circle cx="50000" cy="39500" r="245.472" /> 
<circle cx="50000" cy="40500" r="245.472" /> 
<circle cx="50000" cy="41500" r="245.472" /> 
<polyline style="fill-rule:evenodd;"
points="62245,42245
61754,42245
61754,41754
62245,41754
62245,42245
" /> 
<circle cx="62000" cy="41000" r="245.472" /> 
<circle cx="62000" cy="40000" r="245.472" /> 
<circle cx="62000" cy="39000" r="245.472" /> 
<circle cx="59000" cy="39000" r="245.472" /> 
<circle cx="59000" cy="40000" r="245.472" /> 
<circle cx="59000" cy="41000" r="245.472" /> 
<circle cx="59000" cy="42000" r="245.472" /> 
<circle cx="62000" cy="36500" r="300.472" /> 
<circle cx="63000" cy="36500" r="300.472" /> 
<polyline style="fill-rule:evenodd;"
points="66270,44729
66270,45270
65729,45270
65729,44729
66270,44729
" /> 
<circle cx="65000" cy="45000" r="270.472" /> 
<circle cx="64000" cy="45000" r="270.472" /> 
<polyline style="fill-rule:evenodd;"
points="50729,45270
50729,44729
51270,44729
51270,45270
50729,45270
" /> 
<circle cx="52000" cy="45000" r="270.472" /> 
<circle cx="53000" cy="45000" r="270.472" /> 
<circle cx="48500" cy="43500" r="245.472" /> 
<circle cx="48500" cy="44500" r="245.472" /> 
<circle cx="56500" cy="43000" r="245.472" /> 
<circle cx="56500" cy="45000" r="245.472" /> 
<polyline style="fill-rule:evenodd;"
points="63679,39320
63679,38679
64320,38679
64320,39320
63679,39320
" /> 
<circle cx="66000" cy="39000" r="320.472" /> 
<circle cx="59500" cy="36500" r="245.472" /> 
<circle cx="60500" cy="36500" r="245.472" /> 
</g>
<g style="fill:#000000; fill-opacity:1.0; 
stroke:#000000; stroke-width:593; stroke-opacity:1; 
stroke-linecap:round; stroke-linejoin:round;">
<path d="M56203 36500
L56797 36500
" />
<path d="M56203 35500
L56797 35500
" />
</g>
<g style="fill:#000000; fill-opacity:1.0; 
stroke:#000000; stroke-width:59.0551; stroke-opacity:1; 
stroke-linecap:round; stroke-linejoin:round;">
<polyline style="fill-rule:evenodd;"
points="67770,35229
67770,35770
67229,35770
67229,35229
67770,35229
" /> 
<circle cx="66500" cy="35500" r="270.472" /> 
<polyline style="fill-rule:evenodd;"
points="58729,45270
58729,44729
59270,44729
59270,45270
58729,45270
" /> 
<circle cx="60000" cy="45000" r="270.472" /> 
<circle cx="61000" cy="45000" r="270.472" /> 
</g>
<g style="fill:#000000; fill-opacity:1.0; 
stroke:#000000; stroke-width:593; stroke-opacity:1; 
stroke-linecap:round; stroke-linejoin:round;">
<path d="M56797 39000
L56203 39000
" />
<path d="M56797 40000
L56203 40000
" />
<path d="M56797 41000
L56203 41000
" />
<path d="M52000 36797
L52000 36203
" />
<path d="M51000 36797
L51000 36203
" />
<path d="M50000 36797
L50000 36203
" />
<path d="M64000 42203
L64000 42797
" />
<path d="M65000 42203
L65000 42797
" />
<path d="M66000 42203
L66000 42797
" />
</g>
<g style="fill:#000000; fill-opacity:1.0; 
stroke:#000000; stroke-width:59.0551; stroke-opacity:1; 
stroke-linecap:round; stroke-linejoin:round;">
<circle cx="46500" cy="36000" r="770.472" /> 
<circle cx="46500" cy="45000" r="770.472" /> 
<circle cx="69500" cy="45000" r="770.472" /> 
<circle cx="69500" cy="36000" r="770.472" /> 
</g> 
</svg>
