<?xml version="1.0" standalone="no"?>
 <!DOCTYPE svg PUBLIC "-//W3C//DTD SVG 1.1//EN" 
 "http://www.w3.org/Graphics/SVG/1.1/DTD/svg11.dtd"> 
<svg xmlns="http://www.w3.org/2000/svg" version="1.1" 
    width="29.7002cm" height="21.0007cm" viewBox="0 0 116930 82680 ">
<title>SVG Picture created as atari punk-B_Cu.svg date 2015/02/28 11:10:29 </title>
  <desc>Picture generated by PCBNEW </desc>
<g style="fill:#000000; fill-opacity:1;stroke:#000000; stroke-opacity:1;
stroke-linecap:round; stroke-linejoin:round; "
 transform="translate(0 0) scale(1 1)">
</g>
<g style="fill:#000000; fill-opacity:0.0; 
stroke:#000000; stroke-width:39.3701; stroke-opacity:1; 
stroke-linecap:round; stroke-linejoin:round;">
<path d="M4000 4000
L112930 4000
L112930 78680
L4000 78680
L4000 4000
" />
<path d="M4700 4700
L112230 4700
L112230 77980
L4700 77980
L4700 4700
" />
<path d="M25780 4000
L25780 4700
" />
<path d="M15032 4552
L14747 4552
" />
<path d="M14890 4552
L14890 4052
L14842 4123
L14794 4171
L14747 4195
" />
<path d="M25780 78680
L25780 77980
" />
<path d="M15032 78532
L14747 78532
" />
<path d="M14890 78532
L14890 78032
L14842 78103
L14794 78151
L14747 78175
" />
<path d="M47560 4000
L47560 4700
" />
<path d="M36527 4100
L36550 4076
L36598 4052
L36717 4052
L36765 4076
L36789 4100
L36812 4147
L36812 4195
L36789 4266
L36503 4552
L36812 4552
" />
<path d="M47560 78680
L47560 77980
" />
<path d="M36527 78080
L36550 78056
L36598 78032
L36717 78032
L36765 78056
L36789 78080
L36812 78127
L36812 78175
L36789 78246
L36503 78532
L36812 78532
" />
<path d="M69340 4000
L69340 4700
" />
<path d="M58283 4052
L58592 4052
L58426 4242
L58497 4242
L58545 4266
L58569 4290
L58592 4338
L58592 4457
L58569 4504
L58545 4528
L58497 4552
L58354 4552
L58307 4528
L58283 4504
" />
<path d="M69340 78680
L69340 77980
" />
<path d="M58283 78032
L58592 78032
L58426 78222
L58497 78222
L58545 78246
L58569 78270
L58592 78318
L58592 78437
L58569 78484
L58545 78508
L58497 78532
L58354 78532
L58307 78508
L58283 78484
" />
<path d="M91120 4000
L91120 4700
" />
<path d="M80325 4219
L80325 4552
" />
<path d="M80206 4028
L80087 4385
L80396 4385
" />
<path d="M91120 78680
L91120 77980
" />
<path d="M80325 78199
L80325 78532
" />
<path d="M80206 78008
L80087 78365
L80396 78365
" />
<path d="M102129 4052
L101890 4052
L101867 4290
L101890 4266
L101938 4242
L102057 4242
L102105 4266
L102129 4290
L102152 4338
L102152 4457
L102129 4504
L102105 4528
L102057 4552
L101938 4552
L101890 4528
L101867 4504
" />
<path d="M102129 78032
L101890 78032
L101867 78270
L101890 78246
L101938 78222
L102057 78222
L102105 78246
L102129 78270
L102152 78318
L102152 78437
L102129 78484
L102105 78508
L102057 78532
L101938 78532
L101890 78508
L101867 78484
" />
<path d="M4000 28890
L4700 28890
" />
<path d="M4230 16509
L4469 16509
" />
<path d="M4183 16652
L4350 16152
L4516 16652
" />
<path d="M112930 28890
L112230 28890
" />
<path d="M112460 16509
L112699 16509
" />
<path d="M112413 16652
L112580 16152
L112746 16652
" />
<path d="M4000 53780
L4700 53780
" />
<path d="M4385 41280
L4457 41304
L4480 41328
L4504 41375
L4504 41447
L4480 41494
L4457 41518
L4409 41542
L4219 41542
L4219 41042
L4385 41042
L4433 41066
L4457 41090
L4480 41137
L4480 41185
L4457 41232
L4433 41256
L4385 41280
L4219 41280
" />
<path d="M112930 53780
L112230 53780
" />
<path d="M112615 41280
L112687 41304
L112710 41328
L112734 41375
L112734 41447
L112710 41494
L112687 41518
L112639 41542
L112449 41542
L112449 41042
L112615 41042
L112663 41066
L112687 41090
L112710 41137
L112710 41185
L112687 41232
L112663 41256
L112615 41280
L112449 41280
" />
<path d="M4504 66384
L4480 66408
L4409 66432
L4361 66432
L4290 66408
L4242 66360
L4219 66313
L4195 66218
L4195 66146
L4219 66051
L4242 66003
L4290 65956
L4361 65932
L4409 65932
L4480 65956
L4504 65980
" />
<path d="M112734 66384
L112710 66408
L112639 66432
L112591 66432
L112520 66408
L112472 66360
L112449 66313
L112425 66218
L112425 66146
L112449 66051
L112472 66003
L112520 65956
L112591 65932
L112639 65932
L112710 65956
L112734 65980
" />
<path d="M79380 76422
L79455 75822
L79597 75822
L79680 75851
L79730 75908
L79751 75965
L79765 76080
L79755 76165
L79712 76280
L79676 76337
L79612 76394
L79522 76422
L79380 76422
" />
<path d="M80237 76422
L80276 76108
L80255 76051
L80201 76022
L80087 76022
L80026 76051
" />
<path d="M80240 76394
L80180 76422
L80037 76422
L79983 76394
L79962 76337
L79969 76280
L80005 76222
L80065 76194
L80208 76194
L80269 76165
" />
<path d="M80487 76022
L80715 76022
" />
<path d="M80597 75822
L80533 76337
L80555 76394
L80608 76422
L80665 76422
" />
<path d="M81097 76394
L81037 76422
L80922 76422
L80869 76394
L80847 76337
L80876 76108
L80912 76051
L80972 76022
L81087 76022
L81140 76051
L81162 76108
L81155 76165
L80862 76222
" />
<path d="M81387 76365
L81412 76394
L81380 76422
L81355 76394
L81387 76365
L81380 76422
" />
<path d="M81426 76051
L81451 76080
L81419 76108
L81394 76080
L81426 76051
L81419 76108
" />
<path d="M70972 77622
L70972 77022
" />
<path d="M71315 77622
L71058 77280
" />
<path d="M71315 77022
L70972 77365
" />
<path d="M71572 77622
L71572 77222
" />
<path d="M71572 77022
L71544 77051
L71572 77080
L71601 77051
L71572 77022
L71572 77080
" />
<path d="M72201 77565
L72172 77594
L72087 77622
L72030 77622
L71944 77594
L71887 77537
L71858 77480
L71830 77365
L71830 77280
L71858 77165
L71887 77108
L71944 77051
L72030 77022
L72087 77022
L72172 77051
L72201 77080
" />
<path d="M72715 77622
L72715 77308
L72687 77251
L72630 77222
L72515 77222
L72458 77251
" />
<path d="M72715 77594
L72658 77622
L72515 77622
L72458 77594
L72430 77537
L72430 77480
L72458 77422
L72515 77394
L72658 77394
L72715 77365
" />
<path d="M73258 77622
L73258 77022
" />
<path d="M73258 77594
L73201 77622
L73087 77622
L73030 77594
L73001 77565
L72972 77508
L72972 77337
L73001 77280
L73030 77251
L73087 77222
L73201 77222
L73258 77251
" />
<path d="M74001 77308
L74201 77308
" />
<path d="M74287 77622
L74001 77622
L74001 77022
L74287 77022
" />
<path d="M74544 77565
L74572 77594
L74544 77622
L74515 77594
L74544 77565
L74544 77622
" />
<path d="M74829 77622
L74829 77022
L74972 77022
L75058 77051
L75115 77108
L75144 77165
L75172 77280
L75172 77365
L75144 77480
L75115 77537
L75058 77594
L74972 77622
L74829 77622
" />
<path d="M75429 77565
L75458 77594
L75429 77622
L75401 77594
L75429 77565
L75429 77622
" />
<path d="M75687 77451
L75972 77451
" />
<path d="M75629 77622
L75829 77022
L76029 77622
" />
<path d="M76229 77565
L76258 77594
L76229 77622
L76201 77594
L76229 77565
L76229 77622
" />
<path d="M104522 76422
L104358 76137
" />
<path d="M104180 76422
L104255 75822
L104483 75822
L104537 75851
L104562 75880
L104583 75937
L104572 76022
L104537 76080
L104505 76108
L104444 76137
L104215 76137
" />
<path d="M105012 76394
L104951 76422
L104837 76422
L104783 76394
L104762 76337
L104790 76108
L104826 76051
L104887 76022
L105001 76022
L105055 76051
L105076 76108
L105069 76165
L104776 76222
" />
<path d="M105287 76022
L105380 76422
L105572 76022
" />
<path d="M105758 76365
L105783 76394
L105751 76422
L105726 76394
L105758 76365
L105751 76422
" />
<path d="M105797 76051
L105822 76080
L105790 76108
L105765 76080
L105797 76051
L105790 76108
" />
<path d="M106808 76422
L106465 76422
" />
<path d="M106637 76422
L106712 75822
L106644 75908
L106580 75965
L106519 75994
" />
<path d="M70944 76394
L71030 76422
L71172 76422
L71230 76394
L71258 76365
L71287 76308
L71287 76251
L71258 76194
L71230 76165
L71172 76137
L71058 76108
L71001 76080
L70972 76051
L70944 75994
L70944 75937
L70972 75880
L71001 75851
L71058 75822
L71201 75822
L71287 75851
" />
<path d="M71544 76422
L71544 76022
" />
<path d="M71544 75822
L71515 75851
L71544 75880
L71572 75851
L71544 75822
L71544 75880
" />
<path d="M71772 76022
L72087 76022
L71772 76422
L72087 76422
" />
<path d="M72544 76394
L72487 76422
L72372 76422
L72315 76394
L72287 76337
L72287 76108
L72315 76051
L72372 76022
L72487 76022
L72544 76051
L72572 76108
L72572 76165
L72287 76222
" />
<path d="M72830 76365
L72858 76394
L72830 76422
L72801 76394
L72830 76365
L72830 76422
" />
<path d="M72830 76051
L72858 76080
L72830 76108
L72801 76080
L72830 76051
L72830 76108
" />
<path d="M73544 76251
L73830 76251
" />
<path d="M73487 76422
L73687 75822
L73887 76422
" />
<path d="M74344 76022
L74344 76422
" />
<path d="M74201 75794
L74058 76222
L74430 76222
" />
<path d="M104172 77622
L104172 77022
" />
<path d="M104715 77622
L104715 77022
" />
<path d="M104715 77594
L104658 77622
L104544 77622
L104487 77594
L104458 77565
L104430 77508
L104430 77337
L104458 77280
L104487 77251
L104544 77222
L104658 77222
L104715 77251
" />
<path d="M105001 77565
L105030 77594
L105001 77622
L104972 77594
L105001 77565
L105001 77622
" />
<path d="M105001 77251
L105030 77280
L105001 77308
L104972 77280
L105001 77251
L105001 77308
" />
<path d="M106058 77622
L105715 77622
" />
<path d="M105887 77622
L105887 77022
L105829 77108
L105772 77165
L105715 77194
" />
<path d="M106744 76994
L106230 77765
" />
<path d="M107258 77622
L106915 77622
" />
<path d="M107087 77622
L107087 77022
L107029 77108
L106972 77165
L106915 77194
" />
<path d="M70969 74622
L71312 74622
" />
<path d="M71065 75222
L71140 74622
" />
<path d="M71437 75222
L71487 74822
" />
<path d="M71512 74622
L71480 74651
L71505 74680
L71537 74651
L71512 74622
L71505 74680
" />
<path d="M71687 74822
L71915 74822
" />
<path d="M71797 74622
L71733 75137
L71755 75194
L71808 75222
L71865 75222
" />
<path d="M72151 75222
L72097 75194
L72076 75137
L72140 74622
" />
<path d="M72612 75194
L72551 75222
L72437 75222
L72383 75194
L72362 75137
L72390 74908
L72426 74851
L72487 74822
L72601 74822
L72655 74851
L72676 74908
L72669 74965
L72376 75022
" />
<path d="M72901 75165
L72926 75194
L72894 75222
L72869 75194
L72901 75165
L72894 75222
" />
<path d="M72940 74851
L72965 74880
L72933 74908
L72908 74880
L72940 74851
L72933 74908
" />
<path d="M73894 75222
L73933 74908
L73912 74851
L73858 74822
L73744 74822
L73683 74851
" />
<path d="M73897 75194
L73837 75222
L73694 75222
L73640 75194
L73619 75137
L73626 75080
L73662 75022
L73722 74994
L73865 74994
L73926 74965
" />
<path d="M74144 74822
L74372 74822
" />
<path d="M74255 74622
L74190 75137
L74212 75194
L74265 75222
L74322 75222
" />
<path d="M74522 75222
L74572 74822
" />
<path d="M74558 74937
L74594 74880
L74626 74851
L74687 74822
L74744 74822
" />
<path d="M75151 75222
L75190 74908
L75169 74851
L75115 74822
L75001 74822
L74940 74851
" />
<path d="M75155 75194
L75094 75222
L74951 75222
L74897 75194
L74876 75137
L74883 75080
L74919 75022
L74980 74994
L75122 74994
L75183 74965
" />
<path d="M75437 75222
L75487 74822
" />
<path d="M75512 74622
L75480 74651
L75505 74680
L75537 74651
L75512 74622
L75505 74680
" />
<path d="M76230 74822
L76155 75422
" />
<path d="M76226 74851
L76287 74822
L76401 74822
L76455 74851
L76480 74880
L76501 74937
L76480 75108
L76444 75165
L76412 75194
L76351 75222
L76237 75222
L76183 75194
" />
<path d="M77030 74822
L76980 75222
" />
<path d="M76772 74822
L76733 75137
L76755 75194
L76808 75222
L76894 75222
L76955 75194
L76987 75165
" />
<path d="M77315 74822
L77265 75222
" />
<path d="M77308 74880
L77340 74851
L77401 74822
L77487 74822
L77540 74851
L77562 74908
L77522 75222
" />
<path d="M77808 75222
L77883 74622
" />
<path d="M77894 74994
L78037 75222
" />
<path d="M78087 74822
L77829 75051
" />
<path d="M71172 72508
L70972 72508
" />
<path d="M70972 72822
L70972 72222
L71258 72222
" />
<path d="M71487 72822
L71487 72422
" />
<path d="M71487 72222
L71458 72251
L71487 72280
L71515 72251
L71487 72222
L71487 72280
" />
<path d="M71858 72822
L71801 72794
L71772 72737
L71772 72222
" />
<path d="M72315 72794
L72258 72822
L72144 72822
L72087 72794
L72058 72737
L72058 72508
L72087 72451
L72144 72422
L72258 72422
L72315 72451
L72344 72508
L72344 72565
L72058 72622
" />
<path d="M72601 72765
L72630 72794
L72601 72822
L72572 72794
L72601 72765
L72601 72822
" />
<path d="M72601 72451
L72630 72480
L72601 72508
L72572 72480
L72601 72451
L72601 72508
" />
<path d="M73601 72822
L73601 72508
L73572 72451
L73515 72422
L73401 72422
L73344 72451
" />
<path d="M73601 72794
L73544 72822
L73401 72822
L73344 72794
L73315 72737
L73315 72680
L73344 72622
L73401 72594
L73544 72594
L73601 72565
" />
<path d="M73801 72422
L74030 72422
" />
<path d="M73887 72222
L73887 72737
L73915 72794
L73972 72822
L74030 72822
" />
<path d="M74487 72822
L74487 72508
L74458 72451
L74401 72422
L74287 72422
L74230 72451
" />
<path d="M74487 72794
L74430 72822
L74287 72822
L74230 72794
L74201 72737
L74201 72680
L74230 72622
L74287 72594
L74430 72594
L74487 72565
" />
<path d="M74772 72822
L74772 72422
" />
<path d="M74772 72537
L74801 72480
L74830 72451
L74887 72422
L74944 72422
" />
<path d="M75144 72822
L75144 72422
" />
<path d="M75144 72222
L75115 72251
L75144 72280
L75172 72251
L75144 72222
L75144 72280
" />
<path d="M75887 72422
L75887 73022
" />
<path d="M75887 72451
L75944 72422
L76058 72422
L76115 72451
L76144 72480
L76172 72537
L76172 72708
L76144 72765
L76115 72794
L76058 72822
L75944 72822
L75887 72794
" />
<path d="M76687 72422
L76687 72822
" />
<path d="M76430 72422
L76430 72737
L76458 72794
L76515 72822
L76601 72822
L76658 72794
L76687 72765
" />
<path d="M76972 72422
L76972 72822
" />
<path d="M76972 72480
L77001 72451
L77058 72422
L77144 72422
L77201 72451
L77230 72508
L77230 72822
" />
<path d="M77515 72822
L77515 72222
" />
<path d="M77572 72594
L77744 72822
" />
<path d="M77744 72422
L77515 72651
" />
<path d="M78001 72765
L78030 72794
L78001 72822
L77972 72794
L78001 72765
L78001 72822
" />
<path d="M78287 72822
L78287 72222
" />
<path d="M78344 72594
L78515 72822
" />
<path d="M78515 72422
L78287 72651
" />
<path d="M78772 72822
L78772 72422
" />
<path d="M78772 72222
L78744 72251
L78772 72280
L78801 72251
L78772 72222
L78772 72280
" />
<path d="M79315 72794
L79258 72822
L79144 72822
L79087 72794
L79058 72765
L79029 72708
L79029 72537
L79058 72480
L79087 72451
L79144 72422
L79258 72422
L79315 72451
" />
<path d="M79829 72822
L79829 72508
L79801 72451
L79744 72422
L79629 72422
L79572 72451
" />
<path d="M79829 72794
L79772 72822
L79629 72822
L79572 72794
L79544 72737
L79544 72680
L79572 72622
L79629 72594
L79772 72594
L79829 72565
" />
<path d="M80372 72822
L80372 72222
" />
<path d="M80372 72794
L80315 72822
L80201 72822
L80144 72794
L80115 72765
L80087 72708
L80087 72537
L80115 72480
L80144 72451
L80201 72422
L80315 72422
L80372 72451
" />
<path d="M80515 72880
L80972 72880
" />
<path d="M81115 72422
L81115 73022
" />
<path d="M81115 72451
L81172 72422
L81287 72422
L81344 72451
L81372 72480
L81401 72537
L81401 72708
L81372 72765
L81344 72794
L81287 72822
L81172 72822
L81115 72794
" />
<path d="M81915 72794
L81858 72822
L81744 72822
L81687 72794
L81658 72765
L81629 72708
L81629 72537
L81658 72480
L81687 72451
L81744 72422
L81858 72422
L81915 72451
" />
<path d="M82172 72822
L82172 72222
" />
<path d="M82172 72451
L82229 72422
L82344 72422
L82401 72451
L82429 72480
L82458 72537
L82458 72708
L82429 72765
L82401 72794
L82344 72822
L82229 72822
L82172 72794
" />
<path d="M70944 73994
L71030 74022
L71172 74022
L71230 73994
L71258 73965
L71287 73908
L71287 73851
L71258 73794
L71230 73765
L71172 73737
L71058 73708
L71001 73680
L70972 73651
L70944 73594
L70944 73537
L70972 73480
L71001 73451
L71058 73422
L71201 73422
L71287 73451
" />
<path d="M71544 74022
L71544 73422
" />
<path d="M71801 74022
L71801 73708
L71772 73651
L71715 73622
L71630 73622
L71572 73651
L71544 73680
" />
<path d="M72315 73994
L72258 74022
L72144 74022
L72087 73994
L72058 73937
L72058 73708
L72087 73651
L72144 73622
L72258 73622
L72315 73651
L72344 73708
L72344 73765
L72058 73822
" />
<path d="M72830 73994
L72772 74022
L72658 74022
L72601 73994
L72572 73937
L72572 73708
L72601 73651
L72658 73622
L72772 73622
L72830 73651
L72858 73708
L72858 73765
L72572 73822
" />
<path d="M73030 73622
L73258 73622
" />
<path d="M73115 73422
L73115 73937
L73144 73994
L73201 74022
L73258 74022
" />
<path d="M73458 73965
L73487 73994
L73458 74022
L73430 73994
L73458 73965
L73458 74022
" />
<path d="M73458 73651
L73487 73680
L73458 73708
L73430 73680
L73458 73651
L73458 73708
" />
<path d="M70230 71980
L70230 77980
" />
<path d="M70230 71980
L112230 71980
" />
<path d="M70230 71980
L112230 71980
" />
<path d="M70230 74380
L112230 74380
" />
<path d="M103430 75580
L103430 77980
" />
<path d="M70230 76780
L112230 76780
" />
<path d="M70230 75580
L112230 75580
" />
<path d="M76830 75580
L76830 76780
" />
</g>
<g style="fill:#00A000; fill-opacity:0.0; 
stroke:#00A000; stroke-width:118.11; stroke-opacity:1; 
stroke-linecap:round; stroke-linejoin:round;">
<path d="M69739 38953
L69148 38953
L69148 39328
L69176 39422
L69204 39468
L69260 39515
L69345 39515
L69401 39468
L69429 39422
L69457 39328
L69457 38953
" />
<path d="M69345 40359
L69739 40359
" />
<path d="M69345 39937
L69654 39937
L69710 39984
L69739 40078
L69739 40218
L69710 40312
L69682 40359
" />
<path d="M69345 40828
L69739 40828
" />
<path d="M69401 40828
L69373 40874
L69345 40968
L69345 41109
L69373 41203
L69429 41249
L69739 41249
" />
<path d="M69739 41718
L69148 41718
" />
<path d="M69514 41812
L69739 42093
" />
<path d="M69345 42093
L69570 41718
" />
<path d="M46570 39000
L46570 39468
" />
<path d="M46739 38906
L46148 39234
L46739 39562
" />
<path d="M46345 39750
L46345 40125
" />
<path d="M46148 39890
L46654 39890
L46710 39937
L46739 40031
L46739 40125
" />
<path d="M46739 40874
L46429 40874
L46373 40828
L46345 40734
L46345 40546
L46373 40453
" />
<path d="M46710 40874
L46739 40781
L46739 40546
L46710 40453
L46654 40406
L46598 40406
L46542 40453
L46514 40546
L46514 40781
L46485 40874
" />
<path d="M46739 41343
L46345 41343
" />
<path d="M46457 41343
L46401 41390
L46373 41437
L46345 41531
L46345 41624
" />
<path d="M46739 41952
L46345 41952
" />
<path d="M46148 41952
L46176 41906
L46204 41952
L46176 41999
L46148 41952
L46204 41952
" />
</g>
<g style="fill:#FFFF00; fill-opacity:0.0; 
stroke:#FFFF00; stroke-width:39.3701; stroke-opacity:1; 
stroke-linecap:round; stroke-linejoin:round;">
<path d="M45000 47000
L45000 34000
" />
<path d="M71000 47000
L45000 47000
" />
<path d="M71000 34000
L71000 47000
" />
<path d="M45000 34000
L71000 34000
" />
</g>
<g style="fill:#808000; fill-opacity:0.0; 
stroke:#808000; stroke-width:39.3701; stroke-opacity:1; 
stroke-linecap:round; stroke-linejoin:round;">
</g>
<g style="fill:#808000; fill-opacity:1.0; 
stroke:#808000; stroke-width:39.3701; stroke-opacity:1; 
stroke-linecap:round; stroke-linejoin:round;">
<circle cx="48500" cy="39500" r="255.315" /> 
<circle cx="48500" cy="38500" r="255.315" /> 
<polyline style="fill-rule:evenodd;"
points="53255,41755
52744,41755
52744,41244
53255,41244
53255,41755
" /> 
<circle cx="53000" cy="40500" r="255.315" /> 
<circle cx="53000" cy="39500" r="255.315" /> 
<circle cx="53000" cy="38500" r="255.315" /> 
<circle cx="50000" cy="38500" r="255.315" /> 
<circle cx="50000" cy="39500" r="255.315" /> 
<circle cx="50000" cy="40500" r="255.315" /> 
<circle cx="50000" cy="41500" r="255.315" /> 
<polyline style="fill-rule:evenodd;"
points="62255,42255
61744,42255
61744,41744
62255,41744
62255,42255
" /> 
<circle cx="62000" cy="41000" r="255.315" /> 
<circle cx="62000" cy="40000" r="255.315" /> 
<circle cx="62000" cy="39000" r="255.315" /> 
<circle cx="59000" cy="39000" r="255.315" /> 
<circle cx="59000" cy="40000" r="255.315" /> 
<circle cx="59000" cy="41000" r="255.315" /> 
<circle cx="59000" cy="42000" r="255.315" /> 
<circle cx="62000" cy="36500" r="310.315" /> 
<circle cx="63000" cy="36500" r="310.315" /> 
<polyline style="fill-rule:evenodd;"
points="66280,44719
66280,45280
65719,45280
65719,44719
66280,44719
" /> 
<circle cx="65000" cy="45000" r="280.315" /> 
<circle cx="64000" cy="45000" r="280.315" /> 
<polyline style="fill-rule:evenodd;"
points="50719,45280
50719,44719
51280,44719
51280,45280
50719,45280
" /> 
<circle cx="52000" cy="45000" r="280.315" /> 
<circle cx="53000" cy="45000" r="280.315" /> 
<circle cx="48500" cy="43500" r="255.315" /> 
<circle cx="48500" cy="44500" r="255.315" /> 
<circle cx="56500" cy="43000" r="255.315" /> 
<circle cx="56500" cy="45000" r="255.315" /> 
<polyline style="fill-rule:evenodd;"
points="63669,39330
63669,38669
64330,38669
64330,39330
63669,39330
" /> 
<circle cx="66000" cy="39000" r="330.315" /> 
<circle cx="59500" cy="36500" r="255.315" /> 
<circle cx="60500" cy="36500" r="255.315" /> 
</g>
<g style="fill:#808000; fill-opacity:1.0; 
stroke:#808000; stroke-width:593; stroke-opacity:1; 
stroke-linecap:round; stroke-linejoin:round;">
<path d="M56203 36500
L56797 36500
" />
<path d="M56203 35500
L56797 35500
" />
</g>
<g style="fill:#808000; fill-opacity:1.0; 
stroke:#808000; stroke-width:39.3701; stroke-opacity:1; 
stroke-linecap:round; stroke-linejoin:round;">
<polyline style="fill-rule:evenodd;"
points="67780,35219
67780,35780
67219,35780
67219,35219
67780,35219
" /> 
<circle cx="66500" cy="35500" r="280.315" /> 
<polyline style="fill-rule:evenodd;"
points="58719,45280
58719,44719
59280,44719
59280,45280
58719,45280
" /> 
<circle cx="60000" cy="45000" r="280.315" /> 
<circle cx="61000" cy="45000" r="280.315" /> 
</g>
<g style="fill:#808000; fill-opacity:1.0; 
stroke:#808000; stroke-width:593; stroke-opacity:1; 
stroke-linecap:round; stroke-linejoin:round;">
<path d="M56797 39000
L56203 39000
" />
<path d="M56797 40000
L56203 40000
" />
<path d="M56797 41000
L56203 41000
" />
<path d="M52000 36797
L52000 36203
" />
<path d="M51000 36797
L51000 36203
" />
<path d="M50000 36797
L50000 36203
" />
<path d="M64000 42203
L64000 42797
" />
<path d="M65000 42203
L65000 42797
" />
<path d="M66000 42203
L66000 42797
" />
</g>
<g style="fill:#808000; fill-opacity:1.0; 
stroke:#808000; stroke-width:39.3701; stroke-opacity:1; 
stroke-linecap:round; stroke-linejoin:round;">
<circle cx="46500" cy="36000" r="780.315" /> 
<circle cx="46500" cy="45000" r="780.315" /> 
<circle cx="69500" cy="45000" r="780.315" /> 
<circle cx="69500" cy="36000" r="780.315" /> 
</g>
<g style="fill:#00A000; fill-opacity:1.0; 
stroke:#00A000; stroke-width:100; stroke-opacity:1; 
stroke-linecap:round; stroke-linejoin:round;">
<path d="M60500 44000
L54500 44000
" />
<path d="M54500 39500
L54500 44000
" />
<path d="M60500 44000
L60500 41000
" />
<path d="M62000 41000
L60500 41000
" />
<path d="M54500 39500
L53000 39500
" />
<path d="M62000 40000
L64000 39000
" />
</g>
<g style="fill:#00A000; fill-opacity:1.0; 
stroke:#00A000; stroke-width:236.22; stroke-opacity:1; 
stroke-linecap:round; stroke-linejoin:round;">
<path d="M56500 35500
L66500 35500
" />
<path d="M64000 42500
L62500 42500
" />
<path d="M62500 42500
L62000 42000
" />
<path d="M61000 45000
L61000 46000
" />
<path d="M64000 46000
L64000 45000
" />
<path d="M53000 45000
L53000 41500
" />
<path d="M67500 35500
L67500 46000
" />
<path d="M53000 46000
L53000 45000
" />
<path d="M67500 46000
L64000 46000
" />
<path d="M64000 46000
L61000 46000
" />
<path d="M61000 46000
L53000 46000
" />
<path d="M67500 35500
L67500 36500
" />
<path d="M67500 36500
L63000 36500
" />
<path d="M64000 45000
L64000 44000
" />
<path d="M64000 44000
L62000 42000
" />
</g>
<g style="fill:#00A000; fill-opacity:1.0; 
stroke:#00A000; stroke-width:100; stroke-opacity:1; 
stroke-linecap:round; stroke-linejoin:round;">
<path d="M62500 42500
L62000 42000
" />
<path d="M53000 45000
L53000 45000
" />
<path d="M50000 36500
L50000 37500
" />
<path d="M51500 39000
L50000 40500
" />
<path d="M50000 37500
L51500 39000
" />
<path d="M50000 36500
L50000 37000
" />
<path d="M50000 37000
L48500 38500
" />
<path d="M56500 41000
L59000 41000
" />
<path d="M56500 43000
L56500 41000
" />
<path d="M59000 40000
L59000 41000
" />
<path d="M56500 45000
L59000 45000
" />
<path d="M48500 44500
L51000 45000
" />
<path d="M66000 45000
L66000 43500
" />
<path d="M66000 43500
L65000 42500
" />
<path d="M66000 45000
L66000 45000
" />
<path d="M50000 39500
L48500 39500
" />
<path d="M48500 43500
L48500 39500
" />
<path d="M53000 40500
L52500 40500
" />
<path d="M48500 43500
L48500 43500
" />
<path d="M51500 43500
L48500 43500
" />
<path d="M51500 41500
L51500 43500
" />
<path d="M52500 40500
L51500 41500
" />
<path d="M66000 39000
L66000 42500
" />
<path d="M60500 36500
L62000 36500
" />
<path d="M51000 36500
L52000 36500
" />
<path d="M53000 38500
L53000 37500
" />
<path d="M53000 37500
L52000 36500
" />
<path d="M52000 36500
L56500 36500
" />
<path d="M56500 40000
L56500 39000
" />
<path d="M56500 39000
L56500 36500
" />
<path d="M59500 36500
L62000 39000
" />
<path d="M56500 36500
L59500 36500
" />
<path d="M59000 42000
L62000 39000
" />
<path d="M53000 38500
L50000 41500
" />
</g>
<g style="fill:#FFFFFF; fill-opacity:1.0; 
stroke:#FFFFFF; stroke-width:39.3701; stroke-opacity:1; 
stroke-linecap:round; stroke-linejoin:round;">
<circle cx="48500" cy="39500" r="140.315" /> 
<circle cx="48500" cy="38500" r="140.315" /> 
<circle cx="53000" cy="41500" r="140.315" /> 
<circle cx="53000" cy="40500" r="140.315" /> 
<circle cx="53000" cy="39500" r="140.315" /> 
<circle cx="53000" cy="38500" r="140.315" /> 
<circle cx="50000" cy="38500" r="140.315" /> 
<circle cx="50000" cy="39500" r="140.315" /> 
<circle cx="50000" cy="40500" r="140.315" /> 
<circle cx="50000" cy="41500" r="140.315" /> 
<circle cx="62000" cy="42000" r="140.315" /> 
<circle cx="62000" cy="41000" r="140.315" /> 
<circle cx="62000" cy="40000" r="140.315" /> 
<circle cx="62000" cy="39000" r="140.315" /> 
<circle cx="59000" cy="39000" r="140.315" /> 
<circle cx="59000" cy="40000" r="140.315" /> 
<circle cx="59000" cy="41000" r="140.315" /> 
<circle cx="59000" cy="42000" r="140.315" /> 
<circle cx="62000" cy="36500" r="140.315" /> 
<circle cx="63000" cy="36500" r="140.315" /> 
<circle cx="66000" cy="45000" r="180.315" /> 
<circle cx="65000" cy="45000" r="180.315" /> 
<circle cx="64000" cy="45000" r="180.315" /> 
<circle cx="51000" cy="45000" r="180.315" /> 
<circle cx="52000" cy="45000" r="180.315" /> 
<circle cx="53000" cy="45000" r="180.315" /> 
<circle cx="48500" cy="43500" r="140.315" /> 
<circle cx="48500" cy="44500" r="140.315" /> 
<circle cx="56500" cy="43000" r="140.315" /> 
<circle cx="56500" cy="45000" r="140.315" /> 
<circle cx="64000" cy="39000" r="180.315" /> 
<circle cx="66000" cy="39000" r="180.315" /> 
<circle cx="59500" cy="36500" r="140.315" /> 
<circle cx="60500" cy="36500" r="140.315" /> 
<circle cx="56500" cy="36500" r="176.815" /> 
<circle cx="56500" cy="35500" r="176.815" /> 
<circle cx="67500" cy="35500" r="180.315" /> 
<circle cx="66500" cy="35500" r="180.315" /> 
<circle cx="59000" cy="45000" r="180.315" /> 
<circle cx="60000" cy="45000" r="180.315" /> 
<circle cx="61000" cy="45000" r="180.315" /> 
<circle cx="56500" cy="39000" r="176.815" /> 
<circle cx="56500" cy="40000" r="176.815" /> 
<circle cx="56500" cy="41000" r="176.815" /> 
<circle cx="52000" cy="36500" r="176.815" /> 
<circle cx="51000" cy="36500" r="176.815" /> 
<circle cx="50000" cy="36500" r="176.815" /> 
<circle cx="64000" cy="42500" r="176.815" /> 
<circle cx="65000" cy="42500" r="176.815" /> 
<circle cx="66000" cy="42500" r="176.815" /> 
<circle cx="46500" cy="36000" r="580.315" /> 
<circle cx="46500" cy="45000" r="580.315" /> 
<circle cx="69500" cy="45000" r="580.315" /> 
<circle cx="69500" cy="36000" r="580.315" /> 
</g> 
</svg>
